{
    "asset" : {
        "generator" : "Khronos glTF Blender I/O v1.8.19",
        "version" : "2.0"
    },
    "scene" : 0,
    "scenes" : [
        {
            "name" : "Scene",
            "nodes" : [
                0
            ]
        }
    ],
    "nodes" : [
        {
            "mesh" : 0,
            "name" : "cricket",
            "rotation" : [
                0.5000001192092896,
                0.5,
                -0.5000000596046448,
                0.5
            ],
            "scale" : [
                0.6638860702514648,
                0.6638860702514648,
                0.6638860702514648
            ]
        }
    ],
    "materials" : [
        {
            "doubleSided" : true,
            "name" : "aiStandardSurface1",
            "pbrMetallicRoughness" : {
                "baseColorTexture" : {
                    "index" : 0
                },
                "metallicFactor" : 0,
                "roughnessFactor" : 0.8209682106971741
            }
        }
    ],
    "meshes" : [
        {
            "name" : "Mesh",
            "primitives" : [
                {
                    "attributes" : {
                        "POSITION" : 0,
                        "NORMAL" : 1,
                        "TEXCOORD_0" : 2
                    },
                    "indices" : 3,
                    "material" : 0
                }
            ]
        }
    ],
    "textures" : [
        {
            "sampler" : 0,
            "source" : 0
        }
    ],
    "images" : [
        {
            "bufferView" : 4,
            "mimeType" : "image/jpeg",
            "name" : "cricket_albedoMap"
        }
    ],
    "accessors" : [
        {
            "bufferView" : 0,
            "componentType" : 5126,
            "count" : 874,
            "max" : [
                2.340402364730835,
                2.4709012508392334,
                0.0008102953433990479
            ],
            "min" : [
                -2.340402364730835,
                -2.4709012508392334,
                -2.953331232070923
            ],
            "type" : "VEC3"
        },
        {
            "bufferView" : 1,
            "componentType" : 5126,
            "count" : 874,
            "type" : "VEC3"
        },
        {
            "bufferView" : 2,
            "componentType" : 5126,
            "count" : 874,
            "type" : "VEC2"
        },
        {
            "bufferView" : 3,
            "componentType" : 5123,
            "count" : 1344,
            "type" : "SCALAR"
        }
    ],
    "bufferViews" : [
        {
            "buffer" : 0,
            "byteLength" : 10488,
            "byteOffset" : 0
        },
        {
            "buffer" : 0,
            "byteLength" : 10488,
            "byteOffset" : 10488
        },
        {
            "buffer" : 0,
            "byteLength" : 6992,
            "byteOffset" : 20976
        },
        {
            "buffer" : 0,
            "byteLength" : 2688,
            "byteOffset" : 27968
        },
        {
            "buffer" : 0,
            "byteLength" : 93314,
            "byteOffset" : 30656
        }
    ],
    "samplers" : [
        {
            "magFilter" : 9729,
            "minFilter" : 9987
        }
    ],
    "buffers" : [
        {
            "byteLength" : 123972,
            "uri" : "data:application/octet-stream;base64,"
        }
    ]
}
