{
    "asset" : {
        "generator" : "Khronos glTF Blender I/O v1.8.19",
        "version" : "2.0"
    },
    "scene" : 0,
    "scenes" : [
        {
            "name" : "Scene",
            "nodes" : [
                0,
                1,
                2
            ]
        }
    ],
    "nodes" : [
        {
            "name" : "transform1"
        },
        {
            "name" : "transform2"
        },
        {
            "mesh" : 0,
            "name" : "lampChandelier",
            "rotation" : [
                0.5000001192092896,
                -0.5,
                0.5000000596046448,
                0.5
            ],
            "scale" : [
                1.4919817447662354,
                1.4919817447662354,
                1.4919817447662354
            ]
        }
    ],
    "materials" : [
        {
            "doubleSided" : true,
            "name" : "lambert1.004",
            "pbrMetallicRoughness" : {
                "baseColorTexture" : {
                    "index" : 0
                },
                "metallicFactor" : 0,
                "roughnessFactor" : 0.4118773341178894
            }
        }
    ],
    "meshes" : [
        {
            "name" : "Mesh.004",
            "primitives" : [
                {
                    "attributes" : {
                        "POSITION" : 0,
                        "NORMAL" : 1,
                        "TEXCOORD_0" : 2
                    },
                    "indices" : 3,
                    "material" : 0
                }
            ]
        }
    ],
    "textures" : [
        {
            "sampler" : 0,
            "source" : 0
        }
    ],
    "images" : [
        {
            "bufferView" : 4,
            "mimeType" : "image/jpeg",
            "name" : "lampChandelier_albedo"
        }
    ],
    "accessors" : [
        {
            "bufferView" : 0,
            "componentType" : 5126,
            "count" : 629,
            "max" : [
                2.456949234008789,
                0.3888888359069824,
                5.588010787963867
            ],
            "min" : [
                -2.456949234008789,
                -0.388888955116272,
                0
            ],
            "type" : "VEC3"
        },
        {
            "bufferView" : 1,
            "componentType" : 5126,
            "count" : 629,
            "type" : "VEC3"
        },
        {
            "bufferView" : 2,
            "componentType" : 5126,
            "count" : 629,
            "type" : "VEC2"
        },
        {
            "bufferView" : 3,
            "componentType" : 5123,
            "count" : 1158,
            "type" : "SCALAR"
        }
    ],
    "bufferViews" : [
        {
            "buffer" : 0,
            "byteLength" : 7548,
            "byteOffset" : 0
        },
        {
            "buffer" : 0,
            "byteLength" : 7548,
            "byteOffset" : 7548
        },
        {
            "buffer" : 0,
            "byteLength" : 5032,
            "byteOffset" : 15096
        },
        {
            "buffer" : 0,
            "byteLength" : 2316,
            "byteOffset" : 20128
        },
        {
            "buffer" : 0,
            "byteLength" : 83810,
            "byteOffset" : 22444
        }
    ],
    "samplers" : [
        {
            "magFilter" : 9729,
            "minFilter" : 9987
        }
    ],
    "buffers" : [
        {
            "byteLength" : 106256,
            "uri" : "data:application/octet-stream;base64,"
        }
    ]
}
