{"accessors":[{"bufferView":0,"componentType":5123,"count":324,"max":[95],"min":[0],"type":"SCALAR"},{"bufferView":1,"componentType":5126,"count":96,"max":[139.68771362304688,98.53426361083984,112.49671936035156],"min":[-140.7803192138672,93.51714324951172,-111.48770141601562],"type":"VEC3"},{"bufferView":2,"componentType":5126,"count":96,"max":[1.0,1.0,1.0],"min":[-1.0,-1.0,-1.0],"type":"VEC3"},{"bufferView":3,"componentType":5126,"count":96,"max":[0.8750000596046448,1.0],"min":[0.125,0.0],"type":"VEC2"},{"bufferView":4,"componentType":5123,"count":324,"max":[95],"min":[0],"type":"SCALAR"},{"bufferView":5,"componentType":5126,"count":96,"max":[74.96377563476562,78.9686508178711,109.24349212646484],"min":[22.287025451660156,4.573062896728516,108.21408081054688],"type":"VEC3"},{"bufferView":6,"componentType":5126,"count":96,"max":[1.0,1.0,1.0],"min":[-1.0,-1.0,-1.0],"type":"VEC3"},{"bufferView":7,"componentType":5126,"count":96,"max":[1.0,0.9999999597202986],"min":[0.0,0.03709304332733154],"type":"VEC2"},{"bufferView":8,"componentType":5123,"count":936,"max":[255],"min":[0],"type":"SCALAR"},{"bufferView":9,"componentType":5126,"count":256,"max":[75.13113403320312,79.2965316772461,109.65644073486328],"min":[21.533798217773438,4.3208909034729,107.79314422607422],"type":"VEC3"},{"bufferView":10,"componentType":5126,"count":256,"max":[1.0,1.0,1.0],"min":[-1.0,-1.0,-1.0],"type":"VEC3"},{"bufferView":11,"componentType":5126,"count":256,"max":[0.5104365348815918,-0.0014115571975708008],"min":[2.9802322387695312e-08,-1.0014116764068604],"type":"VEC2"},{"bufferView":12,"componentType":5123,"count":468,"max":[127],"min":[0],"type":"SCALAR"},{"bufferView":13,"componentType":5126,"count":128,"max":[74.21382141113281,79.3277816772461,109.65644836425781],"min":[21.882827758789062,77.53707122802734,107.79315948486328],"type":"VEC3"},{"bufferView":14,"componentType":5126,"count":128,"max":[1.0,1.0,1.0],"min":[-1.0,-1.0,-1.0],"type":"VEC3"},{"bufferView":15,"componentType":5126,"count":128,"max":[0.5872607231140137,-0.0014115571975708008],"min":[0.2048642337322235,-0.6993842124938965],"type":"VEC2"},{"bufferView":16,"componentType":5123,"count":468,"max":[127],"min":[0],"type":"SCALAR"},{"bufferView":17,"componentType":5126,"count":128,"max":[74.21382141113281,6.108949661254883,109.65644836425781],"min":[21.882827758789062,4.318239212036133,107.79315948486328],"type":"VEC3"},{"bufferView":18,"componentType":5126,"count":128,"max":[1.0,1.0,1.0],"min":[-1.0,-1.0,-1.0],"type":"VEC3"},{"bufferView":19,"componentType":5126,"count":128,"max":[0.61286860704422,-0.0014115571975708008],"min":[0.23047232627868652,-0.6993849277496338],"type":"VEC2"},{"bufferView":20,"componentType":5123,"count":1032,"max":[293],"min":[0],"type":"SCALAR"},{"bufferView":21,"componentType":5126,"count":294,"max":[0.5182867050170898,5.56007719039917,-0.9646173715591431],"min":[0.2937277555465698,5.212655067443848,-1.552001953125],"type":"VEC3"},{"bufferView":22,"componentType":5126,"count":294,"max":[1.0,1.0,1.0],"min":[-1.0,-1.0,-1.0],"type":"VEC3"},{"bufferView":23,"componentType":5126,"count":294,"max":[0.99267578125,-1.0085091590881348],"min":[0.00732421875,-1.9914908409118652],"type":"VEC2"}],"asset":{"copyright":null,"generator":"Soft8Soft Verge3D for Maya plug-in","version":"2.0"},"bufferViews":[{"buffer":0,"byteLength":648,"byteOffset":0,"target":34963},{"buffer":0,"byteLength":1152,"byteOffset":648,"target":34962},{"buffer":0,"byteLength":1152,"byteOffset":1800,"target":34962},{"buffer":0,"byteLength":768,"byteOffset":2952,"target":34962},{"buffer":0,"byteLength":648,"byteOffset":3720,"target":34963},{"buffer":0,"byteLength":1152,"byteOffset":4368,"target":34962},{"buffer":0,"byteLength":1152,"byteOffset":5520,"target":34962},{"buffer":0,"byteLength":768,"byteOffset":6672,"target":34962},{"buffer":0,"byteLength":1872,"byteOffset":7440,"target":34963},{"buffer":0,"byteLength":3072,"byteOffset":9312,"target":34962},{"buffer":0,"byteLength":3072,"byteOffset":12384,"target":34962},{"buffer":0,"byteLength":2048,"byteOffset":15456,"target":34962},{"buffer":0,"byteLength":936,"byteOffset":17504,"target":34963},{"buffer":0,"byteLength":1536,"byteOffset":18440,"target":34962},{"buffer":0,"byteLength":1536,"byteOffset":19976,"target":34962},{"buffer":0,"byteLength":1024,"byteOffset":21512,"target":34962},{"buffer":0,"byteLength":936,"byteOffset":22536,"target":34963},{"buffer":0,"byteLength":1536,"byteOffset":23472,"target":34962},{"buffer":0,"byteLength":1536,"byteOffset":25008,"target":34962},{"buffer":0,"byteLength":1024,"byteOffset":26544,"target":34962},{"buffer":0,"byteLength":2064,"byteOffset":27568,"target":34963},{"buffer":0,"byteLength":3528,"byteOffset":29632,"target":34962},{"buffer":0,"byteLength":3528,"byteOffset":33160,"target":34962},{"buffer":0,"byteLength":2352,"byteOffset":36688,"target":34962}],"buffers":[{"byteLength":39040,"uri":"balconyDoor01.bin"}],"cameras":[{"extensions":{"S8S_v3d_camera_data":{"controls":"ORBIT","enablePan":true,"moveSpeed":1.0,"orbitMaxDistance":1000.0,"orbitMaxPolarAngle":3.141592653589793,"orbitMaxZoom":100.0,"orbitMinDistance":0.0,"orbitMinPolarAngle":0.0,"orbitMinZoom":0.009999999776482582,"orbitTarget":[88.11468891721587,37.77737944698963,0.0],"rotateSpeed":1.0,"viewportFitInitialAspect":1.5,"viewportFitType":"HORIZONTAL"}},"name":"backShape","orthographic":{"xmag":43.547949498922264,"ymag":43.547949498922264,"zfar":10000.0,"znear":0.1},"type":"orthographic"},{"extensions":{"S8S_v3d_camera_data":{"controls":"ORBIT","enablePan":true,"moveSpeed":1.0,"orbitMaxDistance":1000.0,"orbitMaxPolarAngle":3.141592653589793,"orbitMaxZoom":100.0,"orbitMinDistance":0.0,"orbitMinPolarAngle":0.0,"orbitMinZoom":0.009999999776482582,"orbitTarget":[0.0,32.28768630810157,63.65890990440114],"rotateSpeed":1.0,"viewportFitInitialAspect":1.5,"viewportFitType":"HORIZONTAL"}},"name":"leftShape","orthographic":{"xmag":83.68009530069119,"ymag":83.68009530069119,"zfar":10000.0,"znear":0.1},"type":"orthographic"}],"extensions":{"S8S_v3d_data":{"lights":[{"color":[1,1,1],"intensity":2.5,"name":"__DEFAULT__","profile":"maya","type":"directional"}]}},"extensionsUsed":["S8S_v3d_texture_data","S8S_v3d_material_data","S8S_v3d_data","S8S_v3d_camera_data","S8S_v3d_node_data","S8S_v3d_scene_data"],"images":[{"mimeType":"image/png","uri":"UVs_U1_V1.png"}],"materials":[{"extensions":{"S8S_v3d_material_data":{"gtaoVisible":true,"nodeGraph":{"edges":[{"fromNode":1,"fromOutput":0,"toInput":0,"toNode":0}],"nodes":[{"inputs":[[0.0,0.0,0.0,1],[0,0,0,0],[0,0,0]],"is_active_output":true,"name":"initialParticleSE","outputs":[],"type":"SHADING_ENGINE_MY"},{"inputs":[[0.5,0.5,0.5],[0.0,0.0,0.0],[0.0,0.0,0.0],1.0,0.800000011920929,[1.0,1.0,1.0],0.0,[0.0,0.0,0.0]],"name":"lambert1","outputs":[[0.0,0.0,0.0,0]],"type":"LAMBERT_MY"}]},"profile":"maya"}},"name":"lambert1"},{"alphaMode":"BLEND","extensions":{"S8S_v3d_material_data":{"gtaoVisible":true,"nodeGraph":{"edges":[{"fromNode":1,"fromOutput":0,"toInput":0,"toNode":0}],"nodes":[{"inputs":[[0.0,0.0,0.0,1],[0,0,0,0],[0,0,0]],"is_active_output":true,"name":"aiStandardSurface3SG","outputs":[],"type":"SHADING_ENGINE_MY"},{"inputs":[0.0,[1.0,1.0,1.0],0.0,0.0,1.0,[1.0,1.0,1.0],0.0,1.0,[1.0,1.0,1.0],0.0,[0.0,0.0,0.0],0.0,0.0,[1.0,1.0,1.0],[1.0,1.0,1.0],0.0,[1.0,1.0,1.0],0.0,0.0,[1.0,1.0,1.0],0.30000001192092896,0.0,[1.0,1.0,1.0],[1.0,1.0,1.0],[1.0,1.0,1.0],[0.0,0.0,0.0],1.5199999809265137],"name":"aiStandardSurface3","outputs":[[0.0,0.0,0.0,0],[0.0,0.0,0.0]],"thinWalled":false,"type":"STANDARD_SURFACE_AR"}]},"profile":"maya"}},"name":"aiStandardSurface3"},{"extensions":{"S8S_v3d_material_data":{"gtaoVisible":true,"nodeGraph":{"edges":[{"fromNode":1,"fromOutput":0,"toInput":0,"toNode":0},{"fromNode":2,"fromOutput":1,"toInput":1,"toNode":1},{"fromNode":3,"fromOutput":0,"toInput":0,"toNode":2}],"nodes":[{"inputs":[[0.0,0.0,0.0,1],[0,0,0,0],[0,0,0]],"is_active_output":true,"name":"aiStandardSurface2SG","outputs":[],"type":"SHADING_ENGINE_MY"},{"inputs":[1.0,[0.0,0.0,0.0],0.0,0.0,1.0,[1.0,1.0,1.0],0.20000000298023224,0.0,[1.0,1.0,1.0],0.0,[0.0,0.0,0.0],0.0,0.0,[1.0,1.0,1.0],[1.0,1.0,1.0],0.0,[1.0,1.0,1.0],0.10000000149011612,0.0,[1.0,1.0,1.0],0.30000001192092896,0.0,[1.0,1.0,1.0],[1.0,1.0,1.0],[1.0,1.0,1.0],[0.0,0.0,0.0],1.5],"name":"aiStandardSurface2","outputs":[[0.0,0.0,0.0,0],[0.0,0.0,0.0]],"thinWalled":false,"type":"STANDARD_SURFACE_AR"},{"inputs":[[0.0,0.0]],"name":"file1","outputs":[1.0,[0.0,0.0,0.0],[2048.0,2048.0],[0.0,0.0,0.0]],"texture":0,"type":"FILE_MY"},{"inputs":[[0.0,0.0],[1.0,1.0],0.0],"name":"place2dTexture2","outputs":[[0.0,0.0]],"type":"PLACE_2D_TEXTURE_MY","uvIndex":0}]},"profile":"maya"}},"name":"aiStandardSurface2"},{"extensions":{"S8S_v3d_material_data":{"nodeGraph":{"edges":[{"fromNode":0,"fromOutput":0,"toInput":0,"toNode":1}],"nodes":[{"inputs":[[0.10653923276464054,0.10653923276464054,0.10653923276464054],[0,0,0],[0,0,0],[0,0,0],[0,0,0],[0,0,0]],"name":"aiRaySwitchColor","outputs":[[0,0,0],0],"type":"RAY_SWITCH_AR"},{"inputs":[[0,0,0],1],"is_active_output":true,"name":"aiSkyDomeLightShapeColor","outputs":[],"type":"SKYDOME_LIGHT_AR"}]},"profile":"maya"}},"name":"Verge3D_Environment"}],"meshes":[{"name":"balconyBase_geo1Shape","primitives":[{"attributes":{"NORMAL":2,"POSITION":1,"TEXCOORD_0":3},"indices":0,"material":0,"mode":4}]},{"name":"balconyWindow2Shape","primitives":[{"attributes":{"NORMAL":6,"POSITION":5,"TEXCOORD_0":7},"indices":4,"material":1,"mode":4}]},{"name":"construction11Shape","primitives":[{"attributes":{"NORMAL":10,"POSITION":9,"TEXCOORD_0":11},"indices":8,"material":2,"mode":4}]},{"name":"construction5Shape","primitives":[{"attributes":{"NORMAL":14,"POSITION":13,"TEXCOORD_0":15},"indices":12,"material":2,"mode":4}]},{"name":"construction6Shape","primitives":[{"attributes":{"NORMAL":18,"POSITION":17,"TEXCOORD_0":19},"indices":16,"material":2,"mode":4}]},{"name":"handleShape","primitives":[{"attributes":{"NORMAL":22,"POSITION":21,"TEXCOORD_0":23},"indices":20,"material":2,"mode":4}]}],"nodes":[{"extensions":{"S8S_v3d_node_data":{"frustumCulling":true,"hidden":true,"hidpiCompositing":false,"renderOrder":0,"useCastShadows":true,"useShadows":true}},"mesh":0,"name":"balconyBase_geo1","rotation":[0.0,0.0,0.0,1.0],"scale":[1.0,1.0,1.0],"translation":[0.0,0.0,0.0]},{"children":[2],"extensions":{"S8S_v3d_node_data":{"hidden":false,"hidpiCompositing":false}},"name":"apartment","rotation":[0.0,0.0,0.0,1.0],"scale":[1.0,1.0,1.0],"translation":[0.0,0.0,0.0]},{"children":[3],"extensions":{"S8S_v3d_node_data":{"groupNames":["apartment"],"hidden":false,"hidpiCompositing":false}},"name":"balcony","rotation":[0.0,0.0,0.0,1.0],"scale":[1.0,1.0,1.0],"translation":[0.0,0.0,0.0]},{"children":[4],"extensions":{"S8S_v3d_node_data":{"groupNames":["balcony","apartment"],"hidden":false,"hidpiCompositing":false}},"name":"balconyDoor","rotation":[0.0,0.0,0.0,1.0],"scale":[1.0,1.0,1.0],"translation":[0.0,0.0,0.0]},{"children":[5,6,7,8,9],"extensions":{"S8S_v3d_node_data":{"groupNames":["balconyDoor","balcony","apartment"],"hidden":false,"hidpiCompositing":false}},"name":"door04","rotation":[0.0,0.0,0.0,1.0],"scale":[1.0,1.0,1.0],"translation":[30.275128001309994,0.0,0.0]},{"extensions":{"S8S_v3d_node_data":{"frustumCulling":true,"groupNames":["door04","balconyDoor","balcony","apartment"],"hidden":false,"hidpiCompositing":false,"renderOrder":0,"useCastShadows":true,"useShadows":true}},"mesh":1,"name":"balconyWindow2","rotation":[0.0,0.0,0.0,1.0],"scale":[1.0,1.0,1.0],"translation":[0.0,0.0,0.0]},{"extensions":{"S8S_v3d_node_data":{"frustumCulling":true,"groupNames":["door04","balconyDoor","balcony","apartment"],"hidden":false,"hidpiCompositing":false,"renderOrder":0,"useCastShadows":true,"useShadows":true}},"mesh":2,"name":"construction11","rotation":[0.0,0.0,0.0,1.0],"scale":[1.0,1.0,1.0],"translation":[0.0,0.0,0.0]},{"extensions":{"S8S_v3d_node_data":{"frustumCulling":true,"groupNames":["door04","balconyDoor","balcony","apartment"],"hidden":false,"hidpiCompositing":false,"renderOrder":0,"useCastShadows":true,"useShadows":true}},"mesh":3,"name":"construction5","rotation":[0.0,0.0,0.0,1.0],"scale":[1.0,1.0,1.0],"translation":[0.0,0.0,0.0]},{"extensions":{"S8S_v3d_node_data":{"frustumCulling":true,"groupNames":["door04","balconyDoor","balcony","apartment"],"hidden":false,"hidpiCompositing":false,"renderOrder":0,"useCastShadows":true,"useShadows":true}},"mesh":4,"name":"construction6","rotation":[0.0,0.0,0.0,1.0],"scale":[1.0,1.0,1.0],"translation":[0.0,0.0,0.0]},{"extensions":{"S8S_v3d_node_data":{"frustumCulling":true,"groupNames":["door04","balconyDoor","balcony","apartment"],"hidden":false,"hidpiCompositing":false,"renderOrder":0,"useCastShadows":true,"useShadows":true}},"mesh":5,"name":"handle","rotation":[-0.7071067811865476,4.329780281177467e-17,0.7071067811865476,4.329780281177467e-17],"scale":[10.219310212304327,10.219310212304327,-10.219310212304327],"translation":[43.583928839153245,97.21052654584159,111.2831233927055]},{"camera":0,"children":[12],"extensions":{"S8S_v3d_node_data":{"hidden":true,"hidpiCompositing":false}},"name":"back","rotation":[0.0,1.0,0.0,6.123233995736766e-17],"scale":[1.0,1.0,1.0],"translation":[88.114688917216,37.77737944698963,-1000.1]},{"camera":1,"extensions":{"S8S_v3d_node_data":{"hidden":true,"hidpiCompositing":false}},"name":"left","rotation":[0.0,-0.7071067811865476,0.0,0.7071067811865476],"scale":[1.0,1.0,1.0],"translation":[-1000.1,32.28768630810157,63.65890990440114]},{"extensions":{"S8S_v3d_node_data":{"light":0}},"name":"__DEFAULT_LIGHT__","rotation":[-0.13052619222005157,-0.0,-0.0,0.9914448613738104],"translation":[88.114688917216,37.77737944698963,-1000.1]}],"samplers":[{}],"scene":0,"scenes":[{"extensions":{"S8S_v3d_scene_data":{"aaMethod":"AUTO","iblEnvironmentMode":"PMREM","physicallyCorrectLights":true,"shadowMap":{"esmDistanceScale":2.5,"renderReverseSided":false,"renderSingleSided":true,"type":"PCFPOISSON"},"unitsScaleFactor":1.0,"useHDR":false,"worldMaterial":3}},"extras":{"animFrameRate":24.0,"coordSystem":"Y_UP_RIGHT"},"name":"Scene","nodes":[0,1,10,11]}],"textures":[{"extensions":{"S8S_v3d_texture_data":{"colorSpace":"srgb"}},"name":"file1","sampler":0,"source":0}]}