{
    "asset" : {
        "generator" : "Khronos glTF Blender I/O v1.8.19",
        "version" : "2.0"
    },
    "scene" : 0,
    "scenes" : [
        {
            "name" : "Scene",
            "nodes" : [
                7,
                13
            ]
        }
    ],
    "nodes" : [
        {
            "mesh" : 0,
            "name" : "construction11"
        },
        {
            "mesh" : 1,
            "name" : "construction5"
        },
        {
            "mesh" : 2,
            "name" : "construction6"
        },
        {
            "mesh" : 3,
            "name" : "handle",
            "rotation" : [
                0,
                0,
                0.7071067690849304,
                0.7071068286895752
            ],
            "scale" : [
                -10.21930980682373,
                -10.21930980682373,
                -10.21930980682373
            ],
            "translation" : [
                43.58392333984375,
                111.28313446044922,
                -97.21052551269531
            ]
        },
        {
            "children" : [
                0,
                1,
                2,
                3
            ],
            "name" : "door04",
            "translation" : [
                30.275127410888672,
                0,
                0
            ]
        },
        {
            "children" : [
                4
            ],
            "name" : "balconyDoor"
        },
        {
            "children" : [
                5
            ],
            "name" : "balcony"
        },
        {
            "children" : [
                6
            ],
            "name" : "apartment",
            "rotation" : [
                0.7071068286895752,
                0,
                0,
                0.7071067094802856
            ],
            "scale" : [
                0.009999999776482582,
                0.009999999776482582,
                0.009999999776482582
            ]
        },
        {
            "mesh" : 4,
            "name" : "balconyWindow2"
        },
        {
            "mesh" : 5,
            "name" : "handle.001",
            "rotation" : [
                0,
                0,
                0.7071067690849304,
                0.7071068286895752
            ],
            "scale" : [
                -10.21930980682373,
                -10.21930980682373,
                -10.21930980682373
            ],
            "translation" : [
                43.58392333984375,
                111.28313446044922,
                -97.21052551269531
            ]
        },
        {
            "children" : [
                8,
                9
            ],
            "name" : "door04.001",
            "translation" : [
                30.275127410888672,
                0,
                0
            ]
        },
        {
            "children" : [
                10
            ],
            "name" : "balconyDoor.001"
        },
        {
            "children" : [
                11
            ],
            "name" : "balcony.001"
        },
        {
            "children" : [
                12
            ],
            "name" : "apartment.001",
            "rotation" : [
                0.7071068286895752,
                0,
                0,
                0.7071067094802856
            ],
            "scale" : [
                0.009999999776482582,
                0.009999999776482582,
                0.009999999776482582
            ]
        }
    ],
    "materials" : [
        {
            "doubleSided" : true,
            "name" : "aiStandardSurface2",
            "pbrMetallicRoughness" : {
                "baseColorTexture" : {
                    "index" : 0
                },
                "metallicFactor" : 0,
                "roughnessFactor" : 0.5527864098548889
            }
        },
        {
            "alphaMode" : "BLEND",
            "doubleSided" : true,
            "name" : "aiStandardSurface3.001",
            "pbrMetallicRoughness" : {
                "baseColorFactor" : [
                    1,
                    1,
                    1,
                    0.05000000074505806
                ],
                "metallicFactor" : 0,
                "roughnessFactor" : 0.5527864098548889
            }
        },
        {
            "doubleSided" : true,
            "name" : "aiStandardSurface2.001",
            "pbrMetallicRoughness" : {
                "baseColorTexture" : {
                    "index" : 1
                },
                "metallicFactor" : 0,
                "roughnessFactor" : 0.5527864098548889
            }
        }
    ],
    "meshes" : [
        {
            "name" : "Mesh.001",
            "primitives" : [
                {
                    "attributes" : {
                        "POSITION" : 0,
                        "NORMAL" : 1,
                        "TEXCOORD_0" : 2
                    },
                    "indices" : 3,
                    "material" : 0
                }
            ]
        },
        {
            "name" : "Mesh.002",
            "primitives" : [
                {
                    "attributes" : {
                        "POSITION" : 4,
                        "NORMAL" : 5,
                        "TEXCOORD_0" : 6
                    },
                    "indices" : 7,
                    "material" : 0
                }
            ]
        },
        {
            "name" : "Mesh.003",
            "primitives" : [
                {
                    "attributes" : {
                        "POSITION" : 8,
                        "NORMAL" : 9,
                        "TEXCOORD_0" : 10
                    },
                    "indices" : 11,
                    "material" : 0
                }
            ]
        },
        {
            "name" : "Mesh.004",
            "primitives" : [
                {
                    "attributes" : {
                        "POSITION" : 12,
                        "NORMAL" : 13,
                        "TEXCOORD_0" : 14
                    },
                    "indices" : 15,
                    "material" : 0
                }
            ]
        },
        {
            "name" : "Mesh.005",
            "primitives" : [
                {
                    "attributes" : {
                        "POSITION" : 16,
                        "NORMAL" : 17,
                        "TEXCOORD_0" : 18
                    },
                    "indices" : 19,
                    "material" : 1
                }
            ]
        },
        {
            "name" : "Mesh.009",
            "primitives" : [
                {
                    "attributes" : {
                        "POSITION" : 20,
                        "NORMAL" : 21,
                        "TEXCOORD_0" : 22
                    },
                    "indices" : 15,
                    "material" : 2
                }
            ]
        }
    ],
    "textures" : [
        {
            "sampler" : 0,
            "source" : 0
        },
        {
            "sampler" : 0,
            "source" : 0
        }
    ],
    "images" : [
        {
            "bufferView" : 4,
            "mimeType" : "image/jpeg",
            "name" : "B1"
        }
    ],
    "accessors" : [
        {
            "bufferView" : 0,
            "componentType" : 5126,
            "count" : 256,
            "max" : [
                75.13113403320312,
                109.65644073486328,
                -4.3208909034729
            ],
            "min" : [
                21.533798217773438,
                107.79314422607422,
                -79.2965316772461
            ],
            "type" : "VEC3"
        },
        {
            "bufferView" : 1,
            "componentType" : 5126,
            "count" : 256,
            "type" : "VEC3"
        },
        {
            "bufferView" : 2,
            "componentType" : 5126,
            "count" : 256,
            "type" : "VEC2"
        },
        {
            "bufferView" : 3,
            "componentType" : 5123,
            "count" : 936,
            "type" : "SCALAR"
        },
        {
            "bufferView" : 5,
            "componentType" : 5126,
            "count" : 128,
            "max" : [
                74.21382141113281,
                109.65644836425781,
                -77.53707122802734
            ],
            "min" : [
                21.882827758789062,
                107.79315948486328,
                -79.3277816772461
            ],
            "type" : "VEC3"
        },
        {
            "bufferView" : 6,
            "componentType" : 5126,
            "count" : 128,
            "type" : "VEC3"
        },
        {
            "bufferView" : 7,
            "componentType" : 5126,
            "count" : 128,
            "type" : "VEC2"
        },
        {
            "bufferView" : 8,
            "componentType" : 5123,
            "count" : 468,
            "type" : "SCALAR"
        },
        {
            "bufferView" : 9,
            "componentType" : 5126,
            "count" : 128,
            "max" : [
                74.21382141113281,
                109.65644836425781,
                -4.318239212036133
            ],
            "min" : [
                21.882827758789062,
                107.79315948486328,
                -6.108949661254883
            ],
            "type" : "VEC3"
        },
        {
            "bufferView" : 10,
            "componentType" : 5126,
            "count" : 128,
            "type" : "VEC3"
        },
        {
            "bufferView" : 11,
            "componentType" : 5126,
            "count" : 128,
            "type" : "VEC2"
        },
        {
            "bufferView" : 12,
            "componentType" : 5123,
            "count" : 468,
            "type" : "SCALAR"
        },
        {
            "bufferView" : 13,
            "componentType" : 5126,
            "count" : 294,
            "max" : [
                0.5182867050170898,
                -0.9646173715591431,
                -5.212655067443848
            ],
            "min" : [
                0.2937277555465698,
                -1.552001953125,
                -5.56007719039917
            ],
            "type" : "VEC3"
        },
        {
            "bufferView" : 14,
            "componentType" : 5126,
            "count" : 294,
            "type" : "VEC3"
        },
        {
            "bufferView" : 15,
            "componentType" : 5126,
            "count" : 294,
            "type" : "VEC2"
        },
        {
            "bufferView" : 16,
            "componentType" : 5123,
            "count" : 1032,
            "type" : "SCALAR"
        },
        {
            "bufferView" : 17,
            "componentType" : 5126,
            "count" : 96,
            "max" : [
                74.96377563476562,
                109.24349212646484,
                -4.573062896728516
            ],
            "min" : [
                22.287025451660156,
                108.21408081054688,
                -78.9686508178711
            ],
            "type" : "VEC3"
        },
        {
            "bufferView" : 18,
            "componentType" : 5126,
            "count" : 96,
            "type" : "VEC3"
        },
        {
            "bufferView" : 19,
            "componentType" : 5126,
            "count" : 96,
            "type" : "VEC2"
        },
        {
            "bufferView" : 20,
            "componentType" : 5123,
            "count" : 324,
            "type" : "SCALAR"
        },
        {
            "bufferView" : 21,
            "componentType" : 5126,
            "count" : 294,
            "max" : [
                0.5182867050170898,
                -0.9646173715591431,
                -5.212655067443848
            ],
            "min" : [
                0.2937277555465698,
                -1.552001953125,
                -5.56007719039917
            ],
            "type" : "VEC3"
        },
        {
            "bufferView" : 22,
            "componentType" : 5126,
            "count" : 294,
            "type" : "VEC3"
        },
        {
            "bufferView" : 23,
            "componentType" : 5126,
            "count" : 294,
            "type" : "VEC2"
        }
    ],
    "bufferViews" : [
        {
            "buffer" : 0,
            "byteLength" : 3072,
            "byteOffset" : 0
        },
        {
            "buffer" : 0,
            "byteLength" : 3072,
            "byteOffset" : 3072
        },
        {
            "buffer" : 0,
            "byteLength" : 2048,
            "byteOffset" : 6144
        },
        {
            "buffer" : 0,
            "byteLength" : 1872,
            "byteOffset" : 8192
        },
        {
            "buffer" : 0,
            "byteLength" : 84118,
            "byteOffset" : 10064
        },
        {
            "buffer" : 0,
            "byteLength" : 1536,
            "byteOffset" : 94184
        },
        {
            "buffer" : 0,
            "byteLength" : 1536,
            "byteOffset" : 95720
        },
        {
            "buffer" : 0,
            "byteLength" : 1024,
            "byteOffset" : 97256
        },
        {
            "buffer" : 0,
            "byteLength" : 936,
            "byteOffset" : 98280
        },
        {
            "buffer" : 0,
            "byteLength" : 1536,
            "byteOffset" : 99216
        },
        {
            "buffer" : 0,
            "byteLength" : 1536,
            "byteOffset" : 100752
        },
        {
            "buffer" : 0,
            "byteLength" : 1024,
            "byteOffset" : 102288
        },
        {
            "buffer" : 0,
            "byteLength" : 936,
            "byteOffset" : 103312
        },
        {
            "buffer" : 0,
            "byteLength" : 3528,
            "byteOffset" : 104248
        },
        {
            "buffer" : 0,
            "byteLength" : 3528,
            "byteOffset" : 107776
        },
        {
            "buffer" : 0,
            "byteLength" : 2352,
            "byteOffset" : 111304
        },
        {
            "buffer" : 0,
            "byteLength" : 2064,
            "byteOffset" : 113656
        },
        {
            "buffer" : 0,
            "byteLength" : 1152,
            "byteOffset" : 115720
        },
        {
            "buffer" : 0,
            "byteLength" : 1152,
            "byteOffset" : 116872
        },
        {
            "buffer" : 0,
            "byteLength" : 768,
            "byteOffset" : 118024
        },
        {
            "buffer" : 0,
            "byteLength" : 648,
            "byteOffset" : 118792
        },
        {
            "buffer" : 0,
            "byteLength" : 3528,
            "byteOffset" : 119440
        },
        {
            "buffer" : 0,
            "byteLength" : 3528,
            "byteOffset" : 122968
        },
        {
            "buffer" : 0,
            "byteLength" : 2352,
            "byteOffset" : 126496
        }
    ],
    "samplers" : [
        {
            "magFilter" : 9729,
            "minFilter" : 9987
        }
    ],
    "buffers" : [
        {
            "byteLength" : 128848,
            "uri" : "data:application/octet-stream;base64,"
        }
    ]
}
