{
    "asset" : {
        "generator" : "Khronos glTF Blender I/O v1.8.19",
        "version" : "2.0"
    },
    "scene" : 0,
    "scenes" : [
        {
            "name" : "Scene",
            "nodes" : [
                6,
                11
            ]
        }
    ],
    "nodes" : [
        {
            "mesh" : 0,
            "name" : "construction11"
        },
        {
            "mesh" : 1,
            "name" : "construction5"
        },
        {
            "mesh" : 2,
            "name" : "construction6"
        },
        {
            "children" : [
                0,
                1,
                2
            ],
            "name" : "door",
            "translation" : [
                -3.955453395843506,
                0,
                0
            ]
        },
        {
            "children" : [
                3
            ],
            "name" : "balconyDoor"
        },
        {
            "children" : [
                4
            ],
            "name" : "balcony"
        },
        {
            "children" : [
                5
            ],
            "name" : "apartment",
            "rotation" : [
                0.7071068286895752,
                0,
                0,
                0.7071067094802856
            ],
            "scale" : [
                0.009999999776482582,
                0.009999999776482582,
                0.009999999776482582
            ]
        },
        {
            "mesh" : 3,
            "name" : "balconyWindow2"
        },
        {
            "children" : [
                7
            ],
            "name" : "door.001",
            "translation" : [
                -3.955453395843506,
                0,
                0
            ]
        },
        {
            "children" : [
                8
            ],
            "name" : "balconyDoor.001"
        },
        {
            "children" : [
                9
            ],
            "name" : "balcony.001"
        },
        {
            "children" : [
                10
            ],
            "name" : "apartment.001",
            "rotation" : [
                0.7071068286895752,
                0,
                0,
                0.7071067094802856
            ],
            "scale" : [
                0.009999999776482582,
                0.009999999776482582,
                0.009999999776482582
            ]
        }
    ],
    "materials" : [
        {
            "doubleSided" : true,
            "name" : "aiStandardSurface2",
            "pbrMetallicRoughness" : {
                "baseColorTexture" : {
                    "index" : 0
                },
                "metallicFactor" : 0,
                "roughnessFactor" : 0.5527864098548889
            }
        },
        {
            "alphaMode" : "BLEND",
            "doubleSided" : true,
            "name" : "aiStandardSurface3.001",
            "pbrMetallicRoughness" : {
                "baseColorFactor" : [
                    1,
                    1,
                    1,
                    0.05000000074505806
                ],
                "metallicFactor" : 0,
                "roughnessFactor" : 0.5527864098548889
            }
        }
    ],
    "meshes" : [
        {
            "name" : "Mesh.001",
            "primitives" : [
                {
                    "attributes" : {
                        "POSITION" : 0,
                        "NORMAL" : 1,
                        "TEXCOORD_0" : 2
                    },
                    "indices" : 3,
                    "material" : 0
                }
            ]
        },
        {
            "name" : "Mesh.002",
            "primitives" : [
                {
                    "attributes" : {
                        "POSITION" : 4,
                        "NORMAL" : 5,
                        "TEXCOORD_0" : 6
                    },
                    "indices" : 7,
                    "material" : 0
                }
            ]
        },
        {
            "name" : "Mesh.003",
            "primitives" : [
                {
                    "attributes" : {
                        "POSITION" : 8,
                        "NORMAL" : 9,
                        "TEXCOORD_0" : 10
                    },
                    "indices" : 11,
                    "material" : 0
                }
            ]
        },
        {
            "name" : "Mesh.004",
            "primitives" : [
                {
                    "attributes" : {
                        "POSITION" : 12,
                        "NORMAL" : 13,
                        "TEXCOORD_0" : 14
                    },
                    "indices" : 15,
                    "material" : 1
                }
            ]
        }
    ],
    "textures" : [
        {
            "sampler" : 0,
            "source" : 0
        }
    ],
    "images" : [
        {
            "bufferView" : 4,
            "mimeType" : "image/jpeg",
            "name" : "B2"
        }
    ],
    "accessors" : [
        {
            "bufferView" : 0,
            "componentType" : 5126,
            "count" : 256,
            "max" : [
                124.05777740478516,
                111.7794418334961,
                -4.3208909034729
            ],
            "min" : [
                70.46044158935547,
                109.91614532470703,
                -79.2965316772461
            ],
            "type" : "VEC3"
        },
        {
            "bufferView" : 1,
            "componentType" : 5126,
            "count" : 256,
            "type" : "VEC3"
        },
        {
            "bufferView" : 2,
            "componentType" : 5126,
            "count" : 256,
            "type" : "VEC2"
        },
        {
            "bufferView" : 3,
            "componentType" : 5123,
            "count" : 936,
            "type" : "SCALAR"
        },
        {
            "bufferView" : 5,
            "componentType" : 5126,
            "count" : 128,
            "max" : [
                123.14045715332031,
                111.77944946289062,
                -77.53707122802734
            ],
            "min" : [
                70.8094711303711,
                109.9161605834961,
                -79.3277816772461
            ],
            "type" : "VEC3"
        },
        {
            "bufferView" : 6,
            "componentType" : 5126,
            "count" : 128,
            "type" : "VEC3"
        },
        {
            "bufferView" : 7,
            "componentType" : 5126,
            "count" : 128,
            "type" : "VEC2"
        },
        {
            "bufferView" : 8,
            "componentType" : 5123,
            "count" : 468,
            "type" : "SCALAR"
        },
        {
            "bufferView" : 9,
            "componentType" : 5126,
            "count" : 128,
            "max" : [
                123.14045715332031,
                111.77944946289062,
                -4.318239212036133
            ],
            "min" : [
                70.8094711303711,
                109.9161605834961,
                -6.108949661254883
            ],
            "type" : "VEC3"
        },
        {
            "bufferView" : 10,
            "componentType" : 5126,
            "count" : 128,
            "type" : "VEC3"
        },
        {
            "bufferView" : 11,
            "componentType" : 5126,
            "count" : 128,
            "type" : "VEC2"
        },
        {
            "bufferView" : 12,
            "componentType" : 5123,
            "count" : 468,
            "type" : "SCALAR"
        },
        {
            "bufferView" : 13,
            "componentType" : 5126,
            "count" : 96,
            "max" : [
                123.89041900634766,
                111.36649322509766,
                -4.573062896728516
            ],
            "min" : [
                71.21366882324219,
                110.33706665039062,
                -78.9686508178711
            ],
            "type" : "VEC3"
        },
        {
            "bufferView" : 14,
            "componentType" : 5126,
            "count" : 96,
            "type" : "VEC3"
        },
        {
            "bufferView" : 15,
            "componentType" : 5126,
            "count" : 96,
            "type" : "VEC2"
        },
        {
            "bufferView" : 16,
            "componentType" : 5123,
            "count" : 324,
            "type" : "SCALAR"
        }
    ],
    "bufferViews" : [
        {
            "buffer" : 0,
            "byteLength" : 3072,
            "byteOffset" : 0
        },
        {
            "buffer" : 0,
            "byteLength" : 3072,
            "byteOffset" : 3072
        },
        {
            "buffer" : 0,
            "byteLength" : 2048,
            "byteOffset" : 6144
        },
        {
            "buffer" : 0,
            "byteLength" : 1872,
            "byteOffset" : 8192
        },
        {
            "buffer" : 0,
            "byteLength" : 75365,
            "byteOffset" : 10064
        },
        {
            "buffer" : 0,
            "byteLength" : 1536,
            "byteOffset" : 85432
        },
        {
            "buffer" : 0,
            "byteLength" : 1536,
            "byteOffset" : 86968
        },
        {
            "buffer" : 0,
            "byteLength" : 1024,
            "byteOffset" : 88504
        },
        {
            "buffer" : 0,
            "byteLength" : 936,
            "byteOffset" : 89528
        },
        {
            "buffer" : 0,
            "byteLength" : 1536,
            "byteOffset" : 90464
        },
        {
            "buffer" : 0,
            "byteLength" : 1536,
            "byteOffset" : 92000
        },
        {
            "buffer" : 0,
            "byteLength" : 1024,
            "byteOffset" : 93536
        },
        {
            "buffer" : 0,
            "byteLength" : 936,
            "byteOffset" : 94560
        },
        {
            "buffer" : 0,
            "byteLength" : 1152,
            "byteOffset" : 95496
        },
        {
            "buffer" : 0,
            "byteLength" : 1152,
            "byteOffset" : 96648
        },
        {
            "buffer" : 0,
            "byteLength" : 768,
            "byteOffset" : 97800
        },
        {
            "buffer" : 0,
            "byteLength" : 648,
            "byteOffset" : 98568
        }
    ],
    "samplers" : [
        {
            "magFilter" : 9729,
            "minFilter" : 9987
        }
    ],
    "buffers" : [
        {
            "byteLength" : 99216,
            "uri" : "data:application/octet-stream;base64,"
        }
    ]
}
