{
    "asset" : {
        "generator" : "Khronos glTF Blender I/O v1.8.19",
        "version" : "2.0"
    },
    "scene" : 0,
    "scenes" : [
        {
            "name" : "Scene",
            "nodes" : [
                4
            ]
        }
    ],
    "nodes" : [
        {
            "mesh" : 0,
            "name" : "door"
        },
        {
            "mesh" : 1,
            "name" : "handle"
        },
        {
            "children" : [
                0,
                1
            ],
            "name" : "closetDoor01",
            "rotation" : [
                0,
                0,
                -0.7071067690849304,
                0.7071068286895752
            ],
            "scale" : [
                -10.21930980682373,
                -10.21930980682373,
                -10.21930980682373
            ],
            "translation" : [
                -78.77998352050781,
                -10.359185218811035,
                -97.21052551269531
            ]
        },
        {
            "children" : [
                2
            ],
            "name" : "Doors"
        },
        {
            "children" : [
                3
            ],
            "name" : "apartment",
            "rotation" : [
                0.7071068286895752,
                0,
                0,
                0.7071067094802856
            ],
            "scale" : [
                0.009999999776482582,
                0.009999999776482582,
                0.009999999776482582
            ]
        }
    ],
    "materials" : [
        {
            "doubleSided" : true,
            "name" : "aiStandardSurface2",
            "pbrMetallicRoughness" : {
                "baseColorTexture" : {
                    "index" : 0
                },
                "metallicFactor" : 0,
                "roughnessFactor" : 0.5527864098548889
            }
        }
    ],
    "meshes" : [
        {
            "name" : "Mesh",
            "primitives" : [
                {
                    "attributes" : {
                        "POSITION" : 0,
                        "NORMAL" : 1,
                        "TEXCOORD_0" : 2
                    },
                    "indices" : 3,
                    "material" : 0
                }
            ]
        },
        {
            "name" : "Mesh.001",
            "primitives" : [
                {
                    "attributes" : {
                        "POSITION" : 4,
                        "NORMAL" : 5,
                        "TEXCOORD_0" : 6
                    },
                    "indices" : 7,
                    "material" : 0
                }
            ]
        }
    ],
    "textures" : [
        {
            "sampler" : 0,
            "source" : 0
        }
    ],
    "images" : [
        {
            "bufferView" : 4,
            "mimeType" : "image/jpeg",
            "name" : "CD1"
        }
    ],
    "accessors" : [
        {
            "bufferView" : 0,
            "componentType" : 5126,
            "count" : 518,
            "max" : [
                0.25451067090034485,
                1.832201600074768,
                -1.5649585723876953
            ],
            "min" : [
                -0.25451067090034485,
                -1.8322019577026367,
                -9.2614107131958
            ],
            "type" : "VEC3"
        },
        {
            "bufferView" : 1,
            "componentType" : 5126,
            "count" : 518,
            "type" : "VEC3"
        },
        {
            "bufferView" : 2,
            "componentType" : 5126,
            "count" : 518,
            "type" : "VEC2"
        },
        {
            "bufferView" : 3,
            "componentType" : 5123,
            "count" : 2136,
            "type" : "SCALAR"
        },
        {
            "bufferView" : 5,
            "componentType" : 5126,
            "count" : 294,
            "max" : [
                0.5182867050170898,
                1.517559289932251,
                -5.212653160095215
            ],
            "min" : [
                0.2937277555465698,
                0.930174708366394,
                -5.560075759887695
            ],
            "type" : "VEC3"
        },
        {
            "bufferView" : 6,
            "componentType" : 5126,
            "count" : 294,
            "type" : "VEC3"
        },
        {
            "bufferView" : 7,
            "componentType" : 5126,
            "count" : 294,
            "type" : "VEC2"
        },
        {
            "bufferView" : 8,
            "componentType" : 5123,
            "count" : 1032,
            "type" : "SCALAR"
        }
    ],
    "bufferViews" : [
        {
            "buffer" : 0,
            "byteLength" : 6216,
            "byteOffset" : 0
        },
        {
            "buffer" : 0,
            "byteLength" : 6216,
            "byteOffset" : 6216
        },
        {
            "buffer" : 0,
            "byteLength" : 4144,
            "byteOffset" : 12432
        },
        {
            "buffer" : 0,
            "byteLength" : 4272,
            "byteOffset" : 16576
        },
        {
            "buffer" : 0,
            "byteLength" : 68158,
            "byteOffset" : 20848
        },
        {
            "buffer" : 0,
            "byteLength" : 3528,
            "byteOffset" : 89008
        },
        {
            "buffer" : 0,
            "byteLength" : 3528,
            "byteOffset" : 92536
        },
        {
            "buffer" : 0,
            "byteLength" : 2352,
            "byteOffset" : 96064
        },
        {
            "buffer" : 0,
            "byteLength" : 2064,
            "byteOffset" : 98416
        }
    ],
    "samplers" : [
        {
            "magFilter" : 9729,
            "minFilter" : 9987
        }
    ],
    "buffers" : [
        {
            "byteLength" : 100480,
            "uri" : "data:application/octet-stream;base64,"
        }
    ]
}
