{"accessors":[{"bufferView":0,"componentType":5123,"count":324,"max":[95],"min":[0],"type":"SCALAR"},{"bufferView":1,"componentType":5126,"count":96,"max":[139.68771362304688,98.53426361083984,112.49671936035156],"min":[-140.7803192138672,93.51714324951172,-111.48770141601562],"type":"VEC3"},{"bufferView":2,"componentType":5126,"count":96,"max":[1.0,1.0,1.0],"min":[-1.0,-1.0,-1.0],"type":"VEC3"},{"bufferView":3,"componentType":5126,"count":96,"max":[0.8750000596046448,1.0],"min":[0.125,0.0],"type":"VEC2"},{"bufferView":4,"componentType":5123,"count":4488,"max":[1103],"min":[0],"type":"SCALAR"},{"bufferView":5,"componentType":5126,"count":1104,"max":[0.7762668132781982,0.5345311760902405,0.5583968758583069],"min":[-0.5,-0.5,-0.5543313026428223],"type":"VEC3"},{"bufferView":6,"componentType":5126,"count":1104,"max":[1.0,1.0,1.0],"min":[-1.0,-1.0,-1.0],"type":"VEC3"},{"bufferView":7,"componentType":5126,"count":1104,"max":[0.875,1.0],"min":[0.125,0.0],"type":"VEC2"},{"bufferView":8,"componentType":5123,"count":2136,"max":[517],"min":[0],"type":"SCALAR"},{"bufferView":9,"componentType":5126,"count":518,"max":[0.25451067090034485,9.2614107131958,1.832201600074768],"min":[-0.25451067090034485,1.5649585723876953,-1.8322019577026367],"type":"VEC3"},{"bufferView":10,"componentType":5126,"count":518,"max":[1.0,1.0,1.0],"min":[-1.0,-1.0,-1.0],"type":"VEC3"},{"bufferView":11,"componentType":5126,"count":518,"max":[0.988168478012085,0.99267578125],"min":[0.00732421875,0.007324278354644775],"type":"VEC2"},{"bufferView":12,"componentType":5123,"count":1032,"max":[293],"min":[0],"type":"SCALAR"},{"bufferView":13,"componentType":5126,"count":294,"max":[0.5182867050170898,5.560075759887695,1.517559289932251],"min":[0.2937277555465698,5.212653160095215,0.930174708366394],"type":"VEC3"},{"bufferView":14,"componentType":5126,"count":294,"max":[1.0,1.0,1.0],"min":[-1.0,-1.0,-1.0],"type":"VEC3"},{"bufferView":15,"componentType":5126,"count":294,"max":[0.99267578125,-0.00732421875],"min":[0.00732421875,-0.9903056621551514],"type":"VEC2"},{"bufferView":16,"componentType":5123,"count":192,"max":[95],"min":[0],"type":"SCALAR"},{"bufferView":17,"componentType":5126,"count":96,"max":[0.2852206826210022,8.622537612915039,7.767084121704102],"min":[-0.24201957881450653,2.4366848468780518,3.7907180786132812],"type":"VEC3"},{"bufferView":18,"componentType":5126,"count":96,"max":[1.0,1.0,1.0],"min":[-1.0,-1.0,-1.0],"type":"VEC3"},{"bufferView":19,"componentType":5126,"count":96,"max":[0.875,1.0],"min":[0.125,0.0],"type":"VEC2"}],"asset":{"copyright":null,"generator":"Soft8Soft Verge3D for Maya plug-in","version":"2.0"},"bufferViews":[{"buffer":0,"byteLength":648,"byteOffset":0,"target":34963},{"buffer":0,"byteLength":1152,"byteOffset":648,"target":34962},{"buffer":0,"byteLength":1152,"byteOffset":1800,"target":34962},{"buffer":0,"byteLength":768,"byteOffset":2952,"target":34962},{"buffer":0,"byteLength":8976,"byteOffset":3720,"target":34963},{"buffer":0,"byteLength":13248,"byteOffset":12696,"target":34962},{"buffer":0,"byteLength":13248,"byteOffset":25944,"target":34962},{"buffer":0,"byteLength":8832,"byteOffset":39192,"target":34962},{"buffer":0,"byteLength":4272,"byteOffset":48024,"target":34963},{"buffer":0,"byteLength":6216,"byteOffset":52296,"target":34962},{"buffer":0,"byteLength":6216,"byteOffset":58512,"target":34962},{"buffer":0,"byteLength":4144,"byteOffset":64728,"target":34962},{"buffer":0,"byteLength":2064,"byteOffset":68872,"target":34963},{"buffer":0,"byteLength":3528,"byteOffset":70936,"target":34962},{"buffer":0,"byteLength":3528,"byteOffset":74464,"target":34962},{"buffer":0,"byteLength":2352,"byteOffset":77992,"target":34962},{"buffer":0,"byteLength":384,"byteOffset":80344,"target":34963},{"buffer":0,"byteLength":1152,"byteOffset":80728,"target":34962},{"buffer":0,"byteLength":1152,"byteOffset":81880,"target":34962},{"buffer":0,"byteLength":768,"byteOffset":83032,"target":34962}],"buffers":[{"byteLength":83800,"uri":"closetDoor01.bin"}],"cameras":[{"extensions":{"S8S_v3d_camera_data":{"controls":"ORBIT","enablePan":true,"moveSpeed":1.0,"orbitMaxDistance":1000.0,"orbitMaxPolarAngle":3.141592653589793,"orbitMaxZoom":100.0,"orbitMinDistance":0.0,"orbitMinPolarAngle":0.0,"orbitMinZoom":0.009999999776482582,"orbitTarget":[6.1134851238448675,22.172020571076025,60.19053060528076],"rotateSpeed":1.0,"viewportFitInitialAspect":1.5,"viewportFitType":"HORIZONTAL"}},"name":"perspShape","perspective":{"aspectRatio":1.5,"yfov":0.6605947096585076,"zfar":10000.0,"znear":0.1},"type":"perspective"}],"extensions":{"S8S_v3d_data":{"lights":[{"color":[1,1,1],"intensity":2.5,"name":"__DEFAULT__","profile":"maya","type":"directional"}]}},"extensionsUsed":["S8S_v3d_texture_data","S8S_v3d_material_data","S8S_v3d_data","S8S_v3d_camera_data","S8S_v3d_node_data","S8S_v3d_scene_data"],"images":[{"mimeType":"image/png","uri":"UVs_U1_V1.png"}],"materials":[{"extensions":{"S8S_v3d_material_data":{"gtaoVisible":true,"nodeGraph":{"edges":[{"fromNode":1,"fromOutput":0,"toInput":0,"toNode":0}],"nodes":[{"inputs":[[0.0,0.0,0.0,1],[0,0,0,0],[0,0,0]],"is_active_output":true,"name":"initialParticleSE","outputs":[],"type":"SHADING_ENGINE_MY"},{"inputs":[[0.5,0.5,0.5],[0.0,0.0,0.0],[0.0,0.0,0.0],1.0,0.800000011920929,[1.0,1.0,1.0],0.0,[0.0,0.0,0.0]],"name":"lambert1","outputs":[[0.0,0.0,0.0,0]],"type":"LAMBERT_MY"}]},"profile":"maya"}},"name":"lambert1"},{"extensions":{"S8S_v3d_material_data":{"gtaoVisible":true,"nodeGraph":{"edges":[{"fromNode":1,"fromOutput":0,"toInput":0,"toNode":0},{"fromNode":2,"fromOutput":1,"toInput":1,"toNode":1},{"fromNode":3,"fromOutput":0,"toInput":0,"toNode":2}],"nodes":[{"inputs":[[0.0,0.0,0.0,1],[0,0,0,0],[0,0,0]],"is_active_output":true,"name":"aiStandardSurface2SG","outputs":[],"type":"SHADING_ENGINE_MY"},{"inputs":[1.0,[0.0,0.0,0.0],0.0,0.0,1.0,[1.0,1.0,1.0],0.20000000298023224,0.0,[1.0,1.0,1.0],0.0,[0.0,0.0,0.0],0.0,0.0,[1.0,1.0,1.0],[1.0,1.0,1.0],0.0,[1.0,1.0,1.0],0.10000000149011612,0.0,[1.0,1.0,1.0],0.30000001192092896,0.0,[1.0,1.0,1.0],[1.0,1.0,1.0],[1.0,1.0,1.0],[0.0,0.0,0.0],1.5],"name":"aiStandardSurface2","outputs":[[0.0,0.0,0.0,0],[0.0,0.0,0.0]],"thinWalled":false,"type":"STANDARD_SURFACE_AR"},{"inputs":[[0.0,0.0]],"name":"file1","outputs":[1.0,[0.0,0.0,0.0],[2048.0,2048.0],[0.0,0.0,0.0]],"texture":0,"type":"FILE_MY"},{"inputs":[[0.0,0.0],[1.0,1.0],0.0],"name":"place2dTexture2","outputs":[[0.0,0.0]],"type":"PLACE_2D_TEXTURE_MY","uvIndex":0}]},"profile":"maya"}},"name":"aiStandardSurface2"},{"extensions":{"S8S_v3d_material_data":{"nodeGraph":{"edges":[{"fromNode":0,"fromOutput":0,"toInput":0,"toNode":1}],"nodes":[{"inputs":[[0.10653923276464054,0.10653923276464054,0.10653923276464054],[0,0,0],[0,0,0],[0,0,0],[0,0,0],[0,0,0]],"name":"aiRaySwitchColor","outputs":[[0,0,0],0],"type":"RAY_SWITCH_AR"},{"inputs":[[0,0,0],1],"is_active_output":true,"name":"aiSkyDomeLightShapeColor","outputs":[],"type":"SKYDOME_LIGHT_AR"}]},"profile":"maya"}},"name":"Verge3D_Environment"}],"meshes":[{"name":"balconyBase_geo1Shape","primitives":[{"attributes":{"NORMAL":2,"POSITION":1,"TEXCOORD_0":3},"indices":0,"material":0,"mode":4}]},{"name":"door_Shape1","primitives":[{"attributes":{"NORMAL":6,"POSITION":5,"TEXCOORD_0":7},"indices":4,"material":0,"mode":4}]},{"name":"doorShape","primitives":[{"attributes":{"NORMAL":10,"POSITION":9,"TEXCOORD_0":11},"indices":8,"material":1,"mode":4}]},{"name":"handleShape","primitives":[{"attributes":{"NORMAL":14,"POSITION":13,"TEXCOORD_0":15},"indices":12,"material":1,"mode":4}]},{"name":"door_frameShape","primitives":[{"attributes":{"NORMAL":18,"POSITION":17,"TEXCOORD_0":19},"indices":16,"material":0,"mode":4}]}],"nodes":[{"extensions":{"S8S_v3d_node_data":{"frustumCulling":true,"hidden":true,"hidpiCompositing":false,"renderOrder":0,"useCastShadows":true,"useShadows":true}},"mesh":0,"name":"balconyBase_geo1","rotation":[0.0,0.0,0.0,1.0],"scale":[1.0,1.0,1.0],"translation":[0.0,0.0,0.0]},{"children":[2],"extensions":{"S8S_v3d_node_data":{"hidden":false,"hidpiCompositing":false}},"name":"apartment","rotation":[0.0,0.0,0.0,1.0],"scale":[1.0,1.0,1.0],"translation":[0.0,0.0,0.0]},{"children":[3],"extensions":{"S8S_v3d_node_data":{"groupNames":["apartment"],"hidden":false,"hidpiCompositing":false}},"name":"Doors","rotation":[0.0,0.0,0.0,1.0],"scale":[1.0,1.0,1.0],"translation":[0.0,0.0,0.0]},{"children":[4,5,6,7],"extensions":{"S8S_v3d_node_data":{"groupNames":["Doors","apartment"],"hidden":false,"hidpiCompositing":false}},"name":"closetDoor01","rotation":[-0.7071067811865476,-4.329780281177467e-17,-0.7071067811865476,4.329780281177467e-17],"scale":[10.219310212304327,10.219310212304327,-10.219310212304327],"translation":[-78.77997978355141,97.21052654584159,-10.359185588314897]},{"extensions":{"S8S_v3d_node_data":{"frustumCulling":true,"groupNames":["closetDoor01","Doors","apartment"],"hidden":true,"hidpiCompositing":false,"renderOrder":0,"useCastShadows":true,"useShadows":true}},"mesh":1,"name":"door_1","rotation":[0.0,0.0,0.0,1.0],"scale":[0.4398867800918846,6.320507099477319,3.5840320920943043],"translation":[0.0,5.477952437084488,0.0]},{"extensions":{"S8S_v3d_node_data":{"frustumCulling":true,"groupNames":["closetDoor01","Doors","apartment"],"hidden":false,"hidpiCompositing":false,"renderOrder":0,"useCastShadows":true,"useShadows":true}},"mesh":2,"name":"door","rotation":[0.0,0.0,0.0,1.0],"scale":[1.0,1.0,1.0],"translation":[0.0,0.0,0.0]},{"extensions":{"S8S_v3d_node_data":{"frustumCulling":true,"groupNames":["closetDoor01","Doors","apartment"],"hidden":false,"hidpiCompositing":false,"renderOrder":0,"useCastShadows":true,"useShadows":true}},"mesh":3,"name":"handle","rotation":[0.0,0.0,0.0,1.0],"scale":[1.0,1.0,1.0],"translation":[0.0,0.0,0.0]},{"extensions":{"S8S_v3d_node_data":{"frustumCulling":true,"groupNames":["closetDoor01","Doors","apartment"],"hidden":true,"hidpiCompositing":false,"renderOrder":0,"useCastShadows":true,"useShadows":true}},"mesh":4,"name":"door_frame","rotation":[0.0,0.0,0.0,1.0],"scale":[1.0,1.0,1.0],"translation":[0.0,0.0,-5.7667937792050585]},{"camera":0,"children":[9],"extensions":{"S8S_v3d_node_data":{"hidden":true,"hidpiCompositing":false}},"name":"persp","rotation":[0.022133095339037272,0.7092206061942136,0.022288155384172424,-0.7042865155388086],"scale":[0.9999999999999999,0.9999999999999999,0.9999999999999999],"translation":[-249.27354164509495,38.24000189629524,58.40756385937755]},{"extensions":{"S8S_v3d_node_data":{"light":0}},"name":"__DEFAULT_LIGHT__","rotation":[-0.13052619222005157,-0.0,-0.0,0.9914448613738104],"translation":[-249.27354164509495,38.24000189629524,58.40756385937755]}],"samplers":[{}],"scene":0,"scenes":[{"extensions":{"S8S_v3d_scene_data":{"aaMethod":"AUTO","iblEnvironmentMode":"PMREM","physicallyCorrectLights":true,"shadowMap":{"esmDistanceScale":2.5,"renderReverseSided":false,"renderSingleSided":true,"type":"PCFPOISSON"},"unitsScaleFactor":1.0,"useHDR":false,"worldMaterial":2}},"extras":{"animFrameRate":24.0,"coordSystem":"Y_UP_RIGHT"},"name":"Scene","nodes":[0,1,8]}],"textures":[{"extensions":{"S8S_v3d_texture_data":{"colorSpace":"srgb"}},"name":"file1","sampler":0,"source":0}]}