{"accessors":[{"bufferView":0,"componentType":5123,"count":2136,"max":[517],"min":[0],"type":"SCALAR"},{"bufferView":1,"componentType":5126,"count":518,"max":[0.25451067090034485,9.2614107131958,1.863703727722168],"min":[-0.25451067090034485,1.5649585723876953,-1.8006998300552368],"type":"VEC3"},{"bufferView":2,"componentType":5126,"count":518,"max":[1.0,1.0,1.0],"min":[-1.0,-1.0,-1.0],"type":"VEC3"},{"bufferView":3,"componentType":5126,"count":518,"max":[0.988168478012085,0.99267578125],"min":[0.00732421875,0.007324278354644775],"type":"VEC2"},{"bufferView":4,"componentType":5123,"count":1032,"max":[293],"min":[0],"type":"SCALAR"},{"bufferView":5,"componentType":5126,"count":294,"max":[0.5182867050170898,5.56007719039917,-0.9331152439117432],"min":[0.2937277555465698,5.212655067443848,-1.5204998254776],"type":"VEC3"},{"bufferView":6,"componentType":5126,"count":294,"max":[1.0,1.0,1.0],"min":[-1.0,-1.0,-1.0],"type":"VEC3"},{"bufferView":7,"componentType":5126,"count":294,"max":[0.99267578125,-0.00732421875],"min":[0.00732421875,-0.9903056621551514],"type":"VEC2"}],"asset":{"copyright":null,"generator":"Soft8Soft Verge3D for Maya plug-in","version":"2.0"},"bufferViews":[{"buffer":0,"byteLength":4272,"byteOffset":0,"target":34963},{"buffer":0,"byteLength":6216,"byteOffset":4272,"target":34962},{"buffer":0,"byteLength":6216,"byteOffset":10488,"target":34962},{"buffer":0,"byteLength":4144,"byteOffset":16704,"target":34962},{"buffer":0,"byteLength":2064,"byteOffset":20848,"target":34963},{"buffer":0,"byteLength":3528,"byteOffset":22912,"target":34962},{"buffer":0,"byteLength":3528,"byteOffset":26440,"target":34962},{"buffer":0,"byteLength":2352,"byteOffset":29968,"target":34962}],"buffers":[{"byteLength":32320,"uri":"closetDoor02.bin"}],"cameras":[{"extensions":{"S8S_v3d_camera_data":{"controls":"ORBIT","enablePan":true,"moveSpeed":1.0,"orbitMaxDistance":1000.0,"orbitMaxPolarAngle":3.141592653589793,"orbitMaxZoom":100.0,"orbitMinDistance":0.0,"orbitMinPolarAngle":0.0,"orbitMinZoom":0.009999999776482582,"orbitTarget":[6.113485123871222,22.172020571074317,60.190530605234],"rotateSpeed":1.0,"viewportFitInitialAspect":1.5,"viewportFitType":"HORIZONTAL"}},"name":"perspShape","perspective":{"aspectRatio":1.5,"yfov":0.6605947096585076,"zfar":10000.0,"znear":0.1},"type":"perspective"}],"extensions":{"S8S_v3d_data":{"lights":[{"color":[1,1,1],"intensity":2.5,"name":"__DEFAULT__","profile":"maya","type":"directional"}]}},"extensionsUsed":["S8S_v3d_texture_data","S8S_v3d_material_data","S8S_v3d_data","S8S_v3d_camera_data","S8S_v3d_node_data","S8S_v3d_scene_data"],"images":[{"mimeType":"image/png","uri":"UVs_U1_V1.png"}],"materials":[{"extensions":{"S8S_v3d_material_data":{"gtaoVisible":true,"nodeGraph":{"edges":[{"fromNode":1,"fromOutput":0,"toInput":0,"toNode":0},{"fromNode":2,"fromOutput":1,"toInput":1,"toNode":1},{"fromNode":3,"fromOutput":0,"toInput":0,"toNode":2}],"nodes":[{"inputs":[[0.0,0.0,0.0,1],[0,0,0,0],[0,0,0]],"is_active_output":true,"name":"aiStandardSurface2SG","outputs":[],"type":"SHADING_ENGINE_MY"},{"inputs":[1.0,[0.0,0.0,0.0],0.0,0.0,1.0,[1.0,1.0,1.0],0.20000000298023224,0.0,[1.0,1.0,1.0],0.0,[0.0,0.0,0.0],0.0,0.0,[1.0,1.0,1.0],[1.0,1.0,1.0],0.0,[1.0,1.0,1.0],0.10000000149011612,0.0,[1.0,1.0,1.0],0.30000001192092896,0.0,[1.0,1.0,1.0],[1.0,1.0,1.0],[1.0,1.0,1.0],[0.0,0.0,0.0],1.5],"name":"aiStandardSurface2","outputs":[[0.0,0.0,0.0,0],[0.0,0.0,0.0]],"thinWalled":false,"type":"STANDARD_SURFACE_AR"},{"inputs":[[0.0,0.0]],"name":"file1","outputs":[1.0,[0.0,0.0,0.0],[2048.0,2048.0],[0.0,0.0,0.0]],"texture":0,"type":"FILE_MY"},{"inputs":[[0.0,0.0],[1.0,1.0],0.0],"name":"place2dTexture2","outputs":[[0.0,0.0]],"type":"PLACE_2D_TEXTURE_MY","uvIndex":0}]},"profile":"maya"}},"name":"aiStandardSurface2"},{"extensions":{"S8S_v3d_material_data":{"nodeGraph":{"edges":[{"fromNode":0,"fromOutput":0,"toInput":0,"toNode":1}],"nodes":[{"inputs":[[0.10653923276464054,0.10653923276464054,0.10653923276464054],[0,0,0],[0,0,0],[0,0,0],[0,0,0],[0,0,0]],"name":"aiRaySwitchColor","outputs":[[0,0,0],0],"type":"RAY_SWITCH_AR"},{"inputs":[[0,0,0],1],"is_active_output":true,"name":"aiSkyDomeLightShapeColor","outputs":[],"type":"SKYDOME_LIGHT_AR"}]},"profile":"maya"}},"name":"Verge3D_Environment"}],"meshes":[{"name":"doorShape","primitives":[{"attributes":{"NORMAL":2,"POSITION":1,"TEXCOORD_0":3},"indices":0,"material":0,"mode":4}]},{"name":"handleShape","primitives":[{"attributes":{"NORMAL":6,"POSITION":5,"TEXCOORD_0":7},"indices":4,"material":0,"mode":4}]}],"nodes":[{"children":[1],"extensions":{"S8S_v3d_node_data":{"hidden":false,"hidpiCompositing":false}},"name":"apartment","rotation":[0.0,0.0,0.0,1.0],"scale":[1.0,1.0,1.0],"translation":[0.0,0.0,0.0]},{"children":[2],"extensions":{"S8S_v3d_node_data":{"groupNames":["apartment"],"hidden":false,"hidpiCompositing":false}},"name":"Doors","rotation":[0.0,0.0,0.0,1.0],"scale":[1.0,1.0,1.0],"translation":[0.0,0.0,0.0]},{"children":[3,4],"extensions":{"S8S_v3d_node_data":{"groupNames":["Doors","apartment"],"hidden":false,"hidpiCompositing":false}},"name":"closetDoor02","rotation":[-0.7071067811865476,-4.329780281177467e-17,-0.7071067811865476,4.329780281177467e-17],"scale":[10.219310212304327,10.219310212304327,-10.219310212304327],"translation":[-116.25522390287453,97.21052654584159,-10.359185588314897]},{"extensions":{"S8S_v3d_node_data":{"frustumCulling":true,"groupNames":["closetDoor02","Doors","apartment"],"hidden":false,"hidpiCompositing":false,"renderOrder":0,"useCastShadows":true,"useShadows":true}},"mesh":0,"name":"door","rotation":[0.0,0.0,0.0,1.0],"scale":[1.0,1.0,1.0],"translation":[0.0,0.0,0.0]},{"extensions":{"S8S_v3d_node_data":{"frustumCulling":true,"groupNames":["closetDoor02","Doors","apartment"],"hidden":false,"hidpiCompositing":false,"renderOrder":0,"useCastShadows":true,"useShadows":true}},"mesh":1,"name":"handle","rotation":[0.0,0.0,0.0,1.0],"scale":[1.0,1.0,1.0],"translation":[0.0,0.0,0.0]},{"camera":0,"children":[6],"extensions":{"S8S_v3d_node_data":{"hidden":true,"hidpiCompositing":false}},"name":"persp","rotation":[0.030423932415247275,0.24856717373777468,-0.007811538155704254,0.9681052237995875],"scale":[1.0,1.0,1.0],"translation":[67.47950920673013,14.157918748758275,171.81491401316293]},{"extensions":{"S8S_v3d_node_data":{"light":0}},"name":"__DEFAULT_LIGHT__","rotation":[-0.13052619222005157,-0.0,-0.0,0.9914448613738104],"translation":[67.47950920673013,14.157918748758275,171.81491401316293]}],"samplers":[{}],"scene":0,"scenes":[{"extensions":{"S8S_v3d_scene_data":{"aaMethod":"AUTO","iblEnvironmentMode":"PMREM","physicallyCorrectLights":true,"shadowMap":{"esmDistanceScale":2.5,"renderReverseSided":false,"renderSingleSided":true,"type":"PCFPOISSON"},"unitsScaleFactor":1.0,"useHDR":false,"worldMaterial":1}},"extras":{"animFrameRate":24.0,"coordSystem":"Y_UP_RIGHT"},"name":"Scene","nodes":[0,5]}],"textures":[{"extensions":{"S8S_v3d_texture_data":{"colorSpace":"srgb"}},"name":"file1","sampler":0,"source":0}]}