{
    "asset" : {
        "generator" : "Khronos glTF Blender I/O v1.8.19",
        "version" : "2.0"
    },
    "scene" : 0,
    "scenes" : [
        {
            "name" : "Scene",
            "nodes" : [
                5
            ]
        }
    ],
    "nodes" : [
        {
            "mesh" : 0,
            "name" : "frame_wondow"
        },
        {
            "mesh" : 1,
            "name" : "lower_panel_window"
        },
        {
            "mesh" : 2,
            "name" : "upper_panel_window"
        },
        {
            "children" : [
                0,
                1,
                2
            ],
            "name" : "window_UV_done2",
            "rotation" : [
                0,
                0,
                -0.7071067690849304,
                0.7071068286895752
            ],
            "scale" : [
                11.178267478942871,
                14.283995628356934,
                9.34046459197998
            ],
            "translation" : [
                -53.98383331298828,
                109.53498840332031,
                -11.347997665405273
            ]
        },
        {
            "children" : [
                3
            ],
            "name" : "windows"
        },
        {
            "children" : [
                4
            ],
            "name" : "apartment",
            "rotation" : [
                0.7071068286895752,
                0,
                0,
                0.7071067094802856
            ],
            "scale" : [
                0.009999999776482582,
                0.009999999776482582,
                0.009999999776482582
            ]
        }
    ],
    "materials" : [
        {
            "doubleSided" : true,
            "name" : "aiStandardSurface3",
            "pbrMetallicRoughness" : {
                "baseColorTexture" : {
                    "index" : 0
                },
                "metallicFactor" : 0,
                "roughnessFactor" : 0.5527864098548889
            }
        }
    ],
    "meshes" : [
        {
            "name" : "Mesh.007",
            "primitives" : [
                {
                    "attributes" : {
                        "POSITION" : 0,
                        "NORMAL" : 1,
                        "TEXCOORD_0" : 2
                    },
                    "indices" : 3,
                    "material" : 0
                }
            ]
        },
        {
            "name" : "Mesh.009",
            "primitives" : [
                {
                    "attributes" : {
                        "POSITION" : 4,
                        "NORMAL" : 5,
                        "TEXCOORD_0" : 6
                    },
                    "indices" : 7,
                    "material" : 0
                }
            ]
        },
        {
            "name" : "Mesh.008",
            "primitives" : [
                {
                    "attributes" : {
                        "POSITION" : 8,
                        "NORMAL" : 9,
                        "TEXCOORD_0" : 10
                    },
                    "indices" : 11,
                    "material" : 0
                }
            ]
        }
    ],
    "textures" : [
        {
            "sampler" : 0,
            "source" : 0
        }
    ],
    "images" : [
        {
            "bufferView" : 4,
            "mimeType" : "image/jpeg",
            "name" : "BW"
        }
    ],
    "accessors" : [
        {
            "bufferView" : 0,
            "componentType" : 5126,
            "count" : 312,
            "max" : [
                0.5237677097320557,
                2.099586009979248,
                -2.8344781398773193
            ],
            "min" : [
                -0.5237677097320557,
                -2.4711408615112305,
                -7.027812957763672
            ],
            "type" : "VEC3"
        },
        {
            "bufferView" : 1,
            "componentType" : 5126,
            "count" : 312,
            "type" : "VEC3"
        },
        {
            "bufferView" : 2,
            "componentType" : 5126,
            "count" : 312,
            "type" : "VEC2"
        },
        {
            "bufferView" : 3,
            "componentType" : 5123,
            "count" : 1116,
            "type" : "SCALAR"
        },
        {
            "bufferView" : 5,
            "componentType" : 5126,
            "count" : 360,
            "max" : [
                0.19908425211906433,
                1.8371418714523315,
                -3.1563117504119873
            ],
            "min" : [
                -0.045133188366889954,
                -2.1525635719299316,
                -5.367714881896973
            ],
            "type" : "VEC3"
        },
        {
            "bufferView" : 6,
            "componentType" : 5126,
            "count" : 360,
            "type" : "VEC3"
        },
        {
            "bufferView" : 7,
            "componentType" : 5126,
            "count" : 360,
            "type" : "VEC2"
        },
        {
            "bufferView" : 8,
            "componentType" : 5123,
            "count" : 1188,
            "type" : "SCALAR"
        },
        {
            "bufferView" : 9,
            "componentType" : 5126,
            "count" : 360,
            "max" : [
                -0.03609451651573181,
                1.8371418714523315,
                -5.3480024337768555
            ],
            "min" : [
                -0.2964152693748474,
                -2.1525635719299316,
                -6.817682266235352
            ],
            "type" : "VEC3"
        },
        {
            "bufferView" : 10,
            "componentType" : 5126,
            "count" : 360,
            "type" : "VEC3"
        },
        {
            "bufferView" : 11,
            "componentType" : 5126,
            "count" : 360,
            "type" : "VEC2"
        },
        {
            "bufferView" : 12,
            "componentType" : 5123,
            "count" : 1188,
            "type" : "SCALAR"
        }
    ],
    "bufferViews" : [
        {
            "buffer" : 0,
            "byteLength" : 3744,
            "byteOffset" : 0
        },
        {
            "buffer" : 0,
            "byteLength" : 3744,
            "byteOffset" : 3744
        },
        {
            "buffer" : 0,
            "byteLength" : 2496,
            "byteOffset" : 7488
        },
        {
            "buffer" : 0,
            "byteLength" : 2232,
            "byteOffset" : 9984
        },
        {
            "buffer" : 0,
            "byteLength" : 66179,
            "byteOffset" : 12216
        },
        {
            "buffer" : 0,
            "byteLength" : 4320,
            "byteOffset" : 78396
        },
        {
            "buffer" : 0,
            "byteLength" : 4320,
            "byteOffset" : 82716
        },
        {
            "buffer" : 0,
            "byteLength" : 2880,
            "byteOffset" : 87036
        },
        {
            "buffer" : 0,
            "byteLength" : 2376,
            "byteOffset" : 89916
        },
        {
            "buffer" : 0,
            "byteLength" : 4320,
            "byteOffset" : 92292
        },
        {
            "buffer" : 0,
            "byteLength" : 4320,
            "byteOffset" : 96612
        },
        {
            "buffer" : 0,
            "byteLength" : 2880,
            "byteOffset" : 100932
        },
        {
            "buffer" : 0,
            "byteLength" : 2376,
            "byteOffset" : 103812
        }
    ],
    "samplers" : [
        {
            "magFilter" : 9729,
            "minFilter" : 9987
        }
    ],
    "buffers" : [
        {
            "byteLength" : 106188,
            "uri" : "data:application/octet-stream;base64,"
        }
    ]
}
