{"accessors":[{"bufferView":0,"componentType":5123,"count":1116,"max":[311],"min":[0],"type":"SCALAR"},{"bufferView":1,"componentType":5126,"count":312,"max":[0.5237677097320557,7.027812957763672,2.099586009979248],"min":[-0.5237677097320557,2.8344781398773193,-2.4711408615112305],"type":"VEC3"},{"bufferView":2,"componentType":5126,"count":312,"max":[1.0,1.0,1.0],"min":[-1.0,-1.0,-1.0],"type":"VEC3"},{"bufferView":3,"componentType":5126,"count":312,"max":[0.9764349460601807,0.9638267755508423],"min":[0.06773589551448822,0.030537128448486328],"type":"VEC2"},{"bufferView":4,"componentType":5123,"count":1188,"max":[359],"min":[0],"type":"SCALAR"},{"bufferView":5,"componentType":5126,"count":360,"max":[-0.03609451651573181,6.817682266235352,1.8371418714523315],"min":[-0.2964152693748474,5.3480024337768555,-2.1525635719299316],"type":"VEC3"},{"bufferView":6,"componentType":5126,"count":360,"max":[1.0,1.0,1.0],"min":[-1.0,-1.0,-1.0],"type":"VEC3"},{"bufferView":7,"componentType":5126,"count":360,"max":[0.9873118996620178,-0.028133749961853027],"min":[0.0197412371635437,-0.942876935005188],"type":"VEC2"},{"bufferView":8,"componentType":5123,"count":1188,"max":[359],"min":[0],"type":"SCALAR"},{"bufferView":9,"componentType":5126,"count":360,"max":[0.19908425211906433,5.367714881896973,1.8371418714523315],"min":[-0.045133188366889954,3.1563117504119873,-2.1525635719299316],"type":"VEC3"},{"bufferView":10,"componentType":5126,"count":360,"max":[1.0,1.0,1.0],"min":[-1.0,-1.0,-1.0],"type":"VEC3"},{"bufferView":11,"componentType":5126,"count":360,"max":[0.9843930006027222,-1.025346040725708],"min":[0.060655295848846436,-1.894486904144287],"type":"VEC2"}],"asset":{"copyright":null,"generator":"Soft8Soft Verge3D for Maya plug-in","version":"2.0"},"bufferViews":[{"buffer":0,"byteLength":2232,"byteOffset":0,"target":34963},{"buffer":0,"byteLength":3744,"byteOffset":2232,"target":34962},{"buffer":0,"byteLength":3744,"byteOffset":5976,"target":34962},{"buffer":0,"byteLength":2496,"byteOffset":9720,"target":34962},{"buffer":0,"byteLength":2376,"byteOffset":12216,"target":34963},{"buffer":0,"byteLength":4320,"byteOffset":14592,"target":34962},{"buffer":0,"byteLength":4320,"byteOffset":18912,"target":34962},{"buffer":0,"byteLength":2880,"byteOffset":23232,"target":34962},{"buffer":0,"byteLength":2376,"byteOffset":26112,"target":34963},{"buffer":0,"byteLength":4320,"byteOffset":28488,"target":34962},{"buffer":0,"byteLength":4320,"byteOffset":32808,"target":34962},{"buffer":0,"byteLength":2880,"byteOffset":37128,"target":34962}],"buffers":[{"byteLength":40008,"uri":"largeWindow.bin"}],"cameras":[{"extensions":{"S8S_v3d_camera_data":{"controls":"ORBIT","enablePan":true,"moveSpeed":1.0,"orbitMaxDistance":1000.0,"orbitMaxPolarAngle":3.141592653589793,"orbitMaxZoom":100.0,"orbitMinDistance":0.0,"orbitMinPolarAngle":0.0,"orbitMinZoom":0.009999999776482582,"orbitTarget":[6.113485123871527,22.172020571074864,60.19053060523714],"rotateSpeed":1.0,"viewportFitInitialAspect":1.5,"viewportFitType":"HORIZONTAL"}},"name":"perspShape","perspective":{"aspectRatio":1.5,"yfov":0.6605947096585076,"zfar":10000.0,"znear":0.1},"type":"perspective"}],"extensions":{"S8S_v3d_data":{"lights":[{"color":[1,1,1],"intensity":2.5,"name":"__DEFAULT__","profile":"maya","type":"directional"}]}},"extensionsUsed":["S8S_v3d_texture_data","S8S_v3d_material_data","S8S_v3d_data","S8S_v3d_camera_data","S8S_v3d_node_data","S8S_v3d_scene_data"],"images":[{"mimeType":"image/png","uri":"UVs_U1_V1.png"}],"materials":[{"extensions":{"S8S_v3d_material_data":{"gtaoVisible":true,"nodeGraph":{"edges":[{"fromNode":1,"fromOutput":0,"toInput":0,"toNode":0},{"fromNode":2,"fromOutput":1,"toInput":1,"toNode":1},{"fromNode":3,"fromOutput":0,"toInput":0,"toNode":2}],"nodes":[{"inputs":[[0.0,0.0,0.0,1],[0,0,0,0],[0,0,0]],"is_active_output":true,"name":"aiStandardSurface3SG","outputs":[],"type":"SHADING_ENGINE_MY"},{"inputs":[1.0,[0.0,0.0,0.0],0.0,0.0,1.0,[1.0,1.0,1.0],0.20000000298023224,0.0,[1.0,1.0,1.0],0.0,[0.0,0.0,0.0],0.0,0.0,[1.0,1.0,1.0],[1.0,1.0,1.0],0.0,[1.0,1.0,1.0],0.10000000149011612,0.0,[1.0,1.0,1.0],0.30000001192092896,0.0,[1.0,1.0,1.0],[1.0,1.0,1.0],[1.0,1.0,1.0],[0.0,0.0,0.0],1.5],"name":"aiStandardSurface3","outputs":[[0.0,0.0,0.0,0],[0.0,0.0,0.0]],"thinWalled":false,"type":"STANDARD_SURFACE_AR"},{"inputs":[[0.0,0.0]],"name":"file2","outputs":[1.0,[0.0,0.0,0.0],[2048.0,2048.0],[0.0,0.0,0.0]],"texture":0,"type":"FILE_MY"},{"inputs":[[0.0,0.0],[1.0,1.0],0.0],"name":"place2dTexture3","outputs":[[0.0,0.0]],"type":"PLACE_2D_TEXTURE_MY","uvIndex":0}]},"profile":"maya"}},"name":"aiStandardSurface3"},{"extensions":{"S8S_v3d_material_data":{"nodeGraph":{"edges":[{"fromNode":0,"fromOutput":0,"toInput":0,"toNode":1}],"nodes":[{"inputs":[[0.10653923276464054,0.10653923276464054,0.10653923276464054],[0,0,0],[0,0,0],[0,0,0],[0,0,0],[0,0,0]],"name":"aiRaySwitchColor","outputs":[[0,0,0],0],"type":"RAY_SWITCH_AR"},{"inputs":[[0,0,0],1],"is_active_output":true,"name":"aiSkyDomeLightShapeColor","outputs":[],"type":"SKYDOME_LIGHT_AR"}]},"profile":"maya"}},"name":"Verge3D_Environment"}],"meshes":[{"name":"frame_wondowShape","primitives":[{"attributes":{"NORMAL":2,"POSITION":1,"TEXCOORD_0":3},"indices":0,"material":0,"mode":4}]},{"name":"upper_panel_windowShape","primitives":[{"attributes":{"NORMAL":6,"POSITION":5,"TEXCOORD_0":7},"indices":4,"material":0,"mode":4}]},{"name":"lower_panel_windowShape","primitives":[{"attributes":{"NORMAL":10,"POSITION":9,"TEXCOORD_0":11},"indices":8,"material":0,"mode":4}]}],"nodes":[{"children":[1],"extensions":{"S8S_v3d_node_data":{"hidden":false,"hidpiCompositing":false}},"name":"apartment","rotation":[0.0,0.0,0.0,1.0],"scale":[1.0,1.0,1.0],"translation":[0.0,0.0,0.0]},{"children":[2],"extensions":{"S8S_v3d_node_data":{"groupNames":["apartment"],"hidden":false,"hidpiCompositing":false}},"name":"windows","rotation":[0.0,0.0,0.0,1.0],"scale":[1.0,1.0,1.0],"translation":[0.0,0.0,0.0]},{"children":[3,4,5],"extensions":{"S8S_v3d_node_data":{"groupNames":["windows","apartment"],"hidden":false,"hidpiCompositing":false}},"name":"window_UV_done2","rotation":[0.0,0.7071067811865476,0.0,0.7071067811865476],"scale":[11.17826780115089,9.340464136288146,14.283995216654535],"translation":[-53.98383418140816,11.347997870484342,109.5349867083932]},{"extensions":{"S8S_v3d_node_data":{"frustumCulling":true,"groupNames":["window_UV_done2","windows","apartment"],"hidden":false,"hidpiCompositing":false,"renderOrder":0,"useCastShadows":true,"useShadows":true}},"mesh":0,"name":"frame_wondow","rotation":[0.0,0.0,0.0,1.0],"scale":[1.0,1.0,1.0],"translation":[0.0,0.0,0.0]},{"extensions":{"S8S_v3d_node_data":{"frustumCulling":true,"groupNames":["window_UV_done2","windows","apartment"],"hidden":false,"hidpiCompositing":false,"renderOrder":0,"useCastShadows":true,"useShadows":true}},"mesh":1,"name":"upper_panel_window","rotation":[0.0,0.0,0.0,1.0],"scale":[1.0,1.0,1.0],"translation":[0.0,0.0,0.0]},{"extensions":{"S8S_v3d_node_data":{"frustumCulling":true,"groupNames":["window_UV_done2","windows","apartment"],"hidden":false,"hidpiCompositing":false,"renderOrder":0,"useCastShadows":true,"useShadows":true}},"mesh":2,"name":"lower_panel_window","rotation":[0.0,0.0,0.0,1.0],"scale":[1.0,1.0,1.0],"translation":[0.0,0.0,0.0]},{"camera":0,"children":[7],"extensions":{"S8S_v3d_node_data":{"hidden":true,"hidpiCompositing":false}},"name":"persp","rotation":[-0.03276512730678551,-0.44745837005133476,-0.01640755354206772,0.8935537172942303],"scale":[1.0,1.0,1.0],"translation":[-223.62324861406614,43.24127264210401,232.05556543189024]},{"extensions":{"S8S_v3d_node_data":{"light":0}},"name":"__DEFAULT_LIGHT__","rotation":[-0.13052619222005157,-0.0,-0.0,0.9914448613738104],"translation":[-223.62324861406614,43.24127264210401,232.05556543189024]}],"samplers":[{}],"scene":0,"scenes":[{"extensions":{"S8S_v3d_scene_data":{"aaMethod":"AUTO","iblEnvironmentMode":"PMREM","physicallyCorrectLights":true,"shadowMap":{"esmDistanceScale":2.5,"renderReverseSided":false,"renderSingleSided":true,"type":"PCFPOISSON"},"unitsScaleFactor":1.0,"useHDR":false,"worldMaterial":1}},"extras":{"animFrameRate":24.0,"coordSystem":"Y_UP_RIGHT"},"name":"Scene","nodes":[0,6]}],"textures":[{"extensions":{"S8S_v3d_texture_data":{"colorSpace":"srgb"}},"name":"file2","sampler":0,"source":0}]}