{
    "asset" : {
        "generator" : "Khronos glTF Blender I/O v1.8.19",
        "version" : "2.0"
    },
    "scene" : 0,
    "scenes" : [
        {
            "name" : "Scene",
            "nodes" : [
                1,
                3,
                9
            ]
        }
    ],
    "nodes" : [
        {
            "name" : "Doors"
        },
        {
            "children" : [
                0
            ],
            "name" : "apartment",
            "rotation" : [
                0.7071068286895752,
                0,
                0,
                0.7071067094802856
            ],
            "scale" : [
                0.009999999776482582,
                0.009999999776482582,
                0.009999999776482582
            ]
        },
        {
            "name" : "Doors.001"
        },
        {
            "children" : [
                2
            ],
            "name" : "apartment.001",
            "rotation" : [
                0.7071068286895752,
                0,
                0,
                0.7071067094802856
            ],
            "scale" : [
                0.009999999776482582,
                0.009999999776482582,
                0.009999999776482582
            ]
        },
        {
            "mesh" : 0,
            "name" : "door"
        },
        {
            "mesh" : 1,
            "name" : "handle"
        },
        {
            "mesh" : 2,
            "name" : "handle1"
        },
        {
            "children" : [
                4,
                5,
                6
            ],
            "name" : "Door01",
            "scale" : [
                -10.21930980682373,
                -10.21930980682373,
                -10.21930980682373
            ],
            "translation" : [
                -3.826984405517578,
                30.608034133911133,
                -97.21052551269531
            ]
        },
        {
            "children" : [
                7
            ],
            "name" : "Doors.002"
        },
        {
            "children" : [
                8
            ],
            "name" : "apartment.002",
            "rotation" : [
                0.7071068286895752,
                0,
                0,
                0.7071067094802856
            ],
            "scale" : [
                0.009999999776482582,
                0.009999999776482582,
                0.009999999776482582
            ]
        }
    ],
    "materials" : [
        {
            "doubleSided" : true,
            "name" : "aiStandardSurface2.002",
            "pbrMetallicRoughness" : {
                "baseColorTexture" : {
                    "index" : 0
                },
                "metallicFactor" : 0,
                "roughnessFactor" : 0.5527864098548889
            }
        }
    ],
    "meshes" : [
        {
            "name" : "Mesh.004",
            "primitives" : [
                {
                    "attributes" : {
                        "POSITION" : 0,
                        "NORMAL" : 1,
                        "TEXCOORD_0" : 2
                    },
                    "indices" : 3,
                    "material" : 0
                }
            ]
        },
        {
            "name" : "Mesh.005",
            "primitives" : [
                {
                    "attributes" : {
                        "POSITION" : 4,
                        "NORMAL" : 5,
                        "TEXCOORD_0" : 6
                    },
                    "indices" : 7,
                    "material" : 0
                }
            ]
        },
        {
            "name" : "Mesh.006",
            "primitives" : [
                {
                    "attributes" : {
                        "POSITION" : 8,
                        "NORMAL" : 9,
                        "TEXCOORD_0" : 10
                    },
                    "indices" : 11,
                    "material" : 0
                }
            ]
        }
    ],
    "textures" : [
        {
            "sampler" : 0,
            "source" : 0
        }
    ],
    "images" : [
        {
            "bufferView" : 4,
            "mimeType" : "image/jpeg",
            "name" : "D"
        }
    ],
    "accessors" : [
        {
            "bufferView" : 0,
            "componentType" : 5126,
            "count" : 518,
            "max" : [
                0.25451067090034485,
                1.765936017036438,
                -1.5649585723876953
            ],
            "min" : [
                -0.25451067090034485,
                -1.7659364938735962,
                -9.2614107131958
            ],
            "type" : "VEC3"
        },
        {
            "bufferView" : 1,
            "componentType" : 5126,
            "count" : 518,
            "type" : "VEC3"
        },
        {
            "bufferView" : 2,
            "componentType" : 5126,
            "count" : 518,
            "type" : "VEC2"
        },
        {
            "bufferView" : 3,
            "componentType" : 5123,
            "count" : 2136,
            "type" : "SCALAR"
        },
        {
            "bufferView" : 5,
            "componentType" : 5126,
            "count" : 294,
            "max" : [
                0.5182867050170898,
                -0.9646173715591431,
                -5.212655067443848
            ],
            "min" : [
                0.2937277555465698,
                -1.552001953125,
                -5.56007719039917
            ],
            "type" : "VEC3"
        },
        {
            "bufferView" : 6,
            "componentType" : 5126,
            "count" : 294,
            "type" : "VEC3"
        },
        {
            "bufferView" : 7,
            "componentType" : 5126,
            "count" : 294,
            "type" : "VEC2"
        },
        {
            "bufferView" : 8,
            "componentType" : 5123,
            "count" : 1032,
            "type" : "SCALAR"
        },
        {
            "bufferView" : 9,
            "componentType" : 5126,
            "count" : 294,
            "max" : [
                -0.26305729150772095,
                -0.9646173715591431,
                -5.212653160095215
            ],
            "min" : [
                -0.48761630058288574,
                -1.552001953125,
                -5.560075759887695
            ],
            "type" : "VEC3"
        },
        {
            "bufferView" : 10,
            "componentType" : 5126,
            "count" : 294,
            "type" : "VEC3"
        },
        {
            "bufferView" : 11,
            "componentType" : 5126,
            "count" : 294,
            "type" : "VEC2"
        },
        {
            "bufferView" : 12,
            "componentType" : 5123,
            "count" : 1032,
            "type" : "SCALAR"
        }
    ],
    "bufferViews" : [
        {
            "buffer" : 0,
            "byteLength" : 6216,
            "byteOffset" : 0
        },
        {
            "buffer" : 0,
            "byteLength" : 6216,
            "byteOffset" : 6216
        },
        {
            "buffer" : 0,
            "byteLength" : 4144,
            "byteOffset" : 12432
        },
        {
            "buffer" : 0,
            "byteLength" : 4272,
            "byteOffset" : 16576
        },
        {
            "buffer" : 0,
            "byteLength" : 70528,
            "byteOffset" : 20848
        },
        {
            "buffer" : 0,
            "byteLength" : 3528,
            "byteOffset" : 91376
        },
        {
            "buffer" : 0,
            "byteLength" : 3528,
            "byteOffset" : 94904
        },
        {
            "buffer" : 0,
            "byteLength" : 2352,
            "byteOffset" : 98432
        },
        {
            "buffer" : 0,
            "byteLength" : 2064,
            "byteOffset" : 100784
        },
        {
            "buffer" : 0,
            "byteLength" : 3528,
            "byteOffset" : 102848
        },
        {
            "buffer" : 0,
            "byteLength" : 3528,
            "byteOffset" : 106376
        },
        {
            "buffer" : 0,
            "byteLength" : 2352,
            "byteOffset" : 109904
        },
        {
            "buffer" : 0,
            "byteLength" : 2064,
            "byteOffset" : 112256
        }
    ],
    "samplers" : [
        {
            "magFilter" : 9729,
            "minFilter" : 9987
        }
    ],
    "buffers" : [
        {
            "byteLength" : 114320,
            "uri" : "data:application/octet-stream;base64,"
        }
    ]
}
