{
    "asset" : {
        "generator" : "Khronos glTF Blender I/O v1.8.19",
        "version" : "2.0"
    },
    "scene" : 0,
    "scenes" : [
        {
            "name" : "Scene",
            "nodes" : [
                0,
                12
            ]
        }
    ],
    "nodes" : [
        {
            "name" : "plant04_stage04:plant04_stage03:group1",
            "scale" : [
                1.035712480545044,
                1.035712480545044,
                4.564155101776123
            ],
            "translation" : [
                0,
                0,
                8.028267860412598
            ]
        },
        {
            "mesh" : 0,
            "name" : "plant05_stage02:pCube1"
        },
        {
            "mesh" : 1,
            "name" : "plant05_stage02:pCube2"
        },
        {
            "mesh" : 2,
            "name" : "plant05_stage02:pCube3"
        },
        {
            "mesh" : 3,
            "name" : "plant05_stage02:pCylinder1"
        },
        {
            "mesh" : 4,
            "name" : "plant05_stage03:pCube1"
        },
        {
            "mesh" : 5,
            "name" : "plant05_stage03:pCube3"
        },
        {
            "mesh" : 6,
            "name" : "plant05_stage03:pCylinder1"
        },
        {
            "mesh" : 7,
            "name" : "pSphere1"
        },
        {
            "children" : [
                1,
                2,
                3,
                4,
                5,
                6,
                7,
                8
            ],
            "name" : "group1"
        },
        {
            "mesh" : 8,
            "name" : "plant05_stage01:dirt"
        },
        {
            "mesh" : 9,
            "name" : "plant05_stage01:pot"
        },
        {
            "children" : [
                9,
                10,
                11
            ],
            "name" : "group2",
            "rotation" : [
                0.7071068286895752,
                0,
                0,
                0.7071067094802856
            ],
            "scale" : [
                0.009999999776482582,
                0.009999999776482582,
                0.009999999776482582
            ]
        }
    ],
    "materials" : [
        {
            "doubleSided" : true,
            "name" : "aiStandardSurface1.008",
            "pbrMetallicRoughness" : {
                "baseColorTexture" : {
                    "index" : 0
                },
                "metallicFactor" : 0,
                "roughnessFactor" : 0.5527864098548889
            }
        }
    ],
    "meshes" : [
        {
            "name" : "Mesh.1130",
            "primitives" : [
                {
                    "attributes" : {
                        "POSITION" : 0,
                        "NORMAL" : 1,
                        "TEXCOORD_0" : 2
                    },
                    "indices" : 3,
                    "material" : 0
                }
            ]
        },
        {
            "name" : "Mesh.1131",
            "primitives" : [
                {
                    "attributes" : {
                        "POSITION" : 4,
                        "NORMAL" : 5,
                        "TEXCOORD_0" : 6
                    },
                    "indices" : 7,
                    "material" : 0
                }
            ]
        },
        {
            "name" : "Mesh.1132",
            "primitives" : [
                {
                    "attributes" : {
                        "POSITION" : 8,
                        "NORMAL" : 9,
                        "TEXCOORD_0" : 10
                    },
                    "indices" : 11,
                    "material" : 0
                }
            ]
        },
        {
            "name" : "Mesh.1129",
            "primitives" : [
                {
                    "attributes" : {
                        "POSITION" : 12,
                        "NORMAL" : 13,
                        "TEXCOORD_0" : 14
                    },
                    "indices" : 15,
                    "material" : 0
                }
            ]
        },
        {
            "name" : "Mesh.1135",
            "primitives" : [
                {
                    "attributes" : {
                        "POSITION" : 16,
                        "NORMAL" : 17,
                        "TEXCOORD_0" : 18
                    },
                    "indices" : 19,
                    "material" : 0
                }
            ]
        },
        {
            "name" : "Mesh.1136",
            "primitives" : [
                {
                    "attributes" : {
                        "POSITION" : 20,
                        "NORMAL" : 21,
                        "TEXCOORD_0" : 22
                    },
                    "indices" : 23,
                    "material" : 0
                }
            ]
        },
        {
            "name" : "Mesh.1134",
            "primitives" : [
                {
                    "attributes" : {
                        "POSITION" : 24,
                        "NORMAL" : 25,
                        "TEXCOORD_0" : 26
                    },
                    "indices" : 27,
                    "material" : 0
                }
            ]
        },
        {
            "name" : "Mesh.1133",
            "primitives" : [
                {
                    "attributes" : {
                        "POSITION" : 28,
                        "NORMAL" : 29,
                        "TEXCOORD_0" : 30
                    },
                    "indices" : 31,
                    "material" : 0
                }
            ]
        },
        {
            "name" : "Mesh.1138",
            "primitives" : [
                {
                    "attributes" : {
                        "POSITION" : 32,
                        "NORMAL" : 33,
                        "TEXCOORD_0" : 34
                    },
                    "indices" : 35,
                    "material" : 0
                }
            ]
        },
        {
            "name" : "Mesh.1137",
            "primitives" : [
                {
                    "attributes" : {
                        "POSITION" : 36,
                        "NORMAL" : 37,
                        "TEXCOORD_0" : 38
                    },
                    "indices" : 39,
                    "material" : 0
                }
            ]
        }
    ],
    "textures" : [
        {
            "sampler" : 0,
            "source" : 0
        }
    ],
    "images" : [
        {
            "bufferView" : 4,
            "mimeType" : "image/jpeg",
            "name" : "3"
        }
    ],
    "accessors" : [
        {
            "bufferView" : 0,
            "componentType" : 5126,
            "count" : 88,
            "max" : [
                0.3920426368713379,
                0.13318783044815063,
                -0.6337549090385437
            ],
            "min" : [
                -0.01861444115638733,
                -0.14202672243118286,
                -1.6273447275161743
            ],
            "type" : "VEC3"
        },
        {
            "bufferView" : 1,
            "componentType" : 5126,
            "count" : 88,
            "type" : "VEC3"
        },
        {
            "bufferView" : 2,
            "componentType" : 5126,
            "count" : 88,
            "type" : "VEC2"
        },
        {
            "bufferView" : 3,
            "componentType" : 5123,
            "count" : 168,
            "type" : "SCALAR"
        },
        {
            "bufferView" : 5,
            "componentType" : 5126,
            "count" : 85,
            "max" : [
                0.05298495292663574,
                -0.004859060049057007,
                -0.713022768497467
            ],
            "min" : [
                -0.18382787704467773,
                -0.34609827399253845,
                -1.1523847579956055
            ],
            "type" : "VEC3"
        },
        {
            "bufferView" : 6,
            "componentType" : 5126,
            "count" : 85,
            "type" : "VEC3"
        },
        {
            "bufferView" : 7,
            "componentType" : 5126,
            "count" : 85,
            "type" : "VEC2"
        },
        {
            "bufferView" : 8,
            "componentType" : 5123,
            "count" : 204,
            "type" : "SCALAR"
        },
        {
            "bufferView" : 9,
            "componentType" : 5126,
            "count" : 86,
            "max" : [
                0.036121904850006104,
                0.09504199028015137,
                -0.6233972907066345
            ],
            "min" : [
                -0.4039597511291504,
                -0.11321812868118286,
                -1.3993455171585083
            ],
            "type" : "VEC3"
        },
        {
            "bufferView" : 10,
            "componentType" : 5126,
            "count" : 86,
            "type" : "VEC3"
        },
        {
            "bufferView" : 11,
            "componentType" : 5126,
            "count" : 86,
            "type" : "VEC2"
        },
        {
            "bufferView" : 12,
            "componentType" : 5123,
            "count" : 168,
            "type" : "SCALAR"
        },
        {
            "bufferView" : 13,
            "componentType" : 5126,
            "count" : 32,
            "max" : [
                0.0359569787979126,
                0.03419715166091919,
                -0.2896233797073364
            ],
            "min" : [
                -0.029089808464050293,
                -0.03419715166091919,
                -1.629881739616394
            ],
            "type" : "VEC3"
        },
        {
            "bufferView" : 14,
            "componentType" : 5126,
            "count" : 32,
            "type" : "VEC3"
        },
        {
            "bufferView" : 15,
            "componentType" : 5126,
            "count" : 32,
            "type" : "VEC2"
        },
        {
            "bufferView" : 16,
            "componentType" : 5123,
            "count" : 60,
            "type" : "SCALAR"
        },
        {
            "bufferView" : 17,
            "componentType" : 5126,
            "count" : 88,
            "max" : [
                0.21843481063842773,
                0.3657505512237549,
                -0.6527958512306213
            ],
            "min" : [
                -0.06620457768440247,
                0.10334838181734085,
                -1.064470887184143
            ],
            "type" : "VEC3"
        },
        {
            "bufferView" : 18,
            "componentType" : 5126,
            "count" : 88,
            "type" : "VEC3"
        },
        {
            "bufferView" : 19,
            "componentType" : 5126,
            "count" : 88,
            "type" : "VEC2"
        },
        {
            "bufferView" : 20,
            "componentType" : 5123,
            "count" : 168,
            "type" : "SCALAR"
        },
        {
            "bufferView" : 21,
            "componentType" : 5126,
            "count" : 86,
            "max" : [
                0.02487558126449585,
                0.45716196298599243,
                -0.6635034680366516
            ],
            "min" : [
                -0.26779890060424805,
                0.22997508943080902,
                -1.0052566528320312
            ],
            "type" : "VEC3"
        },
        {
            "bufferView" : 22,
            "componentType" : 5126,
            "count" : 86,
            "type" : "VEC3"
        },
        {
            "bufferView" : 23,
            "componentType" : 5126,
            "count" : 86,
            "type" : "VEC2"
        },
        {
            "bufferView" : 24,
            "componentType" : 5123,
            "count" : 168,
            "type" : "SCALAR"
        },
        {
            "bufferView" : 25,
            "componentType" : 5126,
            "count" : 32,
            "max" : [
                0.03295576572418213,
                0.3352054953575134,
                -0.5448176860809326
            ],
            "min" : [
                -0.03511488437652588,
                0.2684129476547241,
                -1.2244997024536133
            ],
            "type" : "VEC3"
        },
        {
            "bufferView" : 26,
            "componentType" : 5126,
            "count" : 32,
            "type" : "VEC3"
        },
        {
            "bufferView" : 27,
            "componentType" : 5126,
            "count" : 32,
            "type" : "VEC2"
        },
        {
            "bufferView" : 28,
            "componentType" : 5123,
            "count" : 60,
            "type" : "SCALAR"
        },
        {
            "bufferView" : 29,
            "componentType" : 5126,
            "count" : 132,
            "max" : [
                0.07871991395950317,
                0.06817346811294556,
                -1.5010266304016113
            ],
            "min" : [
                -0.07871991395950317,
                -0.06817346811294556,
                -1.701535940170288
            ],
            "type" : "VEC3"
        },
        {
            "bufferView" : 30,
            "componentType" : 5126,
            "count" : 132,
            "type" : "VEC3"
        },
        {
            "bufferView" : 31,
            "componentType" : 5126,
            "count" : 132,
            "type" : "VEC2"
        },
        {
            "bufferView" : 32,
            "componentType" : 5123,
            "count" : 180,
            "type" : "SCALAR"
        },
        {
            "bufferView" : 33,
            "componentType" : 5126,
            "count" : 61,
            "max" : [
                0.685867190361023,
                0.6961289644241333,
                0.7787008881568909
            ],
            "min" : [
                -0.6858673095703125,
                -0.6961290240287781,
                -0.6779478192329407
            ],
            "type" : "VEC3"
        },
        {
            "bufferView" : 34,
            "componentType" : 5126,
            "count" : 61,
            "type" : "VEC3"
        },
        {
            "bufferView" : 35,
            "componentType" : 5126,
            "count" : 61,
            "type" : "VEC2"
        },
        {
            "bufferView" : 36,
            "componentType" : 5123,
            "count" : 114,
            "type" : "SCALAR"
        },
        {
            "bufferView" : 37,
            "componentType" : 5126,
            "count" : 158,
            "max" : [
                0.8934804201126099,
                0.8497503995895386,
                0.8851640820503235
            ],
            "min" : [
                -0.8934805393218994,
                -0.8497505187988281,
                -0.8934804201126099
            ],
            "type" : "VEC3"
        },
        {
            "bufferView" : 38,
            "componentType" : 5126,
            "count" : 158,
            "type" : "VEC3"
        },
        {
            "bufferView" : 39,
            "componentType" : 5126,
            "count" : 158,
            "type" : "VEC2"
        },
        {
            "bufferView" : 40,
            "componentType" : 5123,
            "count" : 360,
            "type" : "SCALAR"
        }
    ],
    "bufferViews" : [
        {
            "buffer" : 0,
            "byteLength" : 1056,
            "byteOffset" : 0
        },
        {
            "buffer" : 0,
            "byteLength" : 1056,
            "byteOffset" : 1056
        },
        {
            "buffer" : 0,
            "byteLength" : 704,
            "byteOffset" : 2112
        },
        {
            "buffer" : 0,
            "byteLength" : 336,
            "byteOffset" : 2816
        },
        {
            "buffer" : 0,
            "byteLength" : 84844,
            "byteOffset" : 3152
        },
        {
            "buffer" : 0,
            "byteLength" : 1020,
            "byteOffset" : 87996
        },
        {
            "buffer" : 0,
            "byteLength" : 1020,
            "byteOffset" : 89016
        },
        {
            "buffer" : 0,
            "byteLength" : 680,
            "byteOffset" : 90036
        },
        {
            "buffer" : 0,
            "byteLength" : 408,
            "byteOffset" : 90716
        },
        {
            "buffer" : 0,
            "byteLength" : 1032,
            "byteOffset" : 91124
        },
        {
            "buffer" : 0,
            "byteLength" : 1032,
            "byteOffset" : 92156
        },
        {
            "buffer" : 0,
            "byteLength" : 688,
            "byteOffset" : 93188
        },
        {
            "buffer" : 0,
            "byteLength" : 336,
            "byteOffset" : 93876
        },
        {
            "buffer" : 0,
            "byteLength" : 384,
            "byteOffset" : 94212
        },
        {
            "buffer" : 0,
            "byteLength" : 384,
            "byteOffset" : 94596
        },
        {
            "buffer" : 0,
            "byteLength" : 256,
            "byteOffset" : 94980
        },
        {
            "buffer" : 0,
            "byteLength" : 120,
            "byteOffset" : 95236
        },
        {
            "buffer" : 0,
            "byteLength" : 1056,
            "byteOffset" : 95356
        },
        {
            "buffer" : 0,
            "byteLength" : 1056,
            "byteOffset" : 96412
        },
        {
            "buffer" : 0,
            "byteLength" : 704,
            "byteOffset" : 97468
        },
        {
            "buffer" : 0,
            "byteLength" : 336,
            "byteOffset" : 98172
        },
        {
            "buffer" : 0,
            "byteLength" : 1032,
            "byteOffset" : 98508
        },
        {
            "buffer" : 0,
            "byteLength" : 1032,
            "byteOffset" : 99540
        },
        {
            "buffer" : 0,
            "byteLength" : 688,
            "byteOffset" : 100572
        },
        {
            "buffer" : 0,
            "byteLength" : 336,
            "byteOffset" : 101260
        },
        {
            "buffer" : 0,
            "byteLength" : 384,
            "byteOffset" : 101596
        },
        {
            "buffer" : 0,
            "byteLength" : 384,
            "byteOffset" : 101980
        },
        {
            "buffer" : 0,
            "byteLength" : 256,
            "byteOffset" : 102364
        },
        {
            "buffer" : 0,
            "byteLength" : 120,
            "byteOffset" : 102620
        },
        {
            "buffer" : 0,
            "byteLength" : 1584,
            "byteOffset" : 102740
        },
        {
            "buffer" : 0,
            "byteLength" : 1584,
            "byteOffset" : 104324
        },
        {
            "buffer" : 0,
            "byteLength" : 1056,
            "byteOffset" : 105908
        },
        {
            "buffer" : 0,
            "byteLength" : 360,
            "byteOffset" : 106964
        },
        {
            "buffer" : 0,
            "byteLength" : 732,
            "byteOffset" : 107324
        },
        {
            "buffer" : 0,
            "byteLength" : 732,
            "byteOffset" : 108056
        },
        {
            "buffer" : 0,
            "byteLength" : 488,
            "byteOffset" : 108788
        },
        {
            "buffer" : 0,
            "byteLength" : 228,
            "byteOffset" : 109276
        },
        {
            "buffer" : 0,
            "byteLength" : 1896,
            "byteOffset" : 109504
        },
        {
            "buffer" : 0,
            "byteLength" : 1896,
            "byteOffset" : 111400
        },
        {
            "buffer" : 0,
            "byteLength" : 1264,
            "byteOffset" : 113296
        },
        {
            "buffer" : 0,
            "byteLength" : 720,
            "byteOffset" : 114560
        }
    ],
    "samplers" : [
        {
            "magFilter" : 9729,
            "minFilter" : 9987
        }
    ],
    "buffers" : [
        {
            "byteLength" : 115280,
            "uri" : "data:application/octet-stream;base64,"
        }
    ]
}
