{
    "asset" : {
        "generator" : "Khronos glTF Blender I/O v1.8.19",
        "version" : "2.0"
    },
    "scene" : 0,
    "scenes" : [
        {
            "name" : "Scene",
            "nodes" : [
                0,
                6
            ]
        }
    ],
    "nodes" : [
        {
            "name" : "plant04_stage04:plant04_stage03:group1",
            "scale" : [
                1.035712480545044,
                1.035712480545044,
                4.564155101776123
            ],
            "translation" : [
                0,
                0,
                8.028267860412598
            ]
        },
        {
            "mesh" : 0,
            "name" : "pCube1"
        },
        {
            "mesh" : 1,
            "name" : "pCube3"
        },
        {
            "mesh" : 2,
            "name" : "pCylinder1"
        },
        {
            "mesh" : 3,
            "name" : "plant05_stage02:dirt"
        },
        {
            "mesh" : 4,
            "name" : "plant05_stage02:pot"
        },
        {
            "children" : [
                1,
                2,
                3,
                4,
                5
            ],
            "name" : "group1",
            "rotation" : [
                0.7071068286895752,
                0,
                0,
                0.7071067094802856
            ],
            "scale" : [
                0.009999999776482582,
                0.009999999776482582,
                0.009999999776482582
            ]
        }
    ],
    "materials" : [
        {
            "doubleSided" : true,
            "name" : "aiStandardSurface1.007",
            "pbrMetallicRoughness" : {
                "baseColorTexture" : {
                    "index" : 0
                },
                "metallicFactor" : 0,
                "roughnessFactor" : 0.5527864098548889
            }
        }
    ],
    "meshes" : [
        {
            "name" : "Mesh.1125",
            "primitives" : [
                {
                    "attributes" : {
                        "POSITION" : 0,
                        "NORMAL" : 1,
                        "TEXCOORD_0" : 2
                    },
                    "indices" : 3,
                    "material" : 0
                }
            ]
        },
        {
            "name" : "Mesh.1126",
            "primitives" : [
                {
                    "attributes" : {
                        "POSITION" : 4,
                        "NORMAL" : 5,
                        "TEXCOORD_0" : 6
                    },
                    "indices" : 7,
                    "material" : 0
                }
            ]
        },
        {
            "name" : "Mesh.1124",
            "primitives" : [
                {
                    "attributes" : {
                        "POSITION" : 8,
                        "NORMAL" : 9,
                        "TEXCOORD_0" : 10
                    },
                    "indices" : 11,
                    "material" : 0
                }
            ]
        },
        {
            "name" : "Mesh.1128",
            "primitives" : [
                {
                    "attributes" : {
                        "POSITION" : 12,
                        "NORMAL" : 13,
                        "TEXCOORD_0" : 14
                    },
                    "indices" : 15,
                    "material" : 0
                }
            ]
        },
        {
            "name" : "Mesh.1127",
            "primitives" : [
                {
                    "attributes" : {
                        "POSITION" : 16,
                        "NORMAL" : 17,
                        "TEXCOORD_0" : 18
                    },
                    "indices" : 19,
                    "material" : 0
                }
            ]
        }
    ],
    "textures" : [
        {
            "sampler" : 0,
            "source" : 0
        }
    ],
    "images" : [
        {
            "bufferView" : 4,
            "mimeType" : "image/jpeg",
            "name" : "2"
        }
    ],
    "accessors" : [
        {
            "bufferView" : 0,
            "componentType" : 5126,
            "count" : 68,
            "max" : [
                0.30274200439453125,
                0.11874151229858398,
                -0.6537758111953735
            ],
            "min" : [
                -0.023086369037628174,
                -0.13123595714569092,
                -1.0525939464569092
            ],
            "type" : "VEC3"
        },
        {
            "bufferView" : 1,
            "componentType" : 5126,
            "count" : 68,
            "type" : "VEC3"
        },
        {
            "bufferView" : 2,
            "componentType" : 5126,
            "count" : 68,
            "type" : "VEC2"
        },
        {
            "bufferView" : 3,
            "componentType" : 5123,
            "count" : 168,
            "type" : "SCALAR"
        },
        {
            "bufferView" : 5,
            "componentType" : 5126,
            "count" : 75,
            "max" : [
                0.02245461940765381,
                0.0848575234413147,
                -0.6639800071716309
            ],
            "min" : [
                -0.3194088935852051,
                -0.1047137975692749,
                -0.989707350730896
            ],
            "type" : "VEC3"
        },
        {
            "bufferView" : 6,
            "componentType" : 5126,
            "count" : 75,
            "type" : "VEC3"
        },
        {
            "bufferView" : 7,
            "componentType" : 5126,
            "count" : 75,
            "type" : "VEC2"
        },
        {
            "bufferView" : 8,
            "componentType" : 5123,
            "count" : 168,
            "type" : "SCALAR"
        },
        {
            "bufferView" : 9,
            "componentType" : 5126,
            "count" : 32,
            "max" : [
                0.0359569787979126,
                0.03419715166091919,
                -0.5448176860809326
            ],
            "min" : [
                -0.029089808464050293,
                -0.03419715166091919,
                -1.2244997024536133
            ],
            "type" : "VEC3"
        },
        {
            "bufferView" : 10,
            "componentType" : 5126,
            "count" : 32,
            "type" : "VEC3"
        },
        {
            "bufferView" : 11,
            "componentType" : 5126,
            "count" : 32,
            "type" : "VEC2"
        },
        {
            "bufferView" : 12,
            "componentType" : 5123,
            "count" : 60,
            "type" : "SCALAR"
        },
        {
            "bufferView" : 13,
            "componentType" : 5126,
            "count" : 61,
            "max" : [
                0.685867190361023,
                0.6961289644241333,
                0.7787008881568909
            ],
            "min" : [
                -0.6858673095703125,
                -0.6961290240287781,
                -0.6779478192329407
            ],
            "type" : "VEC3"
        },
        {
            "bufferView" : 14,
            "componentType" : 5126,
            "count" : 61,
            "type" : "VEC3"
        },
        {
            "bufferView" : 15,
            "componentType" : 5126,
            "count" : 61,
            "type" : "VEC2"
        },
        {
            "bufferView" : 16,
            "componentType" : 5123,
            "count" : 114,
            "type" : "SCALAR"
        },
        {
            "bufferView" : 17,
            "componentType" : 5126,
            "count" : 158,
            "max" : [
                0.8934804201126099,
                0.8497503995895386,
                0.8851640820503235
            ],
            "min" : [
                -0.8934805393218994,
                -0.8497505187988281,
                -0.8934804201126099
            ],
            "type" : "VEC3"
        },
        {
            "bufferView" : 18,
            "componentType" : 5126,
            "count" : 158,
            "type" : "VEC3"
        },
        {
            "bufferView" : 19,
            "componentType" : 5126,
            "count" : 158,
            "type" : "VEC2"
        },
        {
            "bufferView" : 20,
            "componentType" : 5123,
            "count" : 360,
            "type" : "SCALAR"
        }
    ],
    "bufferViews" : [
        {
            "buffer" : 0,
            "byteLength" : 816,
            "byteOffset" : 0
        },
        {
            "buffer" : 0,
            "byteLength" : 816,
            "byteOffset" : 816
        },
        {
            "buffer" : 0,
            "byteLength" : 544,
            "byteOffset" : 1632
        },
        {
            "buffer" : 0,
            "byteLength" : 336,
            "byteOffset" : 2176
        },
        {
            "buffer" : 0,
            "byteLength" : 85226,
            "byteOffset" : 2512
        },
        {
            "buffer" : 0,
            "byteLength" : 900,
            "byteOffset" : 87740
        },
        {
            "buffer" : 0,
            "byteLength" : 900,
            "byteOffset" : 88640
        },
        {
            "buffer" : 0,
            "byteLength" : 600,
            "byteOffset" : 89540
        },
        {
            "buffer" : 0,
            "byteLength" : 336,
            "byteOffset" : 90140
        },
        {
            "buffer" : 0,
            "byteLength" : 384,
            "byteOffset" : 90476
        },
        {
            "buffer" : 0,
            "byteLength" : 384,
            "byteOffset" : 90860
        },
        {
            "buffer" : 0,
            "byteLength" : 256,
            "byteOffset" : 91244
        },
        {
            "buffer" : 0,
            "byteLength" : 120,
            "byteOffset" : 91500
        },
        {
            "buffer" : 0,
            "byteLength" : 732,
            "byteOffset" : 91620
        },
        {
            "buffer" : 0,
            "byteLength" : 732,
            "byteOffset" : 92352
        },
        {
            "buffer" : 0,
            "byteLength" : 488,
            "byteOffset" : 93084
        },
        {
            "buffer" : 0,
            "byteLength" : 228,
            "byteOffset" : 93572
        },
        {
            "buffer" : 0,
            "byteLength" : 1896,
            "byteOffset" : 93800
        },
        {
            "buffer" : 0,
            "byteLength" : 1896,
            "byteOffset" : 95696
        },
        {
            "buffer" : 0,
            "byteLength" : 1264,
            "byteOffset" : 97592
        },
        {
            "buffer" : 0,
            "byteLength" : 720,
            "byteOffset" : 98856
        }
    ],
    "samplers" : [
        {
            "magFilter" : 9729,
            "minFilter" : 9987
        }
    ],
    "buffers" : [
        {
            "byteLength" : 99576,
            "uri" : "data:application/octet-stream;base64,"
        }
    ]
}
