{
    "asset" : {
        "generator" : "Khronos glTF Blender I/O v1.8.19",
        "version" : "2.0"
    },
    "scene" : 0,
    "scenes" : [
        {
            "name" : "Scene",
            "nodes" : [
                0,
                16
            ]
        }
    ],
    "nodes" : [
        {
            "name" : "plant04_stage04:plant04_stage03:group1",
            "scale" : [
                1.035712480545044,
                1.035712480545044,
                4.564155101776123
            ],
            "translation" : [
                0,
                0,
                8.028267860412598
            ]
        },
        {
            "mesh" : 0,
            "name" : "plant05_stage01:dirt"
        },
        {
            "mesh" : 1,
            "name" : "plant05_stage01:pot"
        },
        {
            "mesh" : 2,
            "name" : "plant05_stage03:plant05_stage02:pCube1"
        },
        {
            "mesh" : 3,
            "name" : "plant05_stage03:plant05_stage02:pCube2"
        },
        {
            "mesh" : 4,
            "name" : "plant05_stage03:plant05_stage02:pCube3"
        },
        {
            "mesh" : 5,
            "name" : "plant05_stage03:plant05_stage02:pCylinder1"
        },
        {
            "mesh" : 6,
            "name" : "plant05_stage03:pSphere1"
        },
        {
            "children" : [
                3,
                4,
                5,
                6,
                7
            ],
            "name" : "plant05_stage03:group1"
        },
        {
            "mesh" : 7,
            "name" : "plant05_stage04:plant05_stage02:pCube1"
        },
        {
            "mesh" : 8,
            "name" : "plant05_stage04:plant05_stage02:pCube2"
        },
        {
            "mesh" : 9,
            "name" : "plant05_stage04:plant05_stage02:pCube3"
        },
        {
            "mesh" : 10,
            "name" : "plant05_stage04:plant05_stage02:pCylinder1"
        },
        {
            "mesh" : 11,
            "name" : "plant05_stage04:pSphere1"
        },
        {
            "children" : [
                9,
                10,
                11,
                12,
                13
            ],
            "name" : "group1",
            "rotation" : [
                0,
                0,
                0.9975311160087585,
                0.07022611796855927
            ],
            "translation" : [
                2.8931546211242676,
                -1.7800757884979248,
                0
            ]
        },
        {
            "children" : [
                14
            ],
            "name" : "plant05_stage04:group1",
            "translation" : [
                -1.5121839046478271,
                1.1016420125961304,
                0
            ]
        },
        {
            "children" : [
                1,
                2,
                8,
                15
            ],
            "name" : "group2",
            "rotation" : [
                0.7071068286895752,
                0,
                0,
                0.7071067094802856
            ],
            "scale" : [
                0.009999999776482582,
                0.009999999776482582,
                0.009999999776482582
            ]
        }
    ],
    "materials" : [
        {
            "doubleSided" : true,
            "name" : "standardSurface2",
            "pbrMetallicRoughness" : {
                "baseColorTexture" : {
                    "index" : 0
                },
                "metallicFactor" : 0,
                "roughnessFactor" : 0.5527864098548889
            }
        }
    ],
    "meshes" : [
        {
            "name" : "Mesh.1150",
            "primitives" : [
                {
                    "attributes" : {
                        "POSITION" : 0,
                        "NORMAL" : 1,
                        "TEXCOORD_0" : 2
                    },
                    "indices" : 3,
                    "material" : 0
                }
            ]
        },
        {
            "name" : "Mesh.1149",
            "primitives" : [
                {
                    "attributes" : {
                        "POSITION" : 4,
                        "NORMAL" : 5,
                        "TEXCOORD_0" : 6
                    },
                    "indices" : 7,
                    "material" : 0
                }
            ]
        },
        {
            "name" : "Mesh.1140",
            "primitives" : [
                {
                    "attributes" : {
                        "POSITION" : 8,
                        "NORMAL" : 9,
                        "TEXCOORD_0" : 10
                    },
                    "indices" : 11,
                    "material" : 0
                }
            ]
        },
        {
            "name" : "Mesh.1141",
            "primitives" : [
                {
                    "attributes" : {
                        "POSITION" : 12,
                        "NORMAL" : 13,
                        "TEXCOORD_0" : 14
                    },
                    "indices" : 15,
                    "material" : 0
                }
            ]
        },
        {
            "name" : "Mesh.1142",
            "primitives" : [
                {
                    "attributes" : {
                        "POSITION" : 16,
                        "NORMAL" : 17,
                        "TEXCOORD_0" : 18
                    },
                    "indices" : 19,
                    "material" : 0
                }
            ]
        },
        {
            "name" : "Mesh.1139",
            "primitives" : [
                {
                    "attributes" : {
                        "POSITION" : 20,
                        "NORMAL" : 21,
                        "TEXCOORD_0" : 22
                    },
                    "indices" : 23,
                    "material" : 0
                }
            ]
        },
        {
            "name" : "Mesh.1143",
            "primitives" : [
                {
                    "attributes" : {
                        "POSITION" : 24,
                        "NORMAL" : 25,
                        "TEXCOORD_0" : 26
                    },
                    "indices" : 27,
                    "material" : 0
                }
            ]
        },
        {
            "name" : "Mesh.1144",
            "primitives" : [
                {
                    "attributes" : {
                        "POSITION" : 28,
                        "NORMAL" : 29,
                        "TEXCOORD_0" : 30
                    },
                    "indices" : 11,
                    "material" : 0
                }
            ]
        },
        {
            "name" : "Mesh.1148",
            "primitives" : [
                {
                    "attributes" : {
                        "POSITION" : 31,
                        "NORMAL" : 32,
                        "TEXCOORD_0" : 33
                    },
                    "indices" : 34,
                    "material" : 0
                }
            ]
        },
        {
            "name" : "Mesh.1145",
            "primitives" : [
                {
                    "attributes" : {
                        "POSITION" : 35,
                        "NORMAL" : 36,
                        "TEXCOORD_0" : 37
                    },
                    "indices" : 38,
                    "material" : 0
                }
            ]
        },
        {
            "name" : "Mesh.1146",
            "primitives" : [
                {
                    "attributes" : {
                        "POSITION" : 39,
                        "NORMAL" : 40,
                        "TEXCOORD_0" : 41
                    },
                    "indices" : 42,
                    "material" : 0
                }
            ]
        },
        {
            "name" : "Mesh.1147",
            "primitives" : [
                {
                    "attributes" : {
                        "POSITION" : 43,
                        "NORMAL" : 44,
                        "TEXCOORD_0" : 45
                    },
                    "indices" : 46,
                    "material" : 0
                }
            ]
        }
    ],
    "textures" : [
        {
            "sampler" : 0,
            "source" : 0
        }
    ],
    "images" : [
        {
            "bufferView" : 4,
            "mimeType" : "image/jpeg",
            "name" : "4"
        }
    ],
    "accessors" : [
        {
            "bufferView" : 0,
            "componentType" : 5126,
            "count" : 61,
            "max" : [
                0.685867190361023,
                0.6961289644241333,
                0.7787008881568909
            ],
            "min" : [
                -0.6858673095703125,
                -0.6961290240287781,
                -0.6779478192329407
            ],
            "type" : "VEC3"
        },
        {
            "bufferView" : 1,
            "componentType" : 5126,
            "count" : 61,
            "type" : "VEC3"
        },
        {
            "bufferView" : 2,
            "componentType" : 5126,
            "count" : 61,
            "type" : "VEC2"
        },
        {
            "bufferView" : 3,
            "componentType" : 5123,
            "count" : 114,
            "type" : "SCALAR"
        },
        {
            "bufferView" : 5,
            "componentType" : 5126,
            "count" : 158,
            "max" : [
                0.8934804201126099,
                0.8497503995895386,
                0.8851640820503235
            ],
            "min" : [
                -0.8934805393218994,
                -0.8497505187988281,
                -0.8934804201126099
            ],
            "type" : "VEC3"
        },
        {
            "bufferView" : 6,
            "componentType" : 5126,
            "count" : 158,
            "type" : "VEC3"
        },
        {
            "bufferView" : 7,
            "componentType" : 5126,
            "count" : 158,
            "type" : "VEC2"
        },
        {
            "bufferView" : 8,
            "componentType" : 5123,
            "count" : 360,
            "type" : "SCALAR"
        },
        {
            "bufferView" : 9,
            "componentType" : 5126,
            "count" : 64,
            "max" : [
                0.40823984146118164,
                0.12679266929626465,
                -0.6128686666488647
            ],
            "min" : [
                -0.03275656700134277,
                -0.14842188358306885,
                -1.8123303651809692
            ],
            "type" : "VEC3"
        },
        {
            "bufferView" : 10,
            "componentType" : 5126,
            "count" : 64,
            "type" : "VEC3"
        },
        {
            "bufferView" : 11,
            "componentType" : 5126,
            "count" : 64,
            "type" : "VEC2"
        },
        {
            "bufferView" : 12,
            "componentType" : 5123,
            "count" : 168,
            "type" : "SCALAR"
        },
        {
            "bufferView" : 13,
            "componentType" : 5126,
            "count" : 85,
            "max" : [
                0.05796313285827637,
                -0.008242711424827576,
                -0.6522440314292908
            ],
            "min" : [
                -0.19373393058776855,
                -0.4372013211250305,
                -1.400514841079712
            ],
            "type" : "VEC3"
        },
        {
            "bufferView" : 14,
            "componentType" : 5126,
            "count" : 85,
            "type" : "VEC3"
        },
        {
            "bufferView" : 15,
            "componentType" : 5126,
            "count" : 85,
            "type" : "VEC2"
        },
        {
            "bufferView" : 16,
            "componentType" : 5123,
            "count" : 204,
            "type" : "SCALAR"
        },
        {
            "bufferView" : 17,
            "componentType" : 5126,
            "count" : 73,
            "max" : [
                0.03052210807800293,
                0.09519249200820923,
                -0.6296724081039429
            ],
            "min" : [
                -0.44161558151245117,
                -0.11304569244384766,
                -1.5705585479736328
            ],
            "type" : "VEC3"
        },
        {
            "bufferView" : 18,
            "componentType" : 5126,
            "count" : 73,
            "type" : "VEC3"
        },
        {
            "bufferView" : 19,
            "componentType" : 5126,
            "count" : 73,
            "type" : "VEC2"
        },
        {
            "bufferView" : 20,
            "componentType" : 5123,
            "count" : 168,
            "type" : "SCALAR"
        },
        {
            "bufferView" : 21,
            "componentType" : 5126,
            "count" : 32,
            "max" : [
                0.0359569787979126,
                0.03419715166091919,
                -0.6148726940155029
            ],
            "min" : [
                -0.029089808464050293,
                -0.03419715166091919,
                -1.9551310539245605
            ],
            "type" : "VEC3"
        },
        {
            "bufferView" : 22,
            "componentType" : 5126,
            "count" : 32,
            "type" : "VEC3"
        },
        {
            "bufferView" : 23,
            "componentType" : 5126,
            "count" : 32,
            "type" : "VEC2"
        },
        {
            "bufferView" : 24,
            "componentType" : 5123,
            "count" : 60,
            "type" : "SCALAR"
        },
        {
            "bufferView" : 25,
            "componentType" : 5126,
            "count" : 120,
            "max" : [
                0.11896634101867676,
                0.10302788019180298,
                -1.701725959777832
            ],
            "min" : [
                -0.11896634101867676,
                -0.10302788019180298,
                -2.0723347663879395
            ],
            "type" : "VEC3"
        },
        {
            "bufferView" : 26,
            "componentType" : 5126,
            "count" : 120,
            "type" : "VEC3"
        },
        {
            "bufferView" : 27,
            "componentType" : 5126,
            "count" : 120,
            "type" : "VEC2"
        },
        {
            "bufferView" : 28,
            "componentType" : 5123,
            "count" : 180,
            "type" : "SCALAR"
        },
        {
            "bufferView" : 29,
            "componentType" : 5126,
            "count" : 64,
            "max" : [
                1.892460823059082,
                -0.6412310600280762,
                -0.6337548494338989
            ],
            "min" : [
                1.4818038940429688,
                -0.9164455533027649,
                -1.6273447275161743
            ],
            "type" : "VEC3"
        },
        {
            "bufferView" : 30,
            "componentType" : 5126,
            "count" : 64,
            "type" : "VEC3"
        },
        {
            "bufferView" : 31,
            "componentType" : 5126,
            "count" : 64,
            "type" : "VEC2"
        },
        {
            "bufferView" : 32,
            "componentType" : 5126,
            "count" : 85,
            "max" : [
                1.5534031391143799,
                -0.7792779207229614,
                -0.713022768497467
            ],
            "min" : [
                1.3165905475616455,
                -1.1205170154571533,
                -1.1523847579956055
            ],
            "type" : "VEC3"
        },
        {
            "bufferView" : 33,
            "componentType" : 5126,
            "count" : 85,
            "type" : "VEC3"
        },
        {
            "bufferView" : 34,
            "componentType" : 5126,
            "count" : 85,
            "type" : "VEC2"
        },
        {
            "bufferView" : 35,
            "componentType" : 5123,
            "count" : 204,
            "type" : "SCALAR"
        },
        {
            "bufferView" : 36,
            "componentType" : 5126,
            "count" : 75,
            "max" : [
                1.5365400314331055,
                -0.6793768405914307,
                -0.6233972311019897
            ],
            "min" : [
                1.096458911895752,
                -0.8876368999481201,
                -1.3993455171585083
            ],
            "type" : "VEC3"
        },
        {
            "bufferView" : 37,
            "componentType" : 5126,
            "count" : 75,
            "type" : "VEC3"
        },
        {
            "bufferView" : 38,
            "componentType" : 5126,
            "count" : 75,
            "type" : "VEC2"
        },
        {
            "bufferView" : 39,
            "componentType" : 5123,
            "count" : 168,
            "type" : "SCALAR"
        },
        {
            "bufferView" : 40,
            "componentType" : 5126,
            "count" : 32,
            "max" : [
                1.5363752841949463,
                -0.7402216792106628,
                -0.2896233797073364
            ],
            "min" : [
                1.4713283777236938,
                -0.8086159229278564,
                -1.629881739616394
            ],
            "type" : "VEC3"
        },
        {
            "bufferView" : 41,
            "componentType" : 5126,
            "count" : 32,
            "type" : "VEC3"
        },
        {
            "bufferView" : 42,
            "componentType" : 5126,
            "count" : 32,
            "type" : "VEC2"
        },
        {
            "bufferView" : 43,
            "componentType" : 5123,
            "count" : 60,
            "type" : "SCALAR"
        },
        {
            "bufferView" : 44,
            "componentType" : 5126,
            "count" : 132,
            "max" : [
                1.5791382789611816,
                -0.7062453031539917,
                -1.5010266304016113
            ],
            "min" : [
                1.4216983318328857,
                -0.8425922989845276,
                -1.701535940170288
            ],
            "type" : "VEC3"
        },
        {
            "bufferView" : 45,
            "componentType" : 5126,
            "count" : 132,
            "type" : "VEC3"
        },
        {
            "bufferView" : 46,
            "componentType" : 5126,
            "count" : 132,
            "type" : "VEC2"
        },
        {
            "bufferView" : 47,
            "componentType" : 5123,
            "count" : 180,
            "type" : "SCALAR"
        }
    ],
    "bufferViews" : [
        {
            "buffer" : 0,
            "byteLength" : 732,
            "byteOffset" : 0
        },
        {
            "buffer" : 0,
            "byteLength" : 732,
            "byteOffset" : 732
        },
        {
            "buffer" : 0,
            "byteLength" : 488,
            "byteOffset" : 1464
        },
        {
            "buffer" : 0,
            "byteLength" : 228,
            "byteOffset" : 1952
        },
        {
            "buffer" : 0,
            "byteLength" : 91565,
            "byteOffset" : 2180
        },
        {
            "buffer" : 0,
            "byteLength" : 1896,
            "byteOffset" : 93748
        },
        {
            "buffer" : 0,
            "byteLength" : 1896,
            "byteOffset" : 95644
        },
        {
            "buffer" : 0,
            "byteLength" : 1264,
            "byteOffset" : 97540
        },
        {
            "buffer" : 0,
            "byteLength" : 720,
            "byteOffset" : 98804
        },
        {
            "buffer" : 0,
            "byteLength" : 768,
            "byteOffset" : 99524
        },
        {
            "buffer" : 0,
            "byteLength" : 768,
            "byteOffset" : 100292
        },
        {
            "buffer" : 0,
            "byteLength" : 512,
            "byteOffset" : 101060
        },
        {
            "buffer" : 0,
            "byteLength" : 336,
            "byteOffset" : 101572
        },
        {
            "buffer" : 0,
            "byteLength" : 1020,
            "byteOffset" : 101908
        },
        {
            "buffer" : 0,
            "byteLength" : 1020,
            "byteOffset" : 102928
        },
        {
            "buffer" : 0,
            "byteLength" : 680,
            "byteOffset" : 103948
        },
        {
            "buffer" : 0,
            "byteLength" : 408,
            "byteOffset" : 104628
        },
        {
            "buffer" : 0,
            "byteLength" : 876,
            "byteOffset" : 105036
        },
        {
            "buffer" : 0,
            "byteLength" : 876,
            "byteOffset" : 105912
        },
        {
            "buffer" : 0,
            "byteLength" : 584,
            "byteOffset" : 106788
        },
        {
            "buffer" : 0,
            "byteLength" : 336,
            "byteOffset" : 107372
        },
        {
            "buffer" : 0,
            "byteLength" : 384,
            "byteOffset" : 107708
        },
        {
            "buffer" : 0,
            "byteLength" : 384,
            "byteOffset" : 108092
        },
        {
            "buffer" : 0,
            "byteLength" : 256,
            "byteOffset" : 108476
        },
        {
            "buffer" : 0,
            "byteLength" : 120,
            "byteOffset" : 108732
        },
        {
            "buffer" : 0,
            "byteLength" : 1440,
            "byteOffset" : 108852
        },
        {
            "buffer" : 0,
            "byteLength" : 1440,
            "byteOffset" : 110292
        },
        {
            "buffer" : 0,
            "byteLength" : 960,
            "byteOffset" : 111732
        },
        {
            "buffer" : 0,
            "byteLength" : 360,
            "byteOffset" : 112692
        },
        {
            "buffer" : 0,
            "byteLength" : 768,
            "byteOffset" : 113052
        },
        {
            "buffer" : 0,
            "byteLength" : 768,
            "byteOffset" : 113820
        },
        {
            "buffer" : 0,
            "byteLength" : 512,
            "byteOffset" : 114588
        },
        {
            "buffer" : 0,
            "byteLength" : 1020,
            "byteOffset" : 115100
        },
        {
            "buffer" : 0,
            "byteLength" : 1020,
            "byteOffset" : 116120
        },
        {
            "buffer" : 0,
            "byteLength" : 680,
            "byteOffset" : 117140
        },
        {
            "buffer" : 0,
            "byteLength" : 408,
            "byteOffset" : 117820
        },
        {
            "buffer" : 0,
            "byteLength" : 900,
            "byteOffset" : 118228
        },
        {
            "buffer" : 0,
            "byteLength" : 900,
            "byteOffset" : 119128
        },
        {
            "buffer" : 0,
            "byteLength" : 600,
            "byteOffset" : 120028
        },
        {
            "buffer" : 0,
            "byteLength" : 336,
            "byteOffset" : 120628
        },
        {
            "buffer" : 0,
            "byteLength" : 384,
            "byteOffset" : 120964
        },
        {
            "buffer" : 0,
            "byteLength" : 384,
            "byteOffset" : 121348
        },
        {
            "buffer" : 0,
            "byteLength" : 256,
            "byteOffset" : 121732
        },
        {
            "buffer" : 0,
            "byteLength" : 120,
            "byteOffset" : 121988
        },
        {
            "buffer" : 0,
            "byteLength" : 1584,
            "byteOffset" : 122108
        },
        {
            "buffer" : 0,
            "byteLength" : 1584,
            "byteOffset" : 123692
        },
        {
            "buffer" : 0,
            "byteLength" : 1056,
            "byteOffset" : 125276
        },
        {
            "buffer" : 0,
            "byteLength" : 360,
            "byteOffset" : 126332
        }
    ],
    "samplers" : [
        {
            "magFilter" : 9729,
            "minFilter" : 9987
        }
    ],
    "buffers" : [
        {
            "byteLength" : 126692,
            "uri" : "data:application/octet-stream;base64,"
        }
    ]
}
