{
    "asset" : {
        "generator" : "Khronos glTF Blender I/O v1.8.19",
        "version" : "2.0"
    },
    "scene" : 0,
    "scenes" : [
        {
            "name" : "Scene",
            "nodes" : [
                0,
                12
            ]
        }
    ],
    "nodes" : [
        {
            "name" : "plant04_stage04:plant04_stage03:group1",
            "scale" : [
                1.035712480545044,
                1.035712480545044,
                4.564155101776123
            ],
            "translation" : [
                0,
                0,
                8.028267860412598
            ]
        },
        {
            "mesh" : 0,
            "name" : "pCube3"
        },
        {
            "mesh" : 1,
            "name" : "pCube4"
        },
        {
            "mesh" : 2,
            "name" : "pCube5"
        },
        {
            "mesh" : 3,
            "name" : "pCube6"
        },
        {
            "mesh" : 4,
            "name" : "pCylinder1"
        },
        {
            "mesh" : 5,
            "name" : "pCylinder2"
        },
        {
            "mesh" : 6,
            "name" : "pCylinder3"
        },
        {
            "children" : [
                1,
                2,
                3,
                4,
                5,
                6,
                7
            ],
            "name" : "group1"
        },
        {
            "children" : [
                8
            ],
            "name" : "group2"
        },
        {
            "mesh" : 7,
            "name" : "plant06_stage02:dirt"
        },
        {
            "mesh" : 8,
            "name" : "plant06_stage02:pot"
        },
        {
            "children" : [
                9,
                10,
                11
            ],
            "name" : "group3",
            "rotation" : [
                0.7071068286895752,
                0,
                0,
                0.7071067094802856
            ],
            "scale" : [
                0.009999999776482582,
                0.009999999776482582,
                0.009999999776482582
            ]
        }
    ],
    "materials" : [
        {
            "doubleSided" : true,
            "name" : "standardSurface2.003",
            "pbrMetallicRoughness" : {
                "baseColorTexture" : {
                    "index" : 0
                },
                "metallicFactor" : 0,
                "roughnessFactor" : 0.5527864098548889
            }
        },
        {
            "doubleSided" : true,
            "name" : "plant06_stage02:standardSurface2",
            "pbrMetallicRoughness" : {
                "baseColorTexture" : {
                    "index" : 1
                },
                "metallicFactor" : 0,
                "roughnessFactor" : 0.5527864098548889
            }
        }
    ],
    "meshes" : [
        {
            "name" : "Mesh.1167",
            "primitives" : [
                {
                    "attributes" : {
                        "POSITION" : 0,
                        "NORMAL" : 1,
                        "TEXCOORD_0" : 2
                    },
                    "indices" : 3,
                    "material" : 0
                }
            ]
        },
        {
            "name" : "Mesh.1169",
            "primitives" : [
                {
                    "attributes" : {
                        "POSITION" : 4,
                        "NORMAL" : 5,
                        "TEXCOORD_0" : 6
                    },
                    "indices" : 7,
                    "material" : 0
                }
            ]
        },
        {
            "name" : "Mesh.1170",
            "primitives" : [
                {
                    "attributes" : {
                        "POSITION" : 8,
                        "NORMAL" : 9,
                        "TEXCOORD_0" : 10
                    },
                    "indices" : 11,
                    "material" : 0
                }
            ]
        },
        {
            "name" : "Mesh.1172",
            "primitives" : [
                {
                    "attributes" : {
                        "POSITION" : 12,
                        "NORMAL" : 13,
                        "TEXCOORD_0" : 14
                    },
                    "indices" : 15,
                    "material" : 0
                }
            ]
        },
        {
            "name" : "Mesh.1166",
            "primitives" : [
                {
                    "attributes" : {
                        "POSITION" : 16,
                        "NORMAL" : 17,
                        "TEXCOORD_0" : 18
                    },
                    "indices" : 19,
                    "material" : 0
                }
            ]
        },
        {
            "name" : "Mesh.1168",
            "primitives" : [
                {
                    "attributes" : {
                        "POSITION" : 20,
                        "NORMAL" : 21,
                        "TEXCOORD_0" : 22
                    },
                    "indices" : 23,
                    "material" : 0
                }
            ]
        },
        {
            "name" : "Mesh.1171",
            "primitives" : [
                {
                    "attributes" : {
                        "POSITION" : 24,
                        "NORMAL" : 25,
                        "TEXCOORD_0" : 26
                    },
                    "indices" : 27,
                    "material" : 0
                }
            ]
        },
        {
            "name" : "Mesh.1174",
            "primitives" : [
                {
                    "attributes" : {
                        "POSITION" : 28,
                        "NORMAL" : 29,
                        "TEXCOORD_0" : 30
                    },
                    "indices" : 31,
                    "material" : 1
                }
            ]
        },
        {
            "name" : "Mesh.1173",
            "primitives" : [
                {
                    "attributes" : {
                        "POSITION" : 32,
                        "NORMAL" : 33,
                        "TEXCOORD_0" : 34
                    },
                    "indices" : 35,
                    "material" : 1
                }
            ]
        }
    ],
    "textures" : [
        {
            "sampler" : 0,
            "source" : 0
        },
        {
            "sampler" : 0,
            "source" : 0
        }
    ],
    "images" : [
        {
            "bufferView" : 4,
            "mimeType" : "image/jpeg",
            "name" : "2"
        }
    ],
    "accessors" : [
        {
            "bufferView" : 0,
            "componentType" : 5126,
            "count" : 86,
            "max" : [
                -0.18618208169937134,
                0.12850624322891235,
                -0.7794589400291443
            ],
            "min" : [
                -0.39472150802612305,
                0.0021847188472747803,
                -0.9143426418304443
            ],
            "type" : "VEC3"
        },
        {
            "bufferView" : 1,
            "componentType" : 5126,
            "count" : 86,
            "type" : "VEC3"
        },
        {
            "bufferView" : 2,
            "componentType" : 5126,
            "count" : 86,
            "type" : "VEC2"
        },
        {
            "bufferView" : 3,
            "componentType" : 5123,
            "count" : 168,
            "type" : "SCALAR"
        },
        {
            "bufferView" : 5,
            "componentType" : 5126,
            "count" : 86,
            "max" : [
                0.014464139938354492,
                -0.285766065120697,
                -0.8093054890632629
            ],
            "min" : [
                -0.08392983675003052,
                -0.45669373869895935,
                -0.9049030542373657
            ],
            "type" : "VEC3"
        },
        {
            "bufferView" : 6,
            "componentType" : 5126,
            "count" : 86,
            "type" : "VEC3"
        },
        {
            "bufferView" : 7,
            "componentType" : 5126,
            "count" : 86,
            "type" : "VEC2"
        },
        {
            "bufferView" : 8,
            "componentType" : 5123,
            "count" : 168,
            "type" : "SCALAR"
        },
        {
            "bufferView" : 9,
            "componentType" : 5126,
            "count" : 86,
            "max" : [
                0.35567283630371094,
                0.28709742426872253,
                -0.7810860276222229
            ],
            "min" : [
                0.1953665018081665,
                0.09769502282142639,
                -0.9010378122329712
            ],
            "type" : "VEC3"
        },
        {
            "bufferView" : 10,
            "componentType" : 5126,
            "count" : 86,
            "type" : "VEC3"
        },
        {
            "bufferView" : 11,
            "componentType" : 5126,
            "count" : 86,
            "type" : "VEC2"
        },
        {
            "bufferView" : 12,
            "componentType" : 5123,
            "count" : 168,
            "type" : "SCALAR"
        },
        {
            "bufferView" : 13,
            "componentType" : 5126,
            "count" : 86,
            "max" : [
                0.27426791191101074,
                0.11008882522583008,
                -0.8986532092094421
            ],
            "min" : [
                0.17587395012378693,
                -0.06083884462714195,
                -0.9942507743835449
            ],
            "type" : "VEC3"
        },
        {
            "bufferView" : 14,
            "componentType" : 5126,
            "count" : 86,
            "type" : "VEC3"
        },
        {
            "bufferView" : 15,
            "componentType" : 5126,
            "count" : 86,
            "type" : "VEC2"
        },
        {
            "bufferView" : 16,
            "componentType" : 5123,
            "count" : 168,
            "type" : "SCALAR"
        },
        {
            "bufferView" : 17,
            "componentType" : 5126,
            "count" : 66,
            "max" : [
                -0.16137802600860596,
                0.08923107385635376,
                -0.6113353967666626
            ],
            "min" : [
                -0.21244722604751587,
                0.03816187381744385,
                -1.086620807647705
            ],
            "type" : "VEC3"
        },
        {
            "bufferView" : 18,
            "componentType" : 5126,
            "count" : 66,
            "type" : "VEC3"
        },
        {
            "bufferView" : 19,
            "componentType" : 5126,
            "count" : 66,
            "type" : "VEC2"
        },
        {
            "bufferView" : 20,
            "componentType" : 5123,
            "count" : 144,
            "type" : "SCALAR"
        },
        {
            "bufferView" : 21,
            "componentType" : 5126,
            "count" : 66,
            "max" : [
                -0.016511201858520508,
                -0.25615257024765015,
                -0.6174250841140747
            ],
            "min" : [
                -0.06758040189743042,
                -0.30722177028656006,
                -1.0066592693328857
            ],
            "type" : "VEC3"
        },
        {
            "bufferView" : 22,
            "componentType" : 5126,
            "count" : 66,
            "type" : "VEC3"
        },
        {
            "bufferView" : 23,
            "componentType" : 5126,
            "count" : 66,
            "type" : "VEC2"
        },
        {
            "bufferView" : 24,
            "componentType" : 5123,
            "count" : 144,
            "type" : "SCALAR"
        },
        {
            "bufferView" : 25,
            "componentType" : 5126,
            "count" : 66,
            "max" : [
                0.24377334117889404,
                0.12995505332946777,
                -0.6007905006408691
            ],
            "min" : [
                0.19270408153533936,
                0.07888579368591309,
                -1.1420683860778809
            ],
            "type" : "VEC3"
        },
        {
            "bufferView" : 26,
            "componentType" : 5126,
            "count" : 66,
            "type" : "VEC3"
        },
        {
            "bufferView" : 27,
            "componentType" : 5126,
            "count" : 66,
            "type" : "VEC2"
        },
        {
            "bufferView" : 28,
            "componentType" : 5123,
            "count" : 144,
            "type" : "SCALAR"
        },
        {
            "bufferView" : 29,
            "componentType" : 5126,
            "count" : 19,
            "max" : [
                0.7930169105529785,
                0.6867728233337402,
                0.6705350875854492
            ],
            "min" : [
                -0.7930169105529785,
                -0.686772882938385,
                -0.6288406252861023
            ],
            "type" : "VEC3"
        },
        {
            "bufferView" : 30,
            "componentType" : 5126,
            "count" : 19,
            "type" : "VEC3"
        },
        {
            "bufferView" : 31,
            "componentType" : 5126,
            "count" : 19,
            "type" : "VEC2"
        },
        {
            "bufferView" : 32,
            "componentType" : 5123,
            "count" : 66,
            "type" : "SCALAR"
        },
        {
            "bufferView" : 33,
            "componentType" : 5126,
            "count" : 139,
            "max" : [
                0.9633104801177979,
                0.8342514038085938,
                0.8147916793823242
            ],
            "min" : [
                -0.9633104801177979,
                -0.8342514634132385,
                -0.8565037250518799
            ],
            "type" : "VEC3"
        },
        {
            "bufferView" : 34,
            "componentType" : 5126,
            "count" : 139,
            "type" : "VEC3"
        },
        {
            "bufferView" : 35,
            "componentType" : 5126,
            "count" : 139,
            "type" : "VEC2"
        },
        {
            "bufferView" : 36,
            "componentType" : 5123,
            "count" : 288,
            "type" : "SCALAR"
        }
    ],
    "bufferViews" : [
        {
            "buffer" : 0,
            "byteLength" : 1032,
            "byteOffset" : 0
        },
        {
            "buffer" : 0,
            "byteLength" : 1032,
            "byteOffset" : 1032
        },
        {
            "buffer" : 0,
            "byteLength" : 688,
            "byteOffset" : 2064
        },
        {
            "buffer" : 0,
            "byteLength" : 336,
            "byteOffset" : 2752
        },
        {
            "buffer" : 0,
            "byteLength" : 76679,
            "byteOffset" : 3088
        },
        {
            "buffer" : 0,
            "byteLength" : 1032,
            "byteOffset" : 79768
        },
        {
            "buffer" : 0,
            "byteLength" : 1032,
            "byteOffset" : 80800
        },
        {
            "buffer" : 0,
            "byteLength" : 688,
            "byteOffset" : 81832
        },
        {
            "buffer" : 0,
            "byteLength" : 336,
            "byteOffset" : 82520
        },
        {
            "buffer" : 0,
            "byteLength" : 1032,
            "byteOffset" : 82856
        },
        {
            "buffer" : 0,
            "byteLength" : 1032,
            "byteOffset" : 83888
        },
        {
            "buffer" : 0,
            "byteLength" : 688,
            "byteOffset" : 84920
        },
        {
            "buffer" : 0,
            "byteLength" : 336,
            "byteOffset" : 85608
        },
        {
            "buffer" : 0,
            "byteLength" : 1032,
            "byteOffset" : 85944
        },
        {
            "buffer" : 0,
            "byteLength" : 1032,
            "byteOffset" : 86976
        },
        {
            "buffer" : 0,
            "byteLength" : 688,
            "byteOffset" : 88008
        },
        {
            "buffer" : 0,
            "byteLength" : 336,
            "byteOffset" : 88696
        },
        {
            "buffer" : 0,
            "byteLength" : 792,
            "byteOffset" : 89032
        },
        {
            "buffer" : 0,
            "byteLength" : 792,
            "byteOffset" : 89824
        },
        {
            "buffer" : 0,
            "byteLength" : 528,
            "byteOffset" : 90616
        },
        {
            "buffer" : 0,
            "byteLength" : 288,
            "byteOffset" : 91144
        },
        {
            "buffer" : 0,
            "byteLength" : 792,
            "byteOffset" : 91432
        },
        {
            "buffer" : 0,
            "byteLength" : 792,
            "byteOffset" : 92224
        },
        {
            "buffer" : 0,
            "byteLength" : 528,
            "byteOffset" : 93016
        },
        {
            "buffer" : 0,
            "byteLength" : 288,
            "byteOffset" : 93544
        },
        {
            "buffer" : 0,
            "byteLength" : 792,
            "byteOffset" : 93832
        },
        {
            "buffer" : 0,
            "byteLength" : 792,
            "byteOffset" : 94624
        },
        {
            "buffer" : 0,
            "byteLength" : 528,
            "byteOffset" : 95416
        },
        {
            "buffer" : 0,
            "byteLength" : 288,
            "byteOffset" : 95944
        },
        {
            "buffer" : 0,
            "byteLength" : 228,
            "byteOffset" : 96232
        },
        {
            "buffer" : 0,
            "byteLength" : 228,
            "byteOffset" : 96460
        },
        {
            "buffer" : 0,
            "byteLength" : 152,
            "byteOffset" : 96688
        },
        {
            "buffer" : 0,
            "byteLength" : 132,
            "byteOffset" : 96840
        },
        {
            "buffer" : 0,
            "byteLength" : 1668,
            "byteOffset" : 96972
        },
        {
            "buffer" : 0,
            "byteLength" : 1668,
            "byteOffset" : 98640
        },
        {
            "buffer" : 0,
            "byteLength" : 1112,
            "byteOffset" : 100308
        },
        {
            "buffer" : 0,
            "byteLength" : 576,
            "byteOffset" : 101420
        }
    ],
    "samplers" : [
        {
            "magFilter" : 9729,
            "minFilter" : 9987
        }
    ],
    "buffers" : [
        {
            "byteLength" : 101996,
            "uri" : "data:application/octet-stream;base64,"
        }
    ]
}
