{
    "asset" : {
        "generator" : "Khronos glTF Blender I/O v1.8.19",
        "version" : "2.0"
    },
    "scene" : 0,
    "scenes" : [
        {
            "name" : "Scene",
            "nodes" : [
                0,
                14
            ]
        }
    ],
    "nodes" : [
        {
            "name" : "plant04_stage04:plant04_stage03:group1",
            "scale" : [
                1.035712480545044,
                1.035712480545044,
                4.564155101776123
            ],
            "translation" : [
                0,
                0,
                8.028267860412598
            ]
        },
        {
            "mesh" : 0,
            "name" : "plant06_stage02:pCube3"
        },
        {
            "mesh" : 1,
            "name" : "plant06_stage02:pCube4"
        },
        {
            "mesh" : 2,
            "name" : "plant06_stage02:pCube5"
        },
        {
            "mesh" : 3,
            "name" : "plant06_stage02:pCube6"
        },
        {
            "mesh" : 4,
            "name" : "plant06_stage02:pCylinder1"
        },
        {
            "mesh" : 5,
            "name" : "plant06_stage02:pCylinder2"
        },
        {
            "mesh" : 6,
            "name" : "plant06_stage02:pCylinder3"
        },
        {
            "mesh" : 7,
            "name" : "pSphere1"
        },
        {
            "mesh" : 8,
            "name" : "pSphere2"
        },
        {
            "mesh" : 9,
            "name" : "pSphere3"
        },
        {
            "children" : [
                1,
                2,
                3,
                4,
                5,
                6,
                7,
                8,
                9,
                10
            ],
            "name" : "group1"
        },
        {
            "mesh" : 10,
            "name" : "plant06_stage01:dirt"
        },
        {
            "mesh" : 11,
            "name" : "plant06_stage01:pot"
        },
        {
            "children" : [
                11,
                12,
                13
            ],
            "name" : "group2",
            "rotation" : [
                0.7071068286895752,
                0,
                0,
                0.7071067094802856
            ],
            "scale" : [
                0.009999999776482582,
                0.009999999776482582,
                0.009999999776482582
            ]
        }
    ],
    "materials" : [
        {
            "doubleSided" : true,
            "name" : "standardSurface2.004",
            "pbrMetallicRoughness" : {
                "baseColorTexture" : {
                    "index" : 0
                },
                "metallicFactor" : 0,
                "roughnessFactor" : 0.5527864098548889
            }
        }
    ],
    "meshes" : [
        {
            "name" : "Mesh.1179",
            "primitives" : [
                {
                    "attributes" : {
                        "POSITION" : 0,
                        "NORMAL" : 1,
                        "TEXCOORD_0" : 2
                    },
                    "indices" : 3,
                    "material" : 0
                }
            ]
        },
        {
            "name" : "Mesh.1181",
            "primitives" : [
                {
                    "attributes" : {
                        "POSITION" : 4,
                        "NORMAL" : 5,
                        "TEXCOORD_0" : 6
                    },
                    "indices" : 7,
                    "material" : 0
                }
            ]
        },
        {
            "name" : "Mesh.1182",
            "primitives" : [
                {
                    "attributes" : {
                        "POSITION" : 8,
                        "NORMAL" : 9,
                        "TEXCOORD_0" : 10
                    },
                    "indices" : 11,
                    "material" : 0
                }
            ]
        },
        {
            "name" : "Mesh.1184",
            "primitives" : [
                {
                    "attributes" : {
                        "POSITION" : 12,
                        "NORMAL" : 13,
                        "TEXCOORD_0" : 14
                    },
                    "indices" : 15,
                    "material" : 0
                }
            ]
        },
        {
            "name" : "Mesh.1178",
            "primitives" : [
                {
                    "attributes" : {
                        "POSITION" : 16,
                        "NORMAL" : 17,
                        "TEXCOORD_0" : 18
                    },
                    "indices" : 19,
                    "material" : 0
                }
            ]
        },
        {
            "name" : "Mesh.1180",
            "primitives" : [
                {
                    "attributes" : {
                        "POSITION" : 20,
                        "NORMAL" : 21,
                        "TEXCOORD_0" : 22
                    },
                    "indices" : 23,
                    "material" : 0
                }
            ]
        },
        {
            "name" : "Mesh.1183",
            "primitives" : [
                {
                    "attributes" : {
                        "POSITION" : 24,
                        "NORMAL" : 25,
                        "TEXCOORD_0" : 26
                    },
                    "indices" : 27,
                    "material" : 0
                }
            ]
        },
        {
            "name" : "Mesh.1175",
            "primitives" : [
                {
                    "attributes" : {
                        "POSITION" : 28,
                        "NORMAL" : 29,
                        "TEXCOORD_0" : 30
                    },
                    "indices" : 31,
                    "material" : 0
                }
            ]
        },
        {
            "name" : "Mesh.1176",
            "primitives" : [
                {
                    "attributes" : {
                        "POSITION" : 32,
                        "NORMAL" : 33,
                        "TEXCOORD_0" : 34
                    },
                    "indices" : 35,
                    "material" : 0
                }
            ]
        },
        {
            "name" : "Mesh.1177",
            "primitives" : [
                {
                    "attributes" : {
                        "POSITION" : 36,
                        "NORMAL" : 37,
                        "TEXCOORD_0" : 38
                    },
                    "indices" : 39,
                    "material" : 0
                }
            ]
        },
        {
            "name" : "Mesh.1186",
            "primitives" : [
                {
                    "attributes" : {
                        "POSITION" : 40,
                        "NORMAL" : 41,
                        "TEXCOORD_0" : 42
                    },
                    "indices" : 43,
                    "material" : 0
                }
            ]
        },
        {
            "name" : "Mesh.1185",
            "primitives" : [
                {
                    "attributes" : {
                        "POSITION" : 44,
                        "NORMAL" : 45,
                        "TEXCOORD_0" : 46
                    },
                    "indices" : 47,
                    "material" : 0
                }
            ]
        }
    ],
    "textures" : [
        {
            "sampler" : 0,
            "source" : 0
        }
    ],
    "images" : [
        {
            "bufferView" : 4,
            "mimeType" : "image/jpeg",
            "name" : "3"
        }
    ],
    "accessors" : [
        {
            "bufferView" : 0,
            "componentType" : 5126,
            "count" : 86,
            "max" : [
                -0.16541165113449097,
                0.17005693912506104,
                -0.8777443766593933
            ],
            "min" : [
                -0.5194411277770996,
                -0.04439467191696167,
                -1.106731653213501
            ],
            "type" : "VEC3"
        },
        {
            "bufferView" : 1,
            "componentType" : 5126,
            "count" : 86,
            "type" : "VEC3"
        },
        {
            "bufferView" : 2,
            "componentType" : 5126,
            "count" : 86,
            "type" : "VEC2"
        },
        {
            "bufferView" : 3,
            "componentType" : 5123,
            "count" : 168,
            "type" : "SCALAR"
        },
        {
            "bufferView" : 5,
            "componentType" : 5126,
            "count" : 86,
            "max" : [
                0.0510866641998291,
                -0.2623940110206604,
                -0.9257556796073914
            ],
            "min" : [
                -0.11595332622528076,
                -0.5525718927383423,
                -1.0880482196807861
            ],
            "type" : "VEC3"
        },
        {
            "bufferView" : 6,
            "componentType" : 5126,
            "count" : 86,
            "type" : "VEC3"
        },
        {
            "bufferView" : 7,
            "componentType" : 5126,
            "count" : 86,
            "type" : "VEC2"
        },
        {
            "bufferView" : 8,
            "componentType" : 5123,
            "count" : 168,
            "type" : "SCALAR"
        },
        {
            "bufferView" : 9,
            "componentType" : 5126,
            "count" : 86,
            "max" : [
                0.42932987213134766,
                0.38795384764671326,
                -0.8805064558982849
            ],
            "min" : [
                0.15718317031860352,
                0.06641203165054321,
                -1.0841444730758667
            ],
            "type" : "VEC3"
        },
        {
            "bufferView" : 10,
            "componentType" : 5126,
            "count" : 86,
            "type" : "VEC3"
        },
        {
            "bufferView" : 11,
            "componentType" : 5126,
            "count" : 86,
            "type" : "VEC2"
        },
        {
            "bufferView" : 12,
            "componentType" : 5123,
            "count" : 168,
            "type" : "SCALAR"
        },
        {
            "bufferView" : 13,
            "componentType" : 5126,
            "count" : 86,
            "max" : [
                0.31089043617248535,
                0.1334608793258667,
                -1.0151033401489258
            ],
            "min" : [
                0.1438504457473755,
                -0.15671700239181519,
                -1.1773959398269653
            ],
            "type" : "VEC3"
        },
        {
            "bufferView" : 14,
            "componentType" : 5126,
            "count" : 86,
            "type" : "VEC3"
        },
        {
            "bufferView" : 15,
            "componentType" : 5126,
            "count" : 86,
            "type" : "VEC2"
        },
        {
            "bufferView" : 16,
            "componentType" : 5123,
            "count" : 168,
            "type" : "SCALAR"
        },
        {
            "bufferView" : 17,
            "componentType" : 5126,
            "count" : 66,
            "max" : [
                -0.1435633897781372,
                0.10704565048217773,
                -0.6247572898864746
            ],
            "min" : [
                -0.23026180267333984,
                0.020347237586975098,
                -1.4316327571868896
            ],
            "type" : "VEC3"
        },
        {
            "bufferView" : 18,
            "componentType" : 5126,
            "count" : 66,
            "type" : "VEC3"
        },
        {
            "bufferView" : 19,
            "componentType" : 5126,
            "count" : 66,
            "type" : "VEC2"
        },
        {
            "bufferView" : 20,
            "componentType" : 5123,
            "count" : 144,
            "type" : "SCALAR"
        },
        {
            "bufferView" : 21,
            "componentType" : 5126,
            "count" : 66,
            "max" : [
                0.0013033747673034668,
                -0.2383379340171814,
                -0.6608645915985107
            ],
            "min" : [
                -0.0853949785232544,
                -0.32503634691238403,
                -1.3216536045074463
            ],
            "type" : "VEC3"
        },
        {
            "bufferView" : 22,
            "componentType" : 5126,
            "count" : 66,
            "type" : "VEC3"
        },
        {
            "bufferView" : 23,
            "componentType" : 5126,
            "count" : 66,
            "type" : "VEC2"
        },
        {
            "bufferView" : 24,
            "componentType" : 5123,
            "count" : 144,
            "type" : "SCALAR"
        },
        {
            "bufferView" : 25,
            "componentType" : 5126,
            "count" : 66,
            "max" : [
                0.261587917804718,
                0.14776962995529175,
                -0.5911921262741089
            ],
            "min" : [
                0.17488956451416016,
                0.06107127666473389,
                -1.5101004838943481
            ],
            "type" : "VEC3"
        },
        {
            "bufferView" : 26,
            "componentType" : 5126,
            "count" : 66,
            "type" : "VEC3"
        },
        {
            "bufferView" : 27,
            "componentType" : 5126,
            "count" : 66,
            "type" : "VEC2"
        },
        {
            "bufferView" : 28,
            "componentType" : 5123,
            "count" : 144,
            "type" : "SCALAR"
        },
        {
            "bufferView" : 29,
            "componentType" : 5126,
            "count" : 132,
            "max" : [
                -0.09540390968322754,
                0.1447373628616333,
                -1.3772718906402588
            ],
            "min" : [
                -0.28041255474090576,
                -0.015484809875488281,
                -1.6236536502838135
            ],
            "type" : "VEC3"
        },
        {
            "bufferView" : 30,
            "componentType" : 5126,
            "count" : 132,
            "type" : "VEC3"
        },
        {
            "bufferView" : 31,
            "componentType" : 5126,
            "count" : 132,
            "type" : "VEC2"
        },
        {
            "bufferView" : 32,
            "componentType" : 5123,
            "count" : 180,
            "type" : "SCALAR"
        },
        {
            "bufferView" : 33,
            "componentType" : 5126,
            "count" : 132,
            "max" : [
                0.02251255512237549,
                -0.22641068696975708,
                -1.2993309497833252
            ],
            "min" : [
                -0.10462570190429688,
                -0.33651572465896606,
                -1.4686448574066162
            ],
            "type" : "VEC3"
        },
        {
            "bufferView" : 34,
            "componentType" : 5126,
            "count" : 132,
            "type" : "VEC3"
        },
        {
            "bufferView" : 35,
            "componentType" : 5126,
            "count" : 132,
            "type" : "VEC2"
        },
        {
            "bufferView" : 36,
            "componentType" : 5123,
            "count" : 180,
            "type" : "SCALAR"
        },
        {
            "bufferView" : 37,
            "componentType" : 5126,
            "count" : 132,
            "max" : [
                0.2973152995109558,
                0.17292273044586182,
                -1.4654254913330078
            ],
            "min" : [
                0.1398754119873047,
                0.0365757942199707,
                -1.675093173980713
            ],
            "type" : "VEC3"
        },
        {
            "bufferView" : 38,
            "componentType" : 5126,
            "count" : 132,
            "type" : "VEC3"
        },
        {
            "bufferView" : 39,
            "componentType" : 5126,
            "count" : 132,
            "type" : "VEC2"
        },
        {
            "bufferView" : 40,
            "componentType" : 5123,
            "count" : 180,
            "type" : "SCALAR"
        },
        {
            "bufferView" : 41,
            "componentType" : 5126,
            "count" : 19,
            "max" : [
                0.7930169105529785,
                0.6867728233337402,
                0.6705350875854492
            ],
            "min" : [
                -0.7930169105529785,
                -0.686772882938385,
                -0.6288406252861023
            ],
            "type" : "VEC3"
        },
        {
            "bufferView" : 42,
            "componentType" : 5126,
            "count" : 19,
            "type" : "VEC3"
        },
        {
            "bufferView" : 43,
            "componentType" : 5126,
            "count" : 19,
            "type" : "VEC2"
        },
        {
            "bufferView" : 44,
            "componentType" : 5123,
            "count" : 66,
            "type" : "SCALAR"
        },
        {
            "bufferView" : 45,
            "componentType" : 5126,
            "count" : 139,
            "max" : [
                0.9633104801177979,
                0.8342514038085938,
                0.8147916793823242
            ],
            "min" : [
                -0.9633104801177979,
                -0.8342514634132385,
                -0.8565037250518799
            ],
            "type" : "VEC3"
        },
        {
            "bufferView" : 46,
            "componentType" : 5126,
            "count" : 139,
            "type" : "VEC3"
        },
        {
            "bufferView" : 47,
            "componentType" : 5126,
            "count" : 139,
            "type" : "VEC2"
        },
        {
            "bufferView" : 48,
            "componentType" : 5123,
            "count" : 288,
            "type" : "SCALAR"
        }
    ],
    "bufferViews" : [
        {
            "buffer" : 0,
            "byteLength" : 1032,
            "byteOffset" : 0
        },
        {
            "buffer" : 0,
            "byteLength" : 1032,
            "byteOffset" : 1032
        },
        {
            "buffer" : 0,
            "byteLength" : 688,
            "byteOffset" : 2064
        },
        {
            "buffer" : 0,
            "byteLength" : 336,
            "byteOffset" : 2752
        },
        {
            "buffer" : 0,
            "byteLength" : 93754,
            "byteOffset" : 3088
        },
        {
            "buffer" : 0,
            "byteLength" : 1032,
            "byteOffset" : 96844
        },
        {
            "buffer" : 0,
            "byteLength" : 1032,
            "byteOffset" : 97876
        },
        {
            "buffer" : 0,
            "byteLength" : 688,
            "byteOffset" : 98908
        },
        {
            "buffer" : 0,
            "byteLength" : 336,
            "byteOffset" : 99596
        },
        {
            "buffer" : 0,
            "byteLength" : 1032,
            "byteOffset" : 99932
        },
        {
            "buffer" : 0,
            "byteLength" : 1032,
            "byteOffset" : 100964
        },
        {
            "buffer" : 0,
            "byteLength" : 688,
            "byteOffset" : 101996
        },
        {
            "buffer" : 0,
            "byteLength" : 336,
            "byteOffset" : 102684
        },
        {
            "buffer" : 0,
            "byteLength" : 1032,
            "byteOffset" : 103020
        },
        {
            "buffer" : 0,
            "byteLength" : 1032,
            "byteOffset" : 104052
        },
        {
            "buffer" : 0,
            "byteLength" : 688,
            "byteOffset" : 105084
        },
        {
            "buffer" : 0,
            "byteLength" : 336,
            "byteOffset" : 105772
        },
        {
            "buffer" : 0,
            "byteLength" : 792,
            "byteOffset" : 106108
        },
        {
            "buffer" : 0,
            "byteLength" : 792,
            "byteOffset" : 106900
        },
        {
            "buffer" : 0,
            "byteLength" : 528,
            "byteOffset" : 107692
        },
        {
            "buffer" : 0,
            "byteLength" : 288,
            "byteOffset" : 108220
        },
        {
            "buffer" : 0,
            "byteLength" : 792,
            "byteOffset" : 108508
        },
        {
            "buffer" : 0,
            "byteLength" : 792,
            "byteOffset" : 109300
        },
        {
            "buffer" : 0,
            "byteLength" : 528,
            "byteOffset" : 110092
        },
        {
            "buffer" : 0,
            "byteLength" : 288,
            "byteOffset" : 110620
        },
        {
            "buffer" : 0,
            "byteLength" : 792,
            "byteOffset" : 110908
        },
        {
            "buffer" : 0,
            "byteLength" : 792,
            "byteOffset" : 111700
        },
        {
            "buffer" : 0,
            "byteLength" : 528,
            "byteOffset" : 112492
        },
        {
            "buffer" : 0,
            "byteLength" : 288,
            "byteOffset" : 113020
        },
        {
            "buffer" : 0,
            "byteLength" : 1584,
            "byteOffset" : 113308
        },
        {
            "buffer" : 0,
            "byteLength" : 1584,
            "byteOffset" : 114892
        },
        {
            "buffer" : 0,
            "byteLength" : 1056,
            "byteOffset" : 116476
        },
        {
            "buffer" : 0,
            "byteLength" : 360,
            "byteOffset" : 117532
        },
        {
            "buffer" : 0,
            "byteLength" : 1584,
            "byteOffset" : 117892
        },
        {
            "buffer" : 0,
            "byteLength" : 1584,
            "byteOffset" : 119476
        },
        {
            "buffer" : 0,
            "byteLength" : 1056,
            "byteOffset" : 121060
        },
        {
            "buffer" : 0,
            "byteLength" : 360,
            "byteOffset" : 122116
        },
        {
            "buffer" : 0,
            "byteLength" : 1584,
            "byteOffset" : 122476
        },
        {
            "buffer" : 0,
            "byteLength" : 1584,
            "byteOffset" : 124060
        },
        {
            "buffer" : 0,
            "byteLength" : 1056,
            "byteOffset" : 125644
        },
        {
            "buffer" : 0,
            "byteLength" : 360,
            "byteOffset" : 126700
        },
        {
            "buffer" : 0,
            "byteLength" : 228,
            "byteOffset" : 127060
        },
        {
            "buffer" : 0,
            "byteLength" : 228,
            "byteOffset" : 127288
        },
        {
            "buffer" : 0,
            "byteLength" : 152,
            "byteOffset" : 127516
        },
        {
            "buffer" : 0,
            "byteLength" : 132,
            "byteOffset" : 127668
        },
        {
            "buffer" : 0,
            "byteLength" : 1668,
            "byteOffset" : 127800
        },
        {
            "buffer" : 0,
            "byteLength" : 1668,
            "byteOffset" : 129468
        },
        {
            "buffer" : 0,
            "byteLength" : 1112,
            "byteOffset" : 131136
        },
        {
            "buffer" : 0,
            "byteLength" : 576,
            "byteOffset" : 132248
        }
    ],
    "samplers" : [
        {
            "magFilter" : 9729,
            "minFilter" : 9987
        }
    ],
    "buffers" : [
        {
            "byteLength" : 132824,
            "uri" : "data:application/octet-stream;base64,"
        }
    ]
}
