{
    "asset" : {
        "generator" : "Khronos glTF Blender I/O v1.8.19",
        "version" : "2.0"
    },
    "scene" : 0,
    "scenes" : [
        {
            "name" : "Scene",
            "nodes" : [
                7
            ]
        }
    ],
    "nodes" : [
        {
            "mesh" : 0,
            "name" : "pCube1"
        },
        {
            "mesh" : 1,
            "name" : "pCube2"
        },
        {
            "mesh" : 2,
            "name" : "pCube3"
        },
        {
            "mesh" : 3,
            "name" : "plant03_stage01:dirt"
        },
        {
            "mesh" : 4,
            "name" : "plant03_stage01:pot"
        },
        {
            "mesh" : 5,
            "name" : "plant03_stage01:pot1"
        },
        {
            "children" : [
                3,
                4,
                5
            ],
            "name" : "plant03_stage01:group1"
        },
        {
            "children" : [
                0,
                1,
                2,
                6
            ],
            "name" : "group1",
            "rotation" : [
                0.7071068286895752,
                0,
                0,
                0.7071067094802856
            ],
            "scale" : [
                0.009999999776482582,
                0.009999999776482582,
                0.009999999776482582
            ]
        }
    ],
    "materials" : [
        {
            "doubleSided" : true,
            "name" : "aiStandardSurface1.009",
            "pbrMetallicRoughness" : {
                "baseColorTexture" : {
                    "index" : 0
                },
                "metallicFactor" : 0,
                "roughnessFactor" : 0.5527864098548889
            }
        }
    ],
    "meshes" : [
        {
            "name" : "Mesh.759",
            "primitives" : [
                {
                    "attributes" : {
                        "POSITION" : 0,
                        "NORMAL" : 1,
                        "TEXCOORD_0" : 2
                    },
                    "indices" : 3,
                    "material" : 0
                }
            ]
        },
        {
            "name" : "Mesh.760",
            "primitives" : [
                {
                    "attributes" : {
                        "POSITION" : 4,
                        "NORMAL" : 5,
                        "TEXCOORD_0" : 6
                    },
                    "indices" : 3,
                    "material" : 0
                }
            ]
        },
        {
            "name" : "Mesh.761",
            "primitives" : [
                {
                    "attributes" : {
                        "POSITION" : 7,
                        "NORMAL" : 8,
                        "TEXCOORD_0" : 9
                    },
                    "indices" : 3,
                    "material" : 0
                }
            ]
        },
        {
            "name" : "Mesh.764",
            "primitives" : [
                {
                    "attributes" : {
                        "POSITION" : 10,
                        "NORMAL" : 11,
                        "TEXCOORD_0" : 12
                    },
                    "indices" : 13,
                    "material" : 0
                }
            ]
        },
        {
            "name" : "Mesh.762",
            "primitives" : [
                {
                    "attributes" : {
                        "POSITION" : 14,
                        "NORMAL" : 15,
                        "TEXCOORD_0" : 16
                    },
                    "indices" : 17,
                    "material" : 0
                }
            ]
        },
        {
            "name" : "Mesh.763",
            "primitives" : [
                {
                    "attributes" : {
                        "POSITION" : 18,
                        "NORMAL" : 19,
                        "TEXCOORD_0" : 20
                    },
                    "indices" : 21,
                    "material" : 0
                }
            ]
        }
    ],
    "textures" : [
        {
            "sampler" : 0,
            "source" : 0
        }
    ],
    "images" : [
        {
            "bufferView" : 4,
            "mimeType" : "image/jpeg",
            "name" : "2"
        }
    ],
    "accessors" : [
        {
            "bufferView" : 0,
            "componentType" : 5126,
            "count" : 24,
            "max" : [
                -0.6516385078430176,
                0.04422953724861145,
                -2.2315704822540283
            ],
            "min" : [
                -0.7400976419448853,
                -0.04422953724861145,
                -2.3749325275421143
            ],
            "type" : "VEC3"
        },
        {
            "bufferView" : 1,
            "componentType" : 5126,
            "count" : 24,
            "type" : "VEC3"
        },
        {
            "bufferView" : 2,
            "componentType" : 5126,
            "count" : 24,
            "type" : "VEC2"
        },
        {
            "bufferView" : 3,
            "componentType" : 5123,
            "count" : 36,
            "type" : "SCALAR"
        },
        {
            "bufferView" : 5,
            "componentType" : 5126,
            "count" : 24,
            "max" : [
                -0.5798554420471191,
                0.07712280750274658,
                -2.354222297668457
            ],
            "min" : [
                -0.8118807673454285,
                -0.07712280750274658,
                -2.497584342956543
            ],
            "type" : "VEC3"
        },
        {
            "bufferView" : 6,
            "componentType" : 5126,
            "count" : 24,
            "type" : "VEC3"
        },
        {
            "bufferView" : 7,
            "componentType" : 5126,
            "count" : 24,
            "type" : "VEC2"
        },
        {
            "bufferView" : 8,
            "componentType" : 5126,
            "count" : 24,
            "max" : [
                -0.6691012382507324,
                -0.024857282638549805,
                -2.4459028244018555
            ],
            "min" : [
                -0.8574391603469849,
                -0.17994660139083862,
                -2.5285699367523193
            ],
            "type" : "VEC3"
        },
        {
            "bufferView" : 9,
            "componentType" : 5126,
            "count" : 24,
            "type" : "VEC3"
        },
        {
            "bufferView" : 10,
            "componentType" : 5126,
            "count" : 24,
            "type" : "VEC2"
        },
        {
            "bufferView" : 11,
            "componentType" : 5126,
            "count" : 24,
            "max" : [
                0.5888522863388062,
                0.5888522863388062,
                -1.543273687362671
            ],
            "min" : [
                -1.93597412109375,
                -0.5888522863388062,
                -2.258768081665039
            ],
            "type" : "VEC3"
        },
        {
            "bufferView" : 12,
            "componentType" : 5126,
            "count" : 24,
            "type" : "VEC3"
        },
        {
            "bufferView" : 13,
            "componentType" : 5126,
            "count" : 24,
            "type" : "VEC2"
        },
        {
            "bufferView" : 14,
            "componentType" : 5123,
            "count" : 36,
            "type" : "SCALAR"
        },
        {
            "bufferView" : 15,
            "componentType" : 5126,
            "count" : 144,
            "max" : [
                0.7098127603530884,
                0.7098127603530884,
                0.05480241775512695
            ],
            "min" : [
                -2.0579121112823486,
                -0.7098127603530884,
                -1.4275362491607666
            ],
            "type" : "VEC3"
        },
        {
            "bufferView" : 16,
            "componentType" : 5126,
            "count" : 144,
            "type" : "VEC3"
        },
        {
            "bufferView" : 17,
            "componentType" : 5126,
            "count" : 144,
            "type" : "VEC2"
        },
        {
            "bufferView" : 18,
            "componentType" : 5123,
            "count" : 288,
            "type" : "SCALAR"
        },
        {
            "bufferView" : 19,
            "componentType" : 5126,
            "count" : 48,
            "max" : [
                0.7083226442337036,
                0.7083226442337036,
                -1.4202009439468384
            ],
            "min" : [
                -2.059999942779541,
                -0.7083226442337036,
                -2.420200824737549
            ],
            "type" : "VEC3"
        },
        {
            "bufferView" : 20,
            "componentType" : 5126,
            "count" : 48,
            "type" : "VEC3"
        },
        {
            "bufferView" : 21,
            "componentType" : 5126,
            "count" : 48,
            "type" : "VEC2"
        },
        {
            "bufferView" : 22,
            "componentType" : 5123,
            "count" : 84,
            "type" : "SCALAR"
        }
    ],
    "bufferViews" : [
        {
            "buffer" : 0,
            "byteLength" : 288,
            "byteOffset" : 0
        },
        {
            "buffer" : 0,
            "byteLength" : 288,
            "byteOffset" : 288
        },
        {
            "buffer" : 0,
            "byteLength" : 192,
            "byteOffset" : 576
        },
        {
            "buffer" : 0,
            "byteLength" : 72,
            "byteOffset" : 768
        },
        {
            "buffer" : 0,
            "byteLength" : 91120,
            "byteOffset" : 840
        },
        {
            "buffer" : 0,
            "byteLength" : 288,
            "byteOffset" : 91960
        },
        {
            "buffer" : 0,
            "byteLength" : 288,
            "byteOffset" : 92248
        },
        {
            "buffer" : 0,
            "byteLength" : 192,
            "byteOffset" : 92536
        },
        {
            "buffer" : 0,
            "byteLength" : 288,
            "byteOffset" : 92728
        },
        {
            "buffer" : 0,
            "byteLength" : 288,
            "byteOffset" : 93016
        },
        {
            "buffer" : 0,
            "byteLength" : 192,
            "byteOffset" : 93304
        },
        {
            "buffer" : 0,
            "byteLength" : 288,
            "byteOffset" : 93496
        },
        {
            "buffer" : 0,
            "byteLength" : 288,
            "byteOffset" : 93784
        },
        {
            "buffer" : 0,
            "byteLength" : 192,
            "byteOffset" : 94072
        },
        {
            "buffer" : 0,
            "byteLength" : 72,
            "byteOffset" : 94264
        },
        {
            "buffer" : 0,
            "byteLength" : 1728,
            "byteOffset" : 94336
        },
        {
            "buffer" : 0,
            "byteLength" : 1728,
            "byteOffset" : 96064
        },
        {
            "buffer" : 0,
            "byteLength" : 1152,
            "byteOffset" : 97792
        },
        {
            "buffer" : 0,
            "byteLength" : 576,
            "byteOffset" : 98944
        },
        {
            "buffer" : 0,
            "byteLength" : 576,
            "byteOffset" : 99520
        },
        {
            "buffer" : 0,
            "byteLength" : 576,
            "byteOffset" : 100096
        },
        {
            "buffer" : 0,
            "byteLength" : 384,
            "byteOffset" : 100672
        },
        {
            "buffer" : 0,
            "byteLength" : 168,
            "byteOffset" : 101056
        }
    ],
    "samplers" : [
        {
            "magFilter" : 9729,
            "minFilter" : 9987
        }
    ],
    "buffers" : [
        {
            "byteLength" : 101224,
            "uri" : "data:application/octet-stream;base64,"
        }
    ]
}
