{
    "asset" : {
        "generator" : "Khronos glTF Blender I/O v1.8.19",
        "version" : "2.0"
    },
    "scene" : 0,
    "scenes" : [
        {
            "name" : "Scene",
            "nodes" : [
                8,
                12
            ]
        }
    ],
    "nodes" : [
        {
            "mesh" : 0,
            "name" : "pCube3",
            "scale" : [
                0.37654319405555725,
                0.3228391408920288,
                0.28562766313552856
            ],
            "translation" : [
                -0.48988887667655945,
                0.142877995967865,
                -2.9512100219726562
            ]
        },
        {
            "mesh" : 1,
            "name" : "pCube4",
            "scale" : [
                0.2884299159049988,
                0.3228391408920288,
                0.39578482508659363
            ],
            "translation" : [
                -1.0495319366455078,
                0.07285116612911224,
                -2.848292589187622
            ]
        },
        {
            "mesh" : 2,
            "name" : "pCube5",
            "scale" : [
                0.11690697818994522,
                0.2523730993270874,
                0.1053324043750763
            ],
            "translation" : [
                -0.3954346776008606,
                -0.10171906650066376,
                -2.967344045639038
            ]
        },
        {
            "mesh" : 3,
            "name" : "plant03_stage04:pCube1",
            "scale" : [
                0.24409854412078857,
                0.24409854412078857,
                0.39560070633888245
            ],
            "translation" : [
                -0.6958680748939514,
                0,
                -2.443546772003174
            ]
        },
        {
            "mesh" : 4,
            "name" : "plant03_stage04:pCube2",
            "scale" : [
                0.6402627229690552,
                0.4256332516670227,
                0.39560070633888245
            ],
            "translation" : [
                -0.6958680748939514,
                0,
                -2.793649196624756
            ]
        },
        {
            "mesh" : 5,
            "name" : "plant03_stage04:pCube3",
            "scale" : [
                0.5197093486785889,
                0.427961528301239,
                0.22811606526374817
            ],
            "translation" : [
                -0.9124096632003784,
                -0.10240193456411362,
                -2.831312417984009
            ]
        },
        {
            "children" : [
                0,
                1,
                2,
                3,
                4,
                5
            ],
            "name" : "group1"
        },
        {
            "name" : "plant03_stage01:group1"
        },
        {
            "children" : [
                6,
                7
            ],
            "name" : "group2",
            "rotation" : [
                0.7071068286895752,
                0,
                0,
                0.7071067094802856
            ],
            "scale" : [
                0.009999999776482582,
                0.009999999776482582,
                0.009999999776482582
            ]
        },
        {
            "mesh" : 6,
            "name" : "dirt"
        },
        {
            "mesh" : 7,
            "name" : "pot"
        },
        {
            "mesh" : 8,
            "name" : "pot1"
        },
        {
            "children" : [
                9,
                10,
                11
            ],
            "name" : "group1.001",
            "rotation" : [
                0.7071068286895752,
                0,
                0,
                0.7071067094802856
            ],
            "scale" : [
                0.009999999776482582,
                0.009999999776482582,
                0.009999999776482582
            ]
        }
    ],
    "materials" : [
        {
            "doubleSided" : true,
            "name" : "lambert1",
            "pbrMetallicRoughness" : {
                "baseColorTexture" : {
                    "index" : 0
                },
                "metallicFactor" : 0,
                "roughnessFactor" : 0.5527864098548889
            }
        },
        {
            "doubleSided" : true,
            "name" : "lambert1.001",
            "pbrMetallicRoughness" : {
                "baseColorTexture" : {
                    "index" : 1
                },
                "metallicFactor" : 0,
                "roughnessFactor" : 0.5527864098548889
            }
        }
    ],
    "meshes" : [
        {
            "name" : "Mesh.003",
            "primitives" : [
                {
                    "attributes" : {
                        "POSITION" : 0,
                        "NORMAL" : 1,
                        "TEXCOORD_0" : 2
                    },
                    "indices" : 3,
                    "material" : 0
                }
            ]
        },
        {
            "name" : "Mesh.004",
            "primitives" : [
                {
                    "attributes" : {
                        "POSITION" : 4,
                        "NORMAL" : 5,
                        "TEXCOORD_0" : 6
                    },
                    "indices" : 3,
                    "material" : 0
                }
            ]
        },
        {
            "name" : "Mesh.005",
            "primitives" : [
                {
                    "attributes" : {
                        "POSITION" : 7,
                        "NORMAL" : 8,
                        "TEXCOORD_0" : 9
                    },
                    "indices" : 3,
                    "material" : 0
                }
            ]
        },
        {
            "name" : "Mesh",
            "primitives" : [
                {
                    "attributes" : {
                        "POSITION" : 10,
                        "NORMAL" : 11,
                        "TEXCOORD_0" : 12
                    },
                    "indices" : 3,
                    "material" : 0
                }
            ]
        },
        {
            "name" : "Mesh.001",
            "primitives" : [
                {
                    "attributes" : {
                        "POSITION" : 13,
                        "NORMAL" : 14,
                        "TEXCOORD_0" : 15
                    },
                    "indices" : 3,
                    "material" : 0
                }
            ]
        },
        {
            "name" : "Mesh.002",
            "primitives" : [
                {
                    "attributes" : {
                        "POSITION" : 16,
                        "NORMAL" : 17,
                        "TEXCOORD_0" : 18
                    },
                    "indices" : 3,
                    "material" : 0
                }
            ]
        },
        {
            "name" : "Mesh.011",
            "primitives" : [
                {
                    "attributes" : {
                        "POSITION" : 19,
                        "NORMAL" : 20,
                        "TEXCOORD_0" : 21
                    },
                    "indices" : 22,
                    "material" : 1
                }
            ]
        },
        {
            "name" : "Mesh.009",
            "primitives" : [
                {
                    "attributes" : {
                        "POSITION" : 23,
                        "NORMAL" : 24,
                        "TEXCOORD_0" : 25
                    },
                    "indices" : 26,
                    "material" : 1
                }
            ]
        },
        {
            "name" : "Mesh.010",
            "primitives" : [
                {
                    "attributes" : {
                        "POSITION" : 27,
                        "NORMAL" : 28,
                        "TEXCOORD_0" : 29
                    },
                    "indices" : 30,
                    "material" : 1
                }
            ]
        }
    ],
    "textures" : [
        {
            "sampler" : 0,
            "source" : 0
        },
        {
            "sampler" : 0,
            "source" : 1
        }
    ],
    "images" : [
        {
            "bufferView" : 4,
            "mimeType" : "image/jpeg",
            "name" : "33"
        },
        {
            "bufferView" : 24,
            "mimeType" : "image/jpeg",
            "name" : "1"
        }
    ],
    "accessors" : [
        {
            "bufferView" : 0,
            "componentType" : 5126,
            "count" : 24,
            "max" : [
                0.5,
                0.5,
                0.5
            ],
            "min" : [
                -0.5,
                -0.5,
                -0.5
            ],
            "type" : "VEC3"
        },
        {
            "bufferView" : 1,
            "componentType" : 5126,
            "count" : 24,
            "type" : "VEC3"
        },
        {
            "bufferView" : 2,
            "componentType" : 5126,
            "count" : 24,
            "type" : "VEC2"
        },
        {
            "bufferView" : 3,
            "componentType" : 5123,
            "count" : 36,
            "type" : "SCALAR"
        },
        {
            "bufferView" : 5,
            "componentType" : 5126,
            "count" : 24,
            "max" : [
                0.5,
                0.5,
                0.5
            ],
            "min" : [
                -0.5,
                -0.5,
                -0.5
            ],
            "type" : "VEC3"
        },
        {
            "bufferView" : 6,
            "componentType" : 5126,
            "count" : 24,
            "type" : "VEC3"
        },
        {
            "bufferView" : 7,
            "componentType" : 5126,
            "count" : 24,
            "type" : "VEC2"
        },
        {
            "bufferView" : 8,
            "componentType" : 5126,
            "count" : 24,
            "max" : [
                0.5,
                0.5,
                0.5
            ],
            "min" : [
                -0.5,
                -0.5,
                -0.5
            ],
            "type" : "VEC3"
        },
        {
            "bufferView" : 9,
            "componentType" : 5126,
            "count" : 24,
            "type" : "VEC3"
        },
        {
            "bufferView" : 10,
            "componentType" : 5126,
            "count" : 24,
            "type" : "VEC2"
        },
        {
            "bufferView" : 11,
            "componentType" : 5126,
            "count" : 24,
            "max" : [
                0.5,
                0.5,
                0.5
            ],
            "min" : [
                -0.5,
                -0.5,
                -0.5
            ],
            "type" : "VEC3"
        },
        {
            "bufferView" : 12,
            "componentType" : 5126,
            "count" : 24,
            "type" : "VEC3"
        },
        {
            "bufferView" : 13,
            "componentType" : 5126,
            "count" : 24,
            "type" : "VEC2"
        },
        {
            "bufferView" : 14,
            "componentType" : 5126,
            "count" : 24,
            "max" : [
                0.5,
                0.5,
                0.5
            ],
            "min" : [
                -0.5,
                -0.5,
                -0.5
            ],
            "type" : "VEC3"
        },
        {
            "bufferView" : 15,
            "componentType" : 5126,
            "count" : 24,
            "type" : "VEC3"
        },
        {
            "bufferView" : 16,
            "componentType" : 5126,
            "count" : 24,
            "type" : "VEC2"
        },
        {
            "bufferView" : 17,
            "componentType" : 5126,
            "count" : 24,
            "max" : [
                0.5,
                0.5,
                0.5
            ],
            "min" : [
                -0.5,
                -0.5,
                -0.5
            ],
            "type" : "VEC3"
        },
        {
            "bufferView" : 18,
            "componentType" : 5126,
            "count" : 24,
            "type" : "VEC3"
        },
        {
            "bufferView" : 19,
            "componentType" : 5126,
            "count" : 24,
            "type" : "VEC2"
        },
        {
            "bufferView" : 20,
            "componentType" : 5126,
            "count" : 24,
            "max" : [
                0.5888522863388062,
                0.5888522863388062,
                -1.543273687362671
            ],
            "min" : [
                -1.93597412109375,
                -0.5888522863388062,
                -2.258768081665039
            ],
            "type" : "VEC3"
        },
        {
            "bufferView" : 21,
            "componentType" : 5126,
            "count" : 24,
            "type" : "VEC3"
        },
        {
            "bufferView" : 22,
            "componentType" : 5126,
            "count" : 24,
            "type" : "VEC2"
        },
        {
            "bufferView" : 23,
            "componentType" : 5123,
            "count" : 36,
            "type" : "SCALAR"
        },
        {
            "bufferView" : 25,
            "componentType" : 5126,
            "count" : 144,
            "max" : [
                0.7098127603530884,
                0.7098127603530884,
                0.05480241775512695
            ],
            "min" : [
                -2.0579121112823486,
                -0.7098127603530884,
                -1.4275362491607666
            ],
            "type" : "VEC3"
        },
        {
            "bufferView" : 26,
            "componentType" : 5126,
            "count" : 144,
            "type" : "VEC3"
        },
        {
            "bufferView" : 27,
            "componentType" : 5126,
            "count" : 144,
            "type" : "VEC2"
        },
        {
            "bufferView" : 28,
            "componentType" : 5123,
            "count" : 288,
            "type" : "SCALAR"
        },
        {
            "bufferView" : 29,
            "componentType" : 5126,
            "count" : 48,
            "max" : [
                0.7083226442337036,
                0.7083226442337036,
                -1.4202009439468384
            ],
            "min" : [
                -2.059999942779541,
                -0.7083226442337036,
                -2.420200824737549
            ],
            "type" : "VEC3"
        },
        {
            "bufferView" : 30,
            "componentType" : 5126,
            "count" : 48,
            "type" : "VEC3"
        },
        {
            "bufferView" : 31,
            "componentType" : 5126,
            "count" : 48,
            "type" : "VEC2"
        },
        {
            "bufferView" : 32,
            "componentType" : 5123,
            "count" : 84,
            "type" : "SCALAR"
        }
    ],
    "bufferViews" : [
        {
            "buffer" : 0,
            "byteLength" : 288,
            "byteOffset" : 0
        },
        {
            "buffer" : 0,
            "byteLength" : 288,
            "byteOffset" : 288
        },
        {
            "buffer" : 0,
            "byteLength" : 192,
            "byteOffset" : 576
        },
        {
            "buffer" : 0,
            "byteLength" : 72,
            "byteOffset" : 768
        },
        {
            "buffer" : 0,
            "byteLength" : 86884,
            "byteOffset" : 840
        },
        {
            "buffer" : 0,
            "byteLength" : 288,
            "byteOffset" : 87724
        },
        {
            "buffer" : 0,
            "byteLength" : 288,
            "byteOffset" : 88012
        },
        {
            "buffer" : 0,
            "byteLength" : 192,
            "byteOffset" : 88300
        },
        {
            "buffer" : 0,
            "byteLength" : 288,
            "byteOffset" : 88492
        },
        {
            "buffer" : 0,
            "byteLength" : 288,
            "byteOffset" : 88780
        },
        {
            "buffer" : 0,
            "byteLength" : 192,
            "byteOffset" : 89068
        },
        {
            "buffer" : 0,
            "byteLength" : 288,
            "byteOffset" : 89260
        },
        {
            "buffer" : 0,
            "byteLength" : 288,
            "byteOffset" : 89548
        },
        {
            "buffer" : 0,
            "byteLength" : 192,
            "byteOffset" : 89836
        },
        {
            "buffer" : 0,
            "byteLength" : 288,
            "byteOffset" : 90028
        },
        {
            "buffer" : 0,
            "byteLength" : 288,
            "byteOffset" : 90316
        },
        {
            "buffer" : 0,
            "byteLength" : 192,
            "byteOffset" : 90604
        },
        {
            "buffer" : 0,
            "byteLength" : 288,
            "byteOffset" : 90796
        },
        {
            "buffer" : 0,
            "byteLength" : 288,
            "byteOffset" : 91084
        },
        {
            "buffer" : 0,
            "byteLength" : 192,
            "byteOffset" : 91372
        },
        {
            "buffer" : 0,
            "byteLength" : 288,
            "byteOffset" : 91564
        },
        {
            "buffer" : 0,
            "byteLength" : 288,
            "byteOffset" : 91852
        },
        {
            "buffer" : 0,
            "byteLength" : 192,
            "byteOffset" : 92140
        },
        {
            "buffer" : 0,
            "byteLength" : 72,
            "byteOffset" : 92332
        },
        {
            "buffer" : 0,
            "byteLength" : 80858,
            "byteOffset" : 92404
        },
        {
            "buffer" : 0,
            "byteLength" : 1728,
            "byteOffset" : 173264
        },
        {
            "buffer" : 0,
            "byteLength" : 1728,
            "byteOffset" : 174992
        },
        {
            "buffer" : 0,
            "byteLength" : 1152,
            "byteOffset" : 176720
        },
        {
            "buffer" : 0,
            "byteLength" : 576,
            "byteOffset" : 177872
        },
        {
            "buffer" : 0,
            "byteLength" : 576,
            "byteOffset" : 178448
        },
        {
            "buffer" : 0,
            "byteLength" : 576,
            "byteOffset" : 179024
        },
        {
            "buffer" : 0,
            "byteLength" : 384,
            "byteOffset" : 179600
        },
        {
            "buffer" : 0,
            "byteLength" : 168,
            "byteOffset" : 179984
        }
    ],
    "samplers" : [
        {
            "magFilter" : 9729,
            "minFilter" : 9987
        }
    ],
    "buffers" : [
        {
            "byteLength" : 180152,
            "uri" : "data:application/octet-stream;base64,"
        }
    ]
}
