{
    "asset" : {
        "generator" : "Khronos glTF Blender I/O v1.8.19",
        "version" : "2.0"
    },
    "scene" : 0,
    "scenes" : [
        {
            "name" : "Scene",
            "nodes" : [
                6
            ]
        }
    ],
    "nodes" : [
        {
            "mesh" : 0,
            "name" : "EXTRA"
        },
        {
            "mesh" : 1,
            "name" : "EXTRA1"
        },
        {
            "mesh" : 2,
            "name" : "pCone1"
        },
        {
            "mesh" : 3,
            "name" : "pCylinder1"
        },
        {
            "mesh" : 4,
            "name" : "plant02_stage01:dirt"
        },
        {
            "mesh" : 5,
            "name" : "plant02_stage01:pot"
        },
        {
            "children" : [
                0,
                1,
                2,
                3,
                4,
                5
            ],
            "name" : "group1",
            "rotation" : [
                0.7071068286895752,
                0,
                0,
                0.7071067094802856
            ],
            "scale" : [
                0.009999999776482582,
                0.009999999776482582,
                0.009999999776482582
            ]
        }
    ],
    "materials" : [
        {
            "doubleSided" : true,
            "name" : "lambert1.009",
            "pbrMetallicRoughness" : {
                "baseColorTexture" : {
                    "index" : 0
                },
                "metallicFactor" : 0,
                "roughnessFactor" : 0.5527864098548889
            }
        }
    ],
    "meshes" : [
        {
            "name" : "Mesh.709",
            "primitives" : [
                {
                    "attributes" : {
                        "POSITION" : 0,
                        "NORMAL" : 1,
                        "TEXCOORD_0" : 2
                    },
                    "indices" : 3,
                    "material" : 0
                }
            ]
        },
        {
            "name" : "Mesh.710",
            "primitives" : [
                {
                    "attributes" : {
                        "POSITION" : 4,
                        "NORMAL" : 5,
                        "TEXCOORD_0" : 6
                    },
                    "indices" : 7,
                    "material" : 0
                }
            ]
        },
        {
            "name" : "Mesh.707",
            "primitives" : [
                {
                    "attributes" : {
                        "POSITION" : 8,
                        "NORMAL" : 9,
                        "TEXCOORD_0" : 10
                    },
                    "indices" : 11,
                    "material" : 0
                }
            ]
        },
        {
            "name" : "Mesh.708",
            "primitives" : [
                {
                    "attributes" : {
                        "POSITION" : 12,
                        "NORMAL" : 13,
                        "TEXCOORD_0" : 14
                    },
                    "indices" : 15,
                    "material" : 0
                }
            ]
        },
        {
            "name" : "Mesh.712",
            "primitives" : [
                {
                    "attributes" : {
                        "POSITION" : 16,
                        "NORMAL" : 17,
                        "TEXCOORD_0" : 18
                    },
                    "indices" : 19,
                    "material" : 0
                }
            ]
        },
        {
            "name" : "Mesh.711",
            "primitives" : [
                {
                    "attributes" : {
                        "POSITION" : 20,
                        "NORMAL" : 21,
                        "TEXCOORD_0" : 22
                    },
                    "indices" : 23,
                    "material" : 0
                }
            ]
        }
    ],
    "textures" : [
        {
            "sampler" : 0,
            "source" : 0
        }
    ],
    "images" : [
        {
            "bufferView" : 4,
            "mimeType" : "image/jpeg",
            "name" : "4"
        }
    ],
    "accessors" : [
        {
            "bufferView" : 0,
            "componentType" : 5126,
            "count" : 102,
            "max" : [
                0.37630271911621094,
                0.8778887987136841,
                -0.559544563293457
            ],
            "min" : [
                -0.15966790914535522,
                0.32165563106536865,
                -1.1868137121200562
            ],
            "type" : "VEC3"
        },
        {
            "bufferView" : 1,
            "componentType" : 5126,
            "count" : 102,
            "type" : "VEC3"
        },
        {
            "bufferView" : 2,
            "componentType" : 5126,
            "count" : 102,
            "type" : "VEC2"
        },
        {
            "bufferView" : 3,
            "componentType" : 5123,
            "count" : 240,
            "type" : "SCALAR"
        },
        {
            "bufferView" : 5,
            "componentType" : 5126,
            "count" : 102,
            "max" : [
                0.9577792882919312,
                0.22556543350219727,
                -0.559544563293457
            ],
            "min" : [
                0.40440723299980164,
                -0.3165637254714966,
                -1.1868137121200562
            ],
            "type" : "VEC3"
        },
        {
            "bufferView" : 6,
            "componentType" : 5126,
            "count" : 102,
            "type" : "VEC3"
        },
        {
            "bufferView" : 7,
            "componentType" : 5126,
            "count" : 102,
            "type" : "VEC2"
        },
        {
            "bufferView" : 8,
            "componentType" : 5123,
            "count" : 240,
            "type" : "SCALAR"
        },
        {
            "bufferView" : 9,
            "componentType" : 5126,
            "count" : 41,
            "max" : [
                0.05281698703765869,
                -0.012754201889038086,
                -1.9010095596313477
            ],
            "min" : [
                -0.2288520336151123,
                -0.2806375026702881,
                -2.0219836235046387
            ],
            "type" : "VEC3"
        },
        {
            "bufferView" : 10,
            "componentType" : 5126,
            "count" : 41,
            "type" : "VEC3"
        },
        {
            "bufferView" : 11,
            "componentType" : 5126,
            "count" : 41,
            "type" : "VEC2"
        },
        {
            "bufferView" : 12,
            "componentType" : 5123,
            "count" : 60,
            "type" : "SCALAR"
        },
        {
            "bufferView" : 13,
            "componentType" : 5126,
            "count" : 102,
            "max" : [
                0.4834803342819214,
                0.5188320875167847,
                -0.432389497756958
            ],
            "min" : [
                -0.7877949476242065,
                -0.830683708190918,
                -1.9480414390563965
            ],
            "type" : "VEC3"
        },
        {
            "bufferView" : 14,
            "componentType" : 5126,
            "count" : 102,
            "type" : "VEC3"
        },
        {
            "bufferView" : 15,
            "componentType" : 5126,
            "count" : 102,
            "type" : "VEC2"
        },
        {
            "bufferView" : 16,
            "componentType" : 5123,
            "count" : 240,
            "type" : "SCALAR"
        },
        {
            "bufferView" : 17,
            "componentType" : 5126,
            "count" : 24,
            "max" : [
                0.8407630920410156,
                0.8731000423431396,
                -0.1170772910118103
            ],
            "min" : [
                -0.8407630920410156,
                -0.8731000423431396,
                -0.6293503046035767
            ],
            "type" : "VEC3"
        },
        {
            "bufferView" : 18,
            "componentType" : 5126,
            "count" : 24,
            "type" : "VEC3"
        },
        {
            "bufferView" : 19,
            "componentType" : 5126,
            "count" : 24,
            "type" : "VEC2"
        },
        {
            "bufferView" : 20,
            "componentType" : 5123,
            "count" : 36,
            "type" : "SCALAR"
        },
        {
            "bufferView" : 21,
            "componentType" : 5126,
            "count" : 72,
            "max" : [
                0.9380235075950623,
                0.9380235075950623,
                -0.0363844633102417
            ],
            "min" : [
                -0.9380235075950623,
                -0.9380235075950623,
                -0.7236155271530151
            ],
            "type" : "VEC3"
        },
        {
            "bufferView" : 22,
            "componentType" : 5126,
            "count" : 72,
            "type" : "VEC3"
        },
        {
            "bufferView" : 23,
            "componentType" : 5126,
            "count" : 72,
            "type" : "VEC2"
        },
        {
            "bufferView" : 24,
            "componentType" : 5123,
            "count" : 132,
            "type" : "SCALAR"
        }
    ],
    "bufferViews" : [
        {
            "buffer" : 0,
            "byteLength" : 1224,
            "byteOffset" : 0
        },
        {
            "buffer" : 0,
            "byteLength" : 1224,
            "byteOffset" : 1224
        },
        {
            "buffer" : 0,
            "byteLength" : 816,
            "byteOffset" : 2448
        },
        {
            "buffer" : 0,
            "byteLength" : 480,
            "byteOffset" : 3264
        },
        {
            "buffer" : 0,
            "byteLength" : 77367,
            "byteOffset" : 3744
        },
        {
            "buffer" : 0,
            "byteLength" : 1224,
            "byteOffset" : 81112
        },
        {
            "buffer" : 0,
            "byteLength" : 1224,
            "byteOffset" : 82336
        },
        {
            "buffer" : 0,
            "byteLength" : 816,
            "byteOffset" : 83560
        },
        {
            "buffer" : 0,
            "byteLength" : 480,
            "byteOffset" : 84376
        },
        {
            "buffer" : 0,
            "byteLength" : 492,
            "byteOffset" : 84856
        },
        {
            "buffer" : 0,
            "byteLength" : 492,
            "byteOffset" : 85348
        },
        {
            "buffer" : 0,
            "byteLength" : 328,
            "byteOffset" : 85840
        },
        {
            "buffer" : 0,
            "byteLength" : 120,
            "byteOffset" : 86168
        },
        {
            "buffer" : 0,
            "byteLength" : 1224,
            "byteOffset" : 86288
        },
        {
            "buffer" : 0,
            "byteLength" : 1224,
            "byteOffset" : 87512
        },
        {
            "buffer" : 0,
            "byteLength" : 816,
            "byteOffset" : 88736
        },
        {
            "buffer" : 0,
            "byteLength" : 480,
            "byteOffset" : 89552
        },
        {
            "buffer" : 0,
            "byteLength" : 288,
            "byteOffset" : 90032
        },
        {
            "buffer" : 0,
            "byteLength" : 288,
            "byteOffset" : 90320
        },
        {
            "buffer" : 0,
            "byteLength" : 192,
            "byteOffset" : 90608
        },
        {
            "buffer" : 0,
            "byteLength" : 72,
            "byteOffset" : 90800
        },
        {
            "buffer" : 0,
            "byteLength" : 864,
            "byteOffset" : 90872
        },
        {
            "buffer" : 0,
            "byteLength" : 864,
            "byteOffset" : 91736
        },
        {
            "buffer" : 0,
            "byteLength" : 576,
            "byteOffset" : 92600
        },
        {
            "buffer" : 0,
            "byteLength" : 264,
            "byteOffset" : 93176
        }
    ],
    "samplers" : [
        {
            "magFilter" : 9729,
            "minFilter" : 9987
        }
    ],
    "buffers" : [
        {
            "byteLength" : 93440,
            "uri" : "data:application/octet-stream;base64,"
        }
    ]
}
