{
    "asset" : {
        "generator" : "Khronos glTF Blender I/O v1.8.19",
        "version" : "2.0"
    },
    "scene" : 0,
    "scenes" : [
        {
            "name" : "Scene",
            "nodes" : [
                6
            ]
        }
    ],
    "nodes" : [
        {
            "mesh" : 0,
            "name" : "pCone1"
        },
        {
            "mesh" : 1,
            "name" : "pCylinder1"
        },
        {
            "mesh" : 2,
            "name" : "pCylinder2"
        },
        {
            "mesh" : 3,
            "name" : "plant02_stage01:dirt",
            "translation" : [
                0,
                0,
                -0.3799999952316284
            ]
        },
        {
            "mesh" : 4,
            "name" : "plant02_stage01:pot",
            "translation" : [
                0,
                0,
                -0.3799999952316284
            ]
        },
        {
            "mesh" : 5,
            "name" : "plant02_stage02:pCylinder1"
        },
        {
            "children" : [
                0,
                1,
                2,
                3,
                4,
                5
            ],
            "name" : "group1",
            "rotation" : [
                0.7071068286895752,
                0,
                0,
                0.7071067094802856
            ],
            "scale" : [
                0.009999999776482582,
                0.009999999776482582,
                0.009999999776482582
            ]
        }
    ],
    "materials" : [
        {
            "doubleSided" : true,
            "name" : "aiStandardSurface1.007",
            "pbrMetallicRoughness" : {
                "baseColorTexture" : {
                    "index" : 0
                },
                "metallicFactor" : 0,
                "roughnessFactor" : 0.5527864098548889
            }
        },
        {
            "doubleSided" : true,
            "name" : "lambert1.008",
            "pbrMetallicRoughness" : {
                "baseColorTexture" : {
                    "index" : 1
                },
                "metallicFactor" : 0,
                "roughnessFactor" : 0.5527864098548889
            }
        }
    ],
    "meshes" : [
        {
            "name" : "Mesh.702",
            "primitives" : [
                {
                    "attributes" : {
                        "POSITION" : 0,
                        "NORMAL" : 1,
                        "TEXCOORD_0" : 2
                    },
                    "indices" : 3,
                    "material" : 0
                }
            ]
        },
        {
            "name" : "Mesh.701",
            "primitives" : [
                {
                    "attributes" : {
                        "POSITION" : 4,
                        "NORMAL" : 5,
                        "TEXCOORD_0" : 6
                    },
                    "indices" : 7,
                    "material" : 0
                }
            ]
        },
        {
            "name" : "Mesh.704",
            "primitives" : [
                {
                    "attributes" : {
                        "POSITION" : 8,
                        "NORMAL" : 9,
                        "TEXCOORD_0" : 10
                    },
                    "indices" : 11,
                    "material" : 0
                }
            ]
        },
        {
            "name" : "Mesh.706",
            "primitives" : [
                {
                    "attributes" : {
                        "POSITION" : 12,
                        "NORMAL" : 13,
                        "TEXCOORD_0" : 14
                    },
                    "indices" : 15,
                    "material" : 1
                }
            ]
        },
        {
            "name" : "Mesh.705",
            "primitives" : [
                {
                    "attributes" : {
                        "POSITION" : 16,
                        "NORMAL" : 17,
                        "TEXCOORD_0" : 18
                    },
                    "indices" : 19,
                    "material" : 1
                }
            ]
        },
        {
            "name" : "Mesh.703",
            "primitives" : [
                {
                    "attributes" : {
                        "POSITION" : 20,
                        "NORMAL" : 21,
                        "TEXCOORD_0" : 22
                    },
                    "indices" : 11,
                    "material" : 0
                }
            ]
        }
    ],
    "textures" : [
        {
            "sampler" : 0,
            "source" : 0
        },
        {
            "sampler" : 0,
            "source" : 0
        }
    ],
    "images" : [
        {
            "bufferView" : 4,
            "mimeType" : "image/jpeg",
            "name" : "4"
        }
    ],
    "accessors" : [
        {
            "bufferView" : 0,
            "componentType" : 5126,
            "count" : 44,
            "max" : [
                0.046665310859680176,
                0.04438132047653198,
                -1.4123625755310059
            ],
            "min" : [
                -0.046665310859680176,
                -0.04438132047653198,
                -1.505692958831787
            ],
            "type" : "VEC3"
        },
        {
            "bufferView" : 1,
            "componentType" : 5126,
            "count" : 44,
            "type" : "VEC3"
        },
        {
            "bufferView" : 2,
            "componentType" : 5126,
            "count" : 44,
            "type" : "VEC2"
        },
        {
            "bufferView" : 3,
            "componentType" : 5123,
            "count" : 60,
            "type" : "SCALAR"
        },
        {
            "bufferView" : 5,
            "componentType" : 5126,
            "count" : 102,
            "max" : [
                0.3425986170768738,
                0.39896726608276367,
                -0.5190274715423584
            ],
            "min" : [
                -0.4194990396499634,
                -0.41003358364105225,
                -1.4276227951049805
            ],
            "type" : "VEC3"
        },
        {
            "bufferView" : 6,
            "componentType" : 5126,
            "count" : 102,
            "type" : "VEC3"
        },
        {
            "bufferView" : 7,
            "componentType" : 5126,
            "count" : 102,
            "type" : "VEC2"
        },
        {
            "bufferView" : 8,
            "componentType" : 5123,
            "count" : 240,
            "type" : "SCALAR"
        },
        {
            "bufferView" : 9,
            "componentType" : 5126,
            "count" : 102,
            "max" : [
                0.6431462168693542,
                0.19825801253318787,
                -0.5872766971588135
            ],
            "min" : [
                0.3192178010940552,
                -0.12144839763641357,
                -0.9641613364219666
            ],
            "type" : "VEC3"
        },
        {
            "bufferView" : 10,
            "componentType" : 5126,
            "count" : 102,
            "type" : "VEC3"
        },
        {
            "bufferView" : 11,
            "componentType" : 5126,
            "count" : 102,
            "type" : "VEC2"
        },
        {
            "bufferView" : 12,
            "componentType" : 5123,
            "count" : 240,
            "type" : "SCALAR"
        },
        {
            "bufferView" : 13,
            "componentType" : 5126,
            "count" : 24,
            "max" : [
                0.8407630920410156,
                0.8731000423431396,
                0.2629227042198181
            ],
            "min" : [
                -0.8407630920410156,
                -0.8731000423431396,
                -0.24935030937194824
            ],
            "type" : "VEC3"
        },
        {
            "bufferView" : 14,
            "componentType" : 5126,
            "count" : 24,
            "type" : "VEC3"
        },
        {
            "bufferView" : 15,
            "componentType" : 5126,
            "count" : 24,
            "type" : "VEC2"
        },
        {
            "bufferView" : 16,
            "componentType" : 5123,
            "count" : 36,
            "type" : "SCALAR"
        },
        {
            "bufferView" : 17,
            "componentType" : 5126,
            "count" : 72,
            "max" : [
                0.9380235075950623,
                0.9380235075950623,
                0.3436155319213867
            ],
            "min" : [
                -0.9380235075950623,
                -0.9380235075950623,
                -0.3436155319213867
            ],
            "type" : "VEC3"
        },
        {
            "bufferView" : 18,
            "componentType" : 5126,
            "count" : 72,
            "type" : "VEC3"
        },
        {
            "bufferView" : 19,
            "componentType" : 5126,
            "count" : 72,
            "type" : "VEC2"
        },
        {
            "bufferView" : 20,
            "componentType" : 5123,
            "count" : 132,
            "type" : "SCALAR"
        },
        {
            "bufferView" : 21,
            "componentType" : 5126,
            "count" : 102,
            "max" : [
                0.1696891188621521,
                0.6474352478981018,
                -0.5872766971588135
            ],
            "min" : [
                -0.1542392373085022,
                0.32772886753082275,
                -0.9641613364219666
            ],
            "type" : "VEC3"
        },
        {
            "bufferView" : 22,
            "componentType" : 5126,
            "count" : 102,
            "type" : "VEC3"
        },
        {
            "bufferView" : 23,
            "componentType" : 5126,
            "count" : 102,
            "type" : "VEC2"
        }
    ],
    "bufferViews" : [
        {
            "buffer" : 0,
            "byteLength" : 528,
            "byteOffset" : 0
        },
        {
            "buffer" : 0,
            "byteLength" : 528,
            "byteOffset" : 528
        },
        {
            "buffer" : 0,
            "byteLength" : 352,
            "byteOffset" : 1056
        },
        {
            "buffer" : 0,
            "byteLength" : 120,
            "byteOffset" : 1408
        },
        {
            "buffer" : 0,
            "byteLength" : 77367,
            "byteOffset" : 1528
        },
        {
            "buffer" : 0,
            "byteLength" : 1224,
            "byteOffset" : 78896
        },
        {
            "buffer" : 0,
            "byteLength" : 1224,
            "byteOffset" : 80120
        },
        {
            "buffer" : 0,
            "byteLength" : 816,
            "byteOffset" : 81344
        },
        {
            "buffer" : 0,
            "byteLength" : 480,
            "byteOffset" : 82160
        },
        {
            "buffer" : 0,
            "byteLength" : 1224,
            "byteOffset" : 82640
        },
        {
            "buffer" : 0,
            "byteLength" : 1224,
            "byteOffset" : 83864
        },
        {
            "buffer" : 0,
            "byteLength" : 816,
            "byteOffset" : 85088
        },
        {
            "buffer" : 0,
            "byteLength" : 480,
            "byteOffset" : 85904
        },
        {
            "buffer" : 0,
            "byteLength" : 288,
            "byteOffset" : 86384
        },
        {
            "buffer" : 0,
            "byteLength" : 288,
            "byteOffset" : 86672
        },
        {
            "buffer" : 0,
            "byteLength" : 192,
            "byteOffset" : 86960
        },
        {
            "buffer" : 0,
            "byteLength" : 72,
            "byteOffset" : 87152
        },
        {
            "buffer" : 0,
            "byteLength" : 864,
            "byteOffset" : 87224
        },
        {
            "buffer" : 0,
            "byteLength" : 864,
            "byteOffset" : 88088
        },
        {
            "buffer" : 0,
            "byteLength" : 576,
            "byteOffset" : 88952
        },
        {
            "buffer" : 0,
            "byteLength" : 264,
            "byteOffset" : 89528
        },
        {
            "buffer" : 0,
            "byteLength" : 1224,
            "byteOffset" : 89792
        },
        {
            "buffer" : 0,
            "byteLength" : 1224,
            "byteOffset" : 91016
        },
        {
            "buffer" : 0,
            "byteLength" : 816,
            "byteOffset" : 92240
        }
    ],
    "samplers" : [
        {
            "magFilter" : 9729,
            "minFilter" : 9987
        }
    ],
    "buffers" : [
        {
            "byteLength" : 93056,
            "uri" : "data:application/octet-stream;base64,"
        }
    ]
}
