{
    "asset" : {
        "generator" : "Khronos glTF Blender I/O v1.8.19",
        "version" : "2.0"
    },
    "scene" : 0,
    "scenes" : [
        {
            "name" : "Scene",
            "nodes" : [
                3
            ]
        }
    ],
    "nodes" : [
        {
            "mesh" : 0,
            "name" : "pCylinder1",
            "scale" : [
                0.28961047530174255,
                0.28961047530174255,
                0.22659559547901154
            ],
            "translation" : [
                0,
                0,
                -0.9040223956108093
            ]
        },
        {
            "mesh" : 1,
            "name" : "plant02_stage01:dirt",
            "translation" : [
                0,
                0,
                -0.3799999952316284
            ]
        },
        {
            "mesh" : 2,
            "name" : "plant02_stage01:pot",
            "translation" : [
                0,
                0,
                -0.3799999952316284
            ]
        },
        {
            "children" : [
                0,
                1,
                2
            ],
            "name" : "group1",
            "rotation" : [
                0.7071068286895752,
                0,
                0,
                0.7071067094802856
            ],
            "scale" : [
                0.009999999776482582,
                0.009999999776482582,
                0.009999999776482582
            ]
        }
    ],
    "materials" : [
        {
            "doubleSided" : true,
            "name" : "lambert1.007",
            "pbrMetallicRoughness" : {
                "baseColorTexture" : {
                    "index" : 0
                },
                "metallicFactor" : 0,
                "roughnessFactor" : 0.5527864098548889
            }
        }
    ],
    "meshes" : [
        {
            "name" : "Mesh.698",
            "primitives" : [
                {
                    "attributes" : {
                        "POSITION" : 0,
                        "NORMAL" : 1,
                        "TEXCOORD_0" : 2
                    },
                    "indices" : 3,
                    "material" : 0
                }
            ]
        },
        {
            "name" : "Mesh.700",
            "primitives" : [
                {
                    "attributes" : {
                        "POSITION" : 4,
                        "NORMAL" : 5,
                        "TEXCOORD_0" : 6
                    },
                    "indices" : 7,
                    "material" : 0
                }
            ]
        },
        {
            "name" : "Mesh.699",
            "primitives" : [
                {
                    "attributes" : {
                        "POSITION" : 8,
                        "NORMAL" : 9,
                        "TEXCOORD_0" : 10
                    },
                    "indices" : 11,
                    "material" : 0
                }
            ]
        }
    ],
    "textures" : [
        {
            "sampler" : 0,
            "source" : 0
        }
    ],
    "images" : [
        {
            "bufferView" : 4,
            "mimeType" : "image/jpeg",
            "name" : "22"
        }
    ],
    "accessors" : [
        {
            "bufferView" : 0,
            "componentType" : 5126,
            "count" : 102,
            "max" : [
                0.8166851997375488,
                0.9510565996170044,
                1.5202314853668213
            ],
            "min" : [
                -1.0000001192092896,
                -0.9774364829063416,
                -1.2480003833770752
            ],
            "type" : "VEC3"
        },
        {
            "bufferView" : 1,
            "componentType" : 5126,
            "count" : 102,
            "type" : "VEC3"
        },
        {
            "bufferView" : 2,
            "componentType" : 5126,
            "count" : 102,
            "type" : "VEC2"
        },
        {
            "bufferView" : 3,
            "componentType" : 5123,
            "count" : 240,
            "type" : "SCALAR"
        },
        {
            "bufferView" : 5,
            "componentType" : 5126,
            "count" : 24,
            "max" : [
                0.8407630920410156,
                0.8731000423431396,
                0.2629227042198181
            ],
            "min" : [
                -0.8407630920410156,
                -0.8731000423431396,
                -0.24935030937194824
            ],
            "type" : "VEC3"
        },
        {
            "bufferView" : 6,
            "componentType" : 5126,
            "count" : 24,
            "type" : "VEC3"
        },
        {
            "bufferView" : 7,
            "componentType" : 5126,
            "count" : 24,
            "type" : "VEC2"
        },
        {
            "bufferView" : 8,
            "componentType" : 5123,
            "count" : 36,
            "type" : "SCALAR"
        },
        {
            "bufferView" : 9,
            "componentType" : 5126,
            "count" : 72,
            "max" : [
                0.9380235075950623,
                0.9380235075950623,
                0.3436155319213867
            ],
            "min" : [
                -0.9380235075950623,
                -0.9380235075950623,
                -0.3436155319213867
            ],
            "type" : "VEC3"
        },
        {
            "bufferView" : 10,
            "componentType" : 5126,
            "count" : 72,
            "type" : "VEC3"
        },
        {
            "bufferView" : 11,
            "componentType" : 5126,
            "count" : 72,
            "type" : "VEC2"
        },
        {
            "bufferView" : 12,
            "componentType" : 5123,
            "count" : 132,
            "type" : "SCALAR"
        }
    ],
    "bufferViews" : [
        {
            "buffer" : 0,
            "byteLength" : 1224,
            "byteOffset" : 0
        },
        {
            "buffer" : 0,
            "byteLength" : 1224,
            "byteOffset" : 1224
        },
        {
            "buffer" : 0,
            "byteLength" : 816,
            "byteOffset" : 2448
        },
        {
            "buffer" : 0,
            "byteLength" : 480,
            "byteOffset" : 3264
        },
        {
            "buffer" : 0,
            "byteLength" : 76480,
            "byteOffset" : 3744
        },
        {
            "buffer" : 0,
            "byteLength" : 288,
            "byteOffset" : 80224
        },
        {
            "buffer" : 0,
            "byteLength" : 288,
            "byteOffset" : 80512
        },
        {
            "buffer" : 0,
            "byteLength" : 192,
            "byteOffset" : 80800
        },
        {
            "buffer" : 0,
            "byteLength" : 72,
            "byteOffset" : 80992
        },
        {
            "buffer" : 0,
            "byteLength" : 864,
            "byteOffset" : 81064
        },
        {
            "buffer" : 0,
            "byteLength" : 864,
            "byteOffset" : 81928
        },
        {
            "buffer" : 0,
            "byteLength" : 576,
            "byteOffset" : 82792
        },
        {
            "buffer" : 0,
            "byteLength" : 264,
            "byteOffset" : 83368
        }
    ],
    "samplers" : [
        {
            "magFilter" : 9729,
            "minFilter" : 9987
        }
    ],
    "buffers" : [
        {
            "byteLength" : 83632,
            "uri" : "data:application/octet-stream;base64,"
        }
    ]
}
