{
    "asset" : {
        "generator" : "Khronos glTF Blender I/O v1.8.19",
        "version" : "2.0"
    },
    "scene" : 0,
    "scenes" : [
        {
            "name" : "Scene",
            "nodes" : [
                12
            ]
        }
    ],
    "nodes" : [
        {
            "mesh" : 0,
            "name" : "pCube2",
            "scale" : [
                0.05791220813989639,
                0.061631470918655396,
                0.4047940671443939
            ],
            "translation" : [
                0.07859808206558228,
                0.020345382392406464,
                -0.663559079170227
            ]
        },
        {
            "mesh" : 1,
            "name" : "pCube3",
            "rotation" : [
                0,
                0,
                0.7236897349357605,
                0.6901254653930664
            ],
            "scale" : [
                0.03225257992744446,
                0.04231289401650429,
                0.5690431594848633
            ],
            "translation" : [
                -0.0424940288066864,
                0.08808153867721558,
                -0.7292496562004089
            ]
        },
        {
            "mesh" : 2,
            "name" : "pCube4",
            "rotation" : [
                0,
                0,
                0.5898791551589966,
                0.8074915409088135
            ],
            "scale" : [
                0.05791220813989639,
                0.06229393556714058,
                0.44637149572372437
            ],
            "translation" : [
                0.0031549357809126377,
                0.15233272314071655,
                -0.663559079170227
            ]
        },
        {
            "mesh" : 3,
            "name" : "pCube5",
            "rotation" : [
                0,
                0,
                -0.6506034135818481,
                0.7594176530838013
            ],
            "scale" : [
                0.035814978182315826,
                0.03559305891394615,
                0.4047940671443939
            ],
            "translation" : [
                0.09580308198928833,
                0.12106230109930038,
                -0.663559079170227
            ]
        },
        {
            "mesh" : 4,
            "name" : "pCube6",
            "rotation" : [
                0,
                0,
                -0.9662262797355652,
                0.25769516825675964
            ],
            "scale" : [
                0.035814978182315826,
                0.03559306263923645,
                0.4047940671443939
            ],
            "translation" : [
                0.05710466578602791,
                0.25754162669181824,
                -0.5340975522994995
            ]
        },
        {
            "mesh" : 5,
            "name" : "pCube7",
            "rotation" : [
                0,
                0,
                0.8952962160110474,
                0.44547131657600403
            ],
            "scale" : [
                0.05791220813989639,
                0.06229393929243088,
                0.44637149572372437
            ],
            "translation" : [
                0.06885469704866409,
                -0.15703871846199036,
                -0.6019890904426575
            ]
        },
        {
            "mesh" : 6,
            "name" : "pCube8",
            "rotation" : [
                -0.012777882628142834,
                0.010946989059448242,
                -0.6505112648010254,
                0.7593101859092712
            ],
            "scale" : [
                0.035814978182315826,
                0.03559306263923645,
                0.4047940671443939
            ],
            "translation" : [
                -0.0908721536397934,
                0.1583298295736313,
                -0.5830518007278442
            ]
        },
        {
            "mesh" : 7,
            "name" : "pCube9",
            "rotation" : [
                -0.01756388135254383,
                0.02139892615377903,
                0.42142727971076965,
                0.9064395427703857
            ],
            "scale" : [
                0.035814978182315826,
                0.03559306263923645,
                0.4047940969467163
            ],
            "translation" : [
                -0.07385393232107162,
                -0.036196328699588776,
                -0.5839558839797974
            ]
        },
        {
            "children" : [
                0,
                1,
                2,
                3,
                4,
                5,
                6,
                7
            ],
            "name" : "group1"
        },
        {
            "mesh" : 8,
            "name" : "plant01_stage01:dirt"
        },
        {
            "mesh" : 9,
            "name" : "plant01_stage01:pot.001"
        },
        {
            "children" : [
                9,
                10
            ],
            "name" : "plant01_stage01:pot"
        },
        {
            "children" : [
                8,
                11
            ],
            "name" : "group2",
            "rotation" : [
                0.7071068286895752,
                0,
                0,
                0.7071067094802856
            ],
            "scale" : [
                0.009999999776482582,
                0.009999999776482582,
                0.009999999776482582
            ]
        }
    ],
    "materials" : [
        {
            "doubleSided" : true,
            "name" : "aiStandardSurface1.002",
            "pbrMetallicRoughness" : {
                "baseColorTexture" : {
                    "index" : 0
                },
                "metallicFactor" : 0,
                "roughnessFactor" : 0.5527864098548889
            }
        }
    ],
    "meshes" : [
        {
            "name" : "Mesh.012",
            "primitives" : [
                {
                    "attributes" : {
                        "POSITION" : 0,
                        "NORMAL" : 1,
                        "TEXCOORD_0" : 2
                    },
                    "indices" : 3,
                    "material" : 0
                }
            ]
        },
        {
            "name" : "Mesh.013",
            "primitives" : [
                {
                    "attributes" : {
                        "POSITION" : 4,
                        "NORMAL" : 5,
                        "TEXCOORD_0" : 6
                    },
                    "indices" : 7,
                    "material" : 0
                }
            ]
        },
        {
            "name" : "Mesh.014",
            "primitives" : [
                {
                    "attributes" : {
                        "POSITION" : 8,
                        "NORMAL" : 9,
                        "TEXCOORD_0" : 10
                    },
                    "indices" : 11,
                    "material" : 0
                }
            ]
        },
        {
            "name" : "Mesh.015",
            "primitives" : [
                {
                    "attributes" : {
                        "POSITION" : 12,
                        "NORMAL" : 13,
                        "TEXCOORD_0" : 14
                    },
                    "indices" : 15,
                    "material" : 0
                }
            ]
        },
        {
            "name" : "Mesh.016",
            "primitives" : [
                {
                    "attributes" : {
                        "POSITION" : 16,
                        "NORMAL" : 17,
                        "TEXCOORD_0" : 18
                    },
                    "indices" : 19,
                    "material" : 0
                }
            ]
        },
        {
            "name" : "Mesh.017",
            "primitives" : [
                {
                    "attributes" : {
                        "POSITION" : 20,
                        "NORMAL" : 21,
                        "TEXCOORD_0" : 22
                    },
                    "indices" : 11,
                    "material" : 0
                }
            ]
        },
        {
            "name" : "Mesh.018",
            "primitives" : [
                {
                    "attributes" : {
                        "POSITION" : 23,
                        "NORMAL" : 24,
                        "TEXCOORD_0" : 25
                    },
                    "indices" : 26,
                    "material" : 0
                }
            ]
        },
        {
            "name" : "Mesh.019",
            "primitives" : [
                {
                    "attributes" : {
                        "POSITION" : 27,
                        "NORMAL" : 28,
                        "TEXCOORD_0" : 29
                    },
                    "indices" : 30,
                    "material" : 0
                }
            ]
        },
        {
            "name" : "Mesh.021",
            "primitives" : [
                {
                    "attributes" : {
                        "POSITION" : 31,
                        "NORMAL" : 32,
                        "TEXCOORD_0" : 33
                    },
                    "indices" : 34,
                    "material" : 0
                }
            ]
        },
        {
            "name" : "Mesh.020",
            "primitives" : [
                {
                    "attributes" : {
                        "POSITION" : 35,
                        "NORMAL" : 36,
                        "TEXCOORD_0" : 37
                    },
                    "indices" : 38,
                    "material" : 0
                }
            ]
        }
    ],
    "textures" : [
        {
            "sampler" : 0,
            "source" : 0
        }
    ],
    "images" : [
        {
            "bufferView" : 4,
            "mimeType" : "image/jpeg",
            "name" : "2"
        }
    ],
    "accessors" : [
        {
            "bufferView" : 0,
            "componentType" : 5126,
            "count" : 46,
            "max" : [
                3.198679208755493,
                0.6679339408874512,
                0.5
            ],
            "min" : [
                -0.6679339408874512,
                -0.7654718160629272,
                -0.42982804775238037
            ],
            "type" : "VEC3"
        },
        {
            "bufferView" : 1,
            "componentType" : 5126,
            "count" : 46,
            "type" : "VEC3"
        },
        {
            "bufferView" : 2,
            "componentType" : 5126,
            "count" : 46,
            "type" : "VEC2"
        },
        {
            "bufferView" : 3,
            "componentType" : 5123,
            "count" : 84,
            "type" : "SCALAR"
        },
        {
            "bufferView" : 5,
            "componentType" : 5126,
            "count" : 46,
            "max" : [
                0.9389474391937256,
                2.5766286849975586,
                0.5
            ],
            "min" : [
                -0.8071742057800293,
                -0.82819664478302,
                -0.5700226426124573
            ],
            "type" : "VEC3"
        },
        {
            "bufferView" : 6,
            "componentType" : 5126,
            "count" : 46,
            "type" : "VEC3"
        },
        {
            "bufferView" : 7,
            "componentType" : 5126,
            "count" : 46,
            "type" : "VEC2"
        },
        {
            "bufferView" : 8,
            "componentType" : 5123,
            "count" : 84,
            "type" : "SCALAR"
        },
        {
            "bufferView" : 9,
            "componentType" : 5126,
            "count" : 44,
            "max" : [
                0.6875727772712708,
                0.6679339408874512,
                0.5
            ],
            "min" : [
                -0.6972410678863525,
                -0.6679339408874512,
                -0.5512920618057251
            ],
            "type" : "VEC3"
        },
        {
            "bufferView" : 10,
            "componentType" : 5126,
            "count" : 44,
            "type" : "VEC3"
        },
        {
            "bufferView" : 11,
            "componentType" : 5126,
            "count" : 44,
            "type" : "VEC2"
        },
        {
            "bufferView" : 12,
            "componentType" : 5123,
            "count" : 84,
            "type" : "SCALAR"
        },
        {
            "bufferView" : 13,
            "componentType" : 5126,
            "count" : 44,
            "max" : [
                0.7803152799606323,
                0.6679339408874512,
                0.5
            ],
            "min" : [
                -0.7188412547111511,
                -0.6679339408874512,
                -0.6446282863616943
            ],
            "type" : "VEC3"
        },
        {
            "bufferView" : 14,
            "componentType" : 5126,
            "count" : 44,
            "type" : "VEC3"
        },
        {
            "bufferView" : 15,
            "componentType" : 5126,
            "count" : 44,
            "type" : "VEC2"
        },
        {
            "bufferView" : 16,
            "componentType" : 5123,
            "count" : 84,
            "type" : "SCALAR"
        },
        {
            "bufferView" : 17,
            "componentType" : 5126,
            "count" : 44,
            "max" : [
                0.7803152799606323,
                0.6679339408874512,
                0.5
            ],
            "min" : [
                -0.7188412547111511,
                -0.6679339408874512,
                -0.6446282863616943
            ],
            "type" : "VEC3"
        },
        {
            "bufferView" : 18,
            "componentType" : 5126,
            "count" : 44,
            "type" : "VEC3"
        },
        {
            "bufferView" : 19,
            "componentType" : 5126,
            "count" : 44,
            "type" : "VEC2"
        },
        {
            "bufferView" : 20,
            "componentType" : 5123,
            "count" : 84,
            "type" : "SCALAR"
        },
        {
            "bufferView" : 21,
            "componentType" : 5126,
            "count" : 44,
            "max" : [
                0.6875727772712708,
                0.6679339408874512,
                0.5
            ],
            "min" : [
                -0.6972410678863525,
                -0.6679339408874512,
                -0.5512920618057251
            ],
            "type" : "VEC3"
        },
        {
            "bufferView" : 22,
            "componentType" : 5126,
            "count" : 44,
            "type" : "VEC3"
        },
        {
            "bufferView" : 23,
            "componentType" : 5126,
            "count" : 44,
            "type" : "VEC2"
        },
        {
            "bufferView" : 24,
            "componentType" : 5126,
            "count" : 44,
            "max" : [
                0.7803152799606323,
                0.6679339408874512,
                0.5
            ],
            "min" : [
                -0.7188412547111511,
                -0.6679339408874512,
                -0.6446282863616943
            ],
            "type" : "VEC3"
        },
        {
            "bufferView" : 25,
            "componentType" : 5126,
            "count" : 44,
            "type" : "VEC3"
        },
        {
            "bufferView" : 26,
            "componentType" : 5126,
            "count" : 44,
            "type" : "VEC2"
        },
        {
            "bufferView" : 27,
            "componentType" : 5123,
            "count" : 84,
            "type" : "SCALAR"
        },
        {
            "bufferView" : 28,
            "componentType" : 5126,
            "count" : 44,
            "max" : [
                0.7803152799606323,
                0.6679339408874512,
                0.5
            ],
            "min" : [
                -0.7188412547111511,
                -0.6679339408874512,
                -0.6446282863616943
            ],
            "type" : "VEC3"
        },
        {
            "bufferView" : 29,
            "componentType" : 5126,
            "count" : 44,
            "type" : "VEC3"
        },
        {
            "bufferView" : 30,
            "componentType" : 5126,
            "count" : 44,
            "type" : "VEC2"
        },
        {
            "bufferView" : 31,
            "componentType" : 5123,
            "count" : 84,
            "type" : "SCALAR"
        },
        {
            "bufferView" : 32,
            "componentType" : 5126,
            "count" : 32,
            "max" : [
                0.5177575349807739,
                0.5176348090171814,
                0.5607646703720093
            ],
            "min" : [
                -0.5177575349807739,
                -0.5178802013397217,
                -0.47072863578796387
            ],
            "type" : "VEC3"
        },
        {
            "bufferView" : 33,
            "componentType" : 5126,
            "count" : 32,
            "type" : "VEC3"
        },
        {
            "bufferView" : 34,
            "componentType" : 5126,
            "count" : 32,
            "type" : "VEC2"
        },
        {
            "bufferView" : 35,
            "componentType" : 5123,
            "count" : 60,
            "type" : "SCALAR"
        },
        {
            "bufferView" : 36,
            "componentType" : 5126,
            "count" : 64,
            "max" : [
                0.6829211115837097,
                0.6829211115837097,
                0.6841129064559937
            ],
            "min" : [
                -0.6829211115837097,
                -0.6829211115837097,
                -0.6841129064559937
            ],
            "type" : "VEC3"
        },
        {
            "bufferView" : 37,
            "componentType" : 5126,
            "count" : 64,
            "type" : "VEC3"
        },
        {
            "bufferView" : 38,
            "componentType" : 5126,
            "count" : 64,
            "type" : "VEC2"
        },
        {
            "bufferView" : 39,
            "componentType" : 5123,
            "count" : 132,
            "type" : "SCALAR"
        }
    ],
    "bufferViews" : [
        {
            "buffer" : 0,
            "byteLength" : 552,
            "byteOffset" : 0
        },
        {
            "buffer" : 0,
            "byteLength" : 552,
            "byteOffset" : 552
        },
        {
            "buffer" : 0,
            "byteLength" : 368,
            "byteOffset" : 1104
        },
        {
            "buffer" : 0,
            "byteLength" : 168,
            "byteOffset" : 1472
        },
        {
            "buffer" : 0,
            "byteLength" : 78680,
            "byteOffset" : 1640
        },
        {
            "buffer" : 0,
            "byteLength" : 552,
            "byteOffset" : 80320
        },
        {
            "buffer" : 0,
            "byteLength" : 552,
            "byteOffset" : 80872
        },
        {
            "buffer" : 0,
            "byteLength" : 368,
            "byteOffset" : 81424
        },
        {
            "buffer" : 0,
            "byteLength" : 168,
            "byteOffset" : 81792
        },
        {
            "buffer" : 0,
            "byteLength" : 528,
            "byteOffset" : 81960
        },
        {
            "buffer" : 0,
            "byteLength" : 528,
            "byteOffset" : 82488
        },
        {
            "buffer" : 0,
            "byteLength" : 352,
            "byteOffset" : 83016
        },
        {
            "buffer" : 0,
            "byteLength" : 168,
            "byteOffset" : 83368
        },
        {
            "buffer" : 0,
            "byteLength" : 528,
            "byteOffset" : 83536
        },
        {
            "buffer" : 0,
            "byteLength" : 528,
            "byteOffset" : 84064
        },
        {
            "buffer" : 0,
            "byteLength" : 352,
            "byteOffset" : 84592
        },
        {
            "buffer" : 0,
            "byteLength" : 168,
            "byteOffset" : 84944
        },
        {
            "buffer" : 0,
            "byteLength" : 528,
            "byteOffset" : 85112
        },
        {
            "buffer" : 0,
            "byteLength" : 528,
            "byteOffset" : 85640
        },
        {
            "buffer" : 0,
            "byteLength" : 352,
            "byteOffset" : 86168
        },
        {
            "buffer" : 0,
            "byteLength" : 168,
            "byteOffset" : 86520
        },
        {
            "buffer" : 0,
            "byteLength" : 528,
            "byteOffset" : 86688
        },
        {
            "buffer" : 0,
            "byteLength" : 528,
            "byteOffset" : 87216
        },
        {
            "buffer" : 0,
            "byteLength" : 352,
            "byteOffset" : 87744
        },
        {
            "buffer" : 0,
            "byteLength" : 528,
            "byteOffset" : 88096
        },
        {
            "buffer" : 0,
            "byteLength" : 528,
            "byteOffset" : 88624
        },
        {
            "buffer" : 0,
            "byteLength" : 352,
            "byteOffset" : 89152
        },
        {
            "buffer" : 0,
            "byteLength" : 168,
            "byteOffset" : 89504
        },
        {
            "buffer" : 0,
            "byteLength" : 528,
            "byteOffset" : 89672
        },
        {
            "buffer" : 0,
            "byteLength" : 528,
            "byteOffset" : 90200
        },
        {
            "buffer" : 0,
            "byteLength" : 352,
            "byteOffset" : 90728
        },
        {
            "buffer" : 0,
            "byteLength" : 168,
            "byteOffset" : 91080
        },
        {
            "buffer" : 0,
            "byteLength" : 384,
            "byteOffset" : 91248
        },
        {
            "buffer" : 0,
            "byteLength" : 384,
            "byteOffset" : 91632
        },
        {
            "buffer" : 0,
            "byteLength" : 256,
            "byteOffset" : 92016
        },
        {
            "buffer" : 0,
            "byteLength" : 120,
            "byteOffset" : 92272
        },
        {
            "buffer" : 0,
            "byteLength" : 768,
            "byteOffset" : 92392
        },
        {
            "buffer" : 0,
            "byteLength" : 768,
            "byteOffset" : 93160
        },
        {
            "buffer" : 0,
            "byteLength" : 512,
            "byteOffset" : 93928
        },
        {
            "buffer" : 0,
            "byteLength" : 264,
            "byteOffset" : 94440
        }
    ],
    "samplers" : [
        {
            "magFilter" : 9729,
            "minFilter" : 9987
        }
    ],
    "buffers" : [
        {
            "byteLength" : 94704,
            "uri" : "data:application/octet-stream;base64,"
        }
    ]
}
